<svg width="25" height="25" viewBox="0 0 25 25" fill="none" xmlns="http://www.w3.org/2000/svg">
<path opacity="0.4" d="M13.1903 2.08263C13.6234 2.40747 14.1004 2.81362 14.4842 3.14944C15.2507 3.82016 16.2746 4.77983 17.3009 5.93435C19.3182 8.20381 21.4903 11.3863 21.4903 14.6826C21.4903 19.5151 17.5728 23.4326 12.7403 23.4326C7.90781 23.4326 3.9903 19.5151 3.9903 14.6826C3.9903 11.3863 6.16245 8.20381 8.17974 5.93435C8.35243 5.74008 8.6134 5.64907 8.86945 5.69383C9.1255 5.73859 9.34012 5.91274 9.43666 6.15408C9.68594 6.77728 9.84813 7.09713 10.048 7.33144C10.1465 7.44686 10.2664 7.55541 10.439 7.66979C11.3415 5.95059 11.662 4.72738 11.9993 2.56694C12.0399 2.30682 12.2139 2.08704 12.4578 1.98787C12.7017 1.8887 12.9797 1.92466 13.1903 2.08263Z" fill="#2196F3"/>
<path fill-rule="evenodd" clip-rule="evenodd" d="M9.03319 19.3897C8.64267 18.9992 8.64267 18.366 9.03319 17.9755L15.0332 11.9755C15.4237 11.585 16.0569 11.585 16.4474 11.9755C16.8379 12.366 16.8379 12.9992 16.4474 13.3897L10.4474 19.3897C10.0569 19.7802 9.42372 19.7802 9.03319 19.3897Z" fill="#2196F3"/>
<path fill-rule="evenodd" clip-rule="evenodd" d="M8.7403 12.6826C8.7403 12.1303 9.18802 11.6826 9.7403 11.6826H9.75106C10.3033 11.6826 10.7511 12.1303 10.7511 12.6826C10.7511 13.2349 10.3033 13.6826 9.75106 13.6826H9.7403C9.18802 13.6826 8.7403 13.2349 8.7403 12.6826ZM14.7295 18.6826C14.7295 18.1303 15.1773 17.6826 15.7295 17.6826H15.7403C16.2926 17.6826 16.7403 18.1303 16.7403 18.6826C16.7403 19.2349 16.2926 19.6826 15.7403 19.6826H15.7295C15.1773 19.6826 14.7295 19.2349 14.7295 18.6826Z" fill="#2196F3"/>
</svg>
