<svg width="57" height="57" viewBox="0 0 57 57" fill="none" xmlns="http://www.w3.org/2000/svg">
<g clip-path="url(#clip0_80_163)">
<mask id="mask0_80_163" style="mask-type:luminance" maskUnits="userSpaceOnUse" x="0" y="0" width="57" height="57">
<path d="M57 0H0V57H57V0Z" fill="white"/>
</mask>
<g mask="url(#mask0_80_163)">
<path d="M42.7672 32.0257L28.2255 35.1884L13.4807 32.2351L27.4545 29.129C27.7035 29.077 27.9565 29.051 28.2096 29.051C28.4545 29.051 28.6987 29.0756 28.9401 29.1242L42.7672 32.0257Z" fill="#B05400"/>
<path d="M42.7673 32.0255L28.2268 35.0385L28.2097 29.0508C28.4546 29.0508 28.6988 29.0754 28.9402 29.124L42.7673 32.0255Z" fill="#823D00"/>
<path d="M25.2981 26.4771H24.5375C24.3685 26.4771 24.2314 26.3401 24.2314 26.1711V23.8971C24.2314 23.7281 24.3685 23.5911 24.5375 23.5911H25.2981C25.4671 23.5911 25.6041 23.7281 25.6041 23.8971V26.1711C25.6041 26.3401 25.4671 26.4771 25.2981 26.4771Z" fill="#6DF4E6"/>
<path d="M32.4475 27.6922H31.6869C31.5179 27.6922 31.3809 27.5552 31.3809 27.3862V25.1122C31.3809 24.9432 31.5179 24.8062 31.6869 24.8062H32.4475C32.6165 24.8062 32.7535 24.9432 32.7535 25.1122V27.3862C32.7535 27.5552 32.6165 27.6922 32.4475 27.6922Z" fill="#C69C6D"/>
<path d="M20.0363 30.4348L19.3096 30.6595C19.1481 30.7095 18.9767 30.619 18.9268 30.4575L18.2552 28.285C18.2053 28.1235 18.2957 27.9522 18.4572 27.9023L19.1839 27.6776C19.3454 27.6276 19.5167 27.7181 19.5666 27.8795L20.2382 30.0521C20.2882 30.2136 20.1978 30.3849 20.0363 30.4348Z" fill="#F36ABA"/>
<path d="M40.5776 26.0874L39.865 25.8212C39.7067 25.762 39.6263 25.5857 39.6855 25.4274L40.4814 23.2971C40.5405 23.1388 40.7168 23.0584 40.8751 23.1176L41.5877 23.3838C41.7461 23.443 41.8265 23.6192 41.7673 23.7776L40.9714 25.9078C40.9122 26.0662 40.736 26.1465 40.5776 26.0874Z" fill="#F36ABA"/>
<path d="M17.6058 26.654L20.3325 25.7868L21.484 23.9501L19.4242 23.7175L16.594 24.8546L15.3384 26.3471L17.6058 26.654Z" fill="#FF8EDC"/>
<path d="M17.6056 26.6536L17.3574 28.4209L21.2101 27.0674L20.3324 25.7864L17.6056 26.6536Z" fill="#BB2876"/>
<path d="M20.3311 25.7869L21.4824 23.9502L22.9391 24.8634L21.3907 27.3334L20.3311 25.7869Z" fill="#FF62AA"/>
<path d="M15.3383 26.3474L14.7673 27.7682L17.3574 28.4216L17.6057 26.6543L15.3383 26.3474Z" fill="#FF62AA"/>
<path d="M17.3574 28.4213L20.5307 31.3812L21.2101 27.0679L17.3574 28.4213Z" fill="#722876"/>
<path d="M14.7673 27.7686L20.5307 31.3817L17.3574 28.4218L14.7673 27.7686Z" fill="#BA4EA2"/>
<path d="M22.941 24.863L20.5312 31.3809L21.2107 27.0676L22.941 24.863Z" fill="#BA4EA2"/>
<path d="M15.3384 26.3471L21.484 23.9501L19.4242 23.7175L16.594 24.8546L15.3384 26.3471Z" fill="#FFC3DC"/>
<path d="M17.6629 26.6035C17.3515 27.241 17.4147 28.3708 17.4147 28.3708C17.6522 27.724 17.6629 26.6035 17.6629 26.6035Z" fill="#FFC3DC"/>
<path d="M37.0052 27.9107L39.5141 28.7648L41.2346 27.7985L39.6896 26.7151L36.932 26.3909L35.4744 27.2096L37.0052 27.9107Z" fill="#7CFFF9"/>
<path d="M37.0052 27.9106L35.9885 29.5743L39.6873 30.4626L39.5142 28.7648L37.0052 27.9106Z" fill="#00A5EC"/>
<path d="M39.5151 28.7645L41.2357 27.7981L42.0021 29.1626L39.6883 30.4622L39.5151 28.7645Z" fill="#00DBFF"/>
<path d="M35.4754 27.2087L34.2039 27.9229L35.9895 29.5735L37.0062 27.9098L35.4754 27.2087Z" fill="#00DCFF"/>
<path d="M35.9885 29.5745L37.2353 33.3228L39.6873 30.4627L35.9885 29.5745Z" fill="#1070C4"/>
<path d="M34.2039 27.9231L37.2363 33.322L35.9895 29.5737L34.2039 27.9231Z" fill="#2181E5"/>
<path d="M42.0014 29.1631L37.2356 33.3228L39.6876 30.4627L42.0014 29.1631Z" fill="#00AFFF"/>
<path d="M35.4744 27.2096L41.2346 27.7984L39.6896 26.7151L36.932 26.3909L35.4744 27.2096Z" fill="#B6FFF9"/>
<path d="M37.0052 27.9106C36.6011 28.3101 36.0093 29.4431 35.9885 29.5743C36.622 28.9609 37.0052 27.9106 37.0052 27.9106Z" fill="#7CFFF9"/>
<path d="M43.1401 27.8462L42.566 27.3472C42.4385 27.2363 42.425 27.043 42.5359 26.9154L44.0277 25.1992C44.1386 25.0717 44.3319 25.0581 44.4595 25.169L45.0335 25.668C45.1611 25.7789 45.1746 25.9722 45.0637 26.0998L43.5718 27.816C43.4609 27.9435 43.2676 27.9571 43.1401 27.8462Z" fill="#8CC63F"/>
<path d="M19.6268 23.9844C19.6268 24.3829 19.3038 24.7059 18.9053 24.7059C18.5068 24.7059 18.1838 24.3829 18.1838 23.9844C18.1838 23.5859 18.5068 23.2629 18.9053 23.2629C19.3038 23.2629 19.6268 23.5859 19.6268 23.9844Z" fill="#C69C6D"/>
<path d="M36.5465 29.6099C36.5465 30.0084 36.2235 30.3314 35.825 30.3314C35.4265 30.3314 35.1035 30.0084 35.1035 29.6099C35.1035 29.2114 35.4265 28.8884 35.825 28.8884C36.2235 28.8884 36.5465 29.2114 36.5465 29.6099Z" fill="#FFD462"/>
<path d="M26.5078 34.4467L29.7608 35.0087L31.6892 33.4845L29.5773 32.4528L26.1216 32.5912L24.4879 33.8824L26.5078 34.4467Z" fill="#7CFFF9"/>
<path d="M26.5069 34.4467L25.5803 36.6915L30.3038 37.0635L29.7599 35.0086L26.5069 34.4467Z" fill="#00A5EC"/>
<path d="M29.7589 35.0087L31.6873 33.4846L32.8961 35.0139L30.3027 37.0637L29.7589 35.0087Z" fill="#00DBFF"/>
<path d="M24.4864 33.8826L23.0613 35.009L25.5797 36.6917L26.5063 34.4469L24.4864 33.8826Z" fill="#00DCFF"/>
<path d="M25.5801 36.6914L27.8444 41.0598L30.3036 37.0635L25.5801 36.6914Z" fill="#1070C4"/>
<path d="M23.062 35.009L27.8446 41.0602L25.5804 36.6918L23.062 35.009Z" fill="#2181E5"/>
<path d="M32.8968 35.014L27.8442 41.0601L30.3035 37.0637L32.8968 35.014Z" fill="#00AFFF"/>
<path d="M24.4879 33.8824L31.6892 33.4845L29.5773 32.4528L26.1216 32.5912L24.4879 33.8824Z" fill="#B6FFF9"/>
<path d="M26.5071 34.4464C26.0878 35.0166 25.5805 36.5257 25.5805 36.6912C26.2403 35.8131 26.5071 34.4464 26.5071 34.4464Z" fill="#7CFFF9"/>
<path d="M14.7594 29.3321C14.7594 29.7306 14.4364 30.0536 14.0379 30.0536C13.6394 30.0536 13.3164 29.7306 13.3164 29.3321C13.3164 28.9336 13.6394 28.6106 14.0379 28.6106C14.4364 28.6106 14.7594 28.9336 14.7594 29.3321Z" fill="#8CC63F"/>
<path d="M43.5423 47.1575C43.5437 47.8346 43.1086 48.4357 42.4643 48.6468L28.8698 53.1021C28.6933 53.1594 28.5093 53.1882 28.3254 53.1882C28.14 53.1882 27.9546 53.1588 27.7768 53.1007L14.1864 48.6468C13.5421 48.4357 13.107 47.8346 13.1084 47.1575L13.1323 35.4923L13.1378 32.866C13.1392 32.452 13.4921 32.1349 13.8923 32.1623C13.9244 32.1643 13.9572 32.1691 13.9901 32.176L28.3254 35.1752L42.6346 32.1814C42.7085 32.1657 42.7817 32.1623 42.8521 32.1684C43.1969 32.2012 43.4821 32.4773 43.5102 32.836C43.5122 32.8544 43.5129 32.8735 43.5129 32.8927L43.5423 47.1575Z" fill="#FF8F28"/>
<path d="M43.4462 47.0422C43.4476 47.7193 43.0125 48.3205 42.3682 48.5316L28.7737 52.9869C28.5972 53.0443 28.4132 53.073 28.2292 53.073V35.06L42.5385 32.0662C42.9907 31.9719 43.4154 32.3156 43.4168 32.7774L43.4462 47.0422Z" fill="#D76700"/>
<path d="M22.7469 33.8736V51.3276C22.7469 51.5166 22.562 51.6503 22.3823 51.5914L18.6496 50.3682C18.5354 50.3307 18.4583 50.2243 18.4583 50.1043V33.0944C18.4583 32.9121 18.6262 32.7759 18.8048 32.8134L22.5185 33.5926C22.6517 33.6205 22.7469 33.7377 22.7469 33.8736Z" fill="#F9C741"/>
<path d="M33.7129 33.8923V51.3267C33.7129 51.5157 33.8978 51.6494 34.0775 51.5905L37.8103 50.3673C37.9244 50.3299 38.0016 50.2234 38.0016 50.1034V33.1237C38.0016 32.9417 37.8342 32.8056 37.6557 32.8425L33.942 33.6111C33.8086 33.6387 33.7129 33.7562 33.7129 33.8923Z" fill="#F9C741"/>
<path d="M12.5766 11.0792L11.9893 14.3026C11.9182 14.6933 12.132 15.0802 12.5008 15.2277L27.2801 21.1394L28.1632 16.0859L13.3503 10.6371C13.0111 10.5124 12.6414 10.7236 12.5766 11.0792Z" fill="#FF8F28"/>
<path d="M44.5108 16.7454L43.9841 19.893C43.9186 20.2847 43.5861 20.5761 43.1892 20.5898L27.2809 21.139L28.164 16.0856L43.8617 15.9838C44.2676 15.9812 44.5778 16.3451 44.5108 16.7454Z" fill="#CB6000"/>
<path d="M13.1801 10.6018L29.0416 10.2673L44.047 16.0097L28.1638 16.0855L13.1801 10.6018Z" fill="#FFC16A"/>
<path d="M27.585 13.2367C20.3242 15.0515 19.7525 18.7205 19.222 24.538C19.1808 24.9896 18.8864 24.6451 18.5302 24.0279C18.1103 23.3005 17.6047 22.1941 17.3263 21.5661C17.2201 21.3265 16.946 21.2983 16.7828 21.5106C16.4779 21.9074 16.0193 22.5294 15.6469 23.1423C15.2877 23.7334 15.1017 23.2509 15.1918 22.2221C15.4439 19.3422 18.3159 12.3472 25.1501 12.4686L27.585 13.2367Z" fill="#FCEDC3"/>
<path d="M29.3904 13.5524C35.6054 17.7221 34.899 21.3675 33.4251 27.0202C33.3107 27.459 33.7045 27.2347 34.2489 26.7749C34.8906 26.233 35.7415 25.3637 36.2163 24.8673C36.3975 24.6779 36.6649 24.7443 36.7464 24.9994C36.8987 25.4761 37.1192 26.2168 37.2617 26.9196C37.3991 27.5975 37.7377 27.2067 38.0019 26.2083C38.7414 23.4136 38.4118 15.8591 31.9415 13.6556L29.3904 13.5524Z" fill="#FCEDC3"/>
<path d="M30.4794 11.3743C34.9953 8.64184 41.905 6.49694 41.0246 11.522C44.3719 15.7119 40.5267 16.738 37.2799 15.815C34.033 14.892 29.8192 13.5251 29.8192 13.5251L30.4794 11.3743Z" fill="#FF8F28"/>
<path d="M30.4794 11.3737L30.1278 12.5193C30.199 12.5319 30.2777 12.5389 30.3645 12.5405C33.3159 11.7177 39.7454 9.86181 41.0247 11.5216C41.9053 6.4965 34.9956 8.64148 30.4794 11.3737Z" fill="#FFAA33"/>
<path d="M27.6591 10.8848L27.688 13.135C27.688 13.135 23.2597 13.2617 19.8843 13.2353C16.5088 13.2082 13.1071 11.1423 17.4975 8.06232C18.065 2.99232 24.0931 6.9932 27.6591 10.8848Z" fill="#FF8F28"/>
<path d="M27.6588 10.8849L27.6742 12.0832C27.6023 12.0752 27.5248 12.0598 27.441 12.0369C24.8399 10.4177 19.1914 6.8292 17.4971 8.06244C18.0647 2.99245 24.0927 6.99332 27.6588 10.8849Z" fill="#FFAA33"/>
<path d="M29.1518 14.1294L27.7456 13.8836C26.8562 13.7282 26.2557 12.8734 26.4111 11.984L26.6205 10.7856C26.7759 9.89615 27.6308 9.29562 28.5202 9.45104L29.9264 9.69676C30.8158 9.85218 31.4163 10.707 31.2609 11.5964L31.0515 12.7948C30.8961 13.6842 30.0412 14.2848 29.1518 14.1294Z" fill="#FDEDC3"/>
</g>
</g>
<defs>
<clipPath id="clip0_80_163">
<rect width="57" height="57" fill="white"/>
</clipPath>
</defs>
</svg>
