<svg width="24" height="25" viewBox="0 0 24 25" fill="none" xmlns="http://www.w3.org/2000/svg">
<g opacity="0.4">
<path d="M7.50337 13.8301C7.21627 13.984 6.93491 14.1451 6.72814 14.2729C6.23354 14.5621 5.30191 15.1068 4.62889 15.7909C4.19456 16.2324 3.6236 16.9664 3.51733 17.976C3.48451 18.2877 3.49934 18.5862 3.55304 18.8698C3.60678 19.1535 3.63366 19.2954 3.56186 19.3698C3.49006 19.4443 3.37042 19.4261 3.13114 19.3896C2.10732 19.2338 1.41543 18.6757 0.847642 18.0671C0.423078 17.6121 0.203787 17.0888 0.258175 16.529C0.30924 16.0034 0.59019 15.5802 0.871177 15.2708C1.31466 14.7825 1.96834 14.3686 2.35981 14.1208C2.44345 14.0678 2.51514 14.0224 2.57023 13.9855C4.04765 12.9958 5.8097 12.7039 7.45505 13.1096C7.84296 13.2052 8.03691 13.2531 8.05406 13.3894C8.0712 13.5257 7.88193 13.6272 7.50337 13.8301Z" fill="#FFEC19"/>
<path d="M6.48742 5.96893C6.67712 5.99746 6.77197 6.01172 6.82071 6.09052C6.86944 6.16933 6.83547 6.27398 6.76754 6.4833C6.59386 7.01845 6.5 7.58957 6.5 8.18262C6.5 9.42257 6.91032 10.5667 7.60259 11.4866C7.73465 11.6621 7.80069 11.7498 7.78034 11.8401C7.75999 11.9304 7.67509 11.9748 7.5053 12.0637C7.05527 12.2993 6.5432 12.4326 6 12.4326C4.20508 12.4326 2.75 10.9775 2.75 9.18262C2.75 7.38769 4.20508 5.93262 6 5.93262C6.16566 5.93262 6.32842 5.94501 6.48742 5.96893Z" fill="#FFEC19"/>
</g>
<g opacity="0.4">
<path d="M16.4971 13.8301C16.7842 13.984 17.0655 14.1451 17.2723 14.2729C17.7669 14.5621 18.6985 15.1068 19.3715 15.7909C19.8059 16.2324 20.3768 16.9664 20.4831 17.976C20.5159 18.2877 20.5011 18.5862 20.4474 18.8698C20.3937 19.1535 20.3668 19.2954 20.4386 19.3698C20.5104 19.4443 20.63 19.4261 20.8693 19.3896C21.8931 19.2338 22.585 18.6757 23.1528 18.0671C23.5774 17.6121 23.7967 17.0888 23.7423 16.529C23.6912 16.0034 23.4102 15.5802 23.1293 15.2708C22.6858 14.7825 22.0321 14.3686 21.6406 14.1208C21.557 14.0678 21.4853 14.0224 21.4302 13.9855C19.9528 12.9958 18.1907 12.7039 16.5454 13.1096C16.1575 13.2052 15.9635 13.2531 15.9464 13.3894C15.9292 13.5257 16.1185 13.6272 16.4971 13.8301Z" fill="#FFEC19"/>
<path d="M16.3979 11.4866C16.2659 11.6621 16.1998 11.7498 16.2202 11.8401C16.2405 11.9304 16.3254 11.9748 16.4952 12.0637C16.9452 12.2993 17.4573 12.4326 18.0005 12.4326C19.7954 12.4326 21.2505 10.9775 21.2505 9.18262C21.2505 7.38769 19.7954 5.93262 18.0005 5.93262C17.8348 5.93262 17.6721 5.94501 17.5131 5.96893C17.3234 5.99746 17.2285 6.01172 17.1798 6.09052C17.1311 6.16933 17.165 6.27398 17.233 6.4833C17.4066 7.01845 17.5005 7.58957 17.5005 8.18262C17.5005 9.42257 17.0902 10.5667 16.3979 11.4866Z" fill="#FFEC19"/>
</g>
<path d="M7.69146 15.1559C10.3292 13.5248 13.675 13.5248 16.3127 15.1559C16.3905 15.204 16.489 15.2616 16.6022 15.3278C17.1145 15.6276 17.9276 16.1034 18.4826 16.6675C18.8311 17.0217 19.1787 17.5047 19.242 18.1068C19.3099 18.7509 19.0365 19.3472 18.5149 19.8632C17.6533 20.7156 16.5859 21.4326 15.1865 21.4326H8.81773C7.41827 21.4326 6.35094 20.7156 5.48932 19.8632C4.96775 19.3472 4.69435 18.7509 4.76215 18.1068C4.82553 17.5047 5.17313 17.0217 5.52165 16.6675C6.07655 16.1034 6.88974 15.6276 7.40201 15.3278C7.51518 15.2616 7.6137 15.204 7.69146 15.1559Z" fill="#FFEC19"/>
<path d="M7.75195 8.18262C7.75195 5.83541 9.65474 3.93262 12.002 3.93262C14.3492 3.93262 16.252 5.83541 16.252 8.18262C16.252 10.5298 14.3492 12.4326 12.002 12.4326C9.65474 12.4326 7.75195 10.5298 7.75195 8.18262Z" fill="#FFEC19"/>
</svg>
