<svg width="154" height="156" viewBox="0 0 154 156" fill="none" xmlns="http://www.w3.org/2000/svg">
<path d="M97.1085 145.768H110.256V145.767V138.717H97.1085V145.768Z" fill="black" fill-opacity="0.3"/>
<path d="M56.8916 145.768H43.7438V139.222V138.717H56.8916V145.768Z" fill="black" fill-opacity="0.3"/>
<path d="M56.8916 152.819H68.1059H74.6799H81.2538H97.1085V145.768H56.8916V152.819Z" fill="black" fill-opacity="0.3"/>
<path fill-rule="evenodd" clip-rule="evenodd" d="M49.5169 29.8175L97.1065 29.8175V36.5023H102.52V36.5882H103.708V43.7272H110.448V50.7289H116.933V64.8337H123.316V91.4492H116.933V105.112H110.641V109.569H103.705V116.212H63.8978V109.462H57.807V102.712H51.2087V96.6379H44.649V80.8049H44.6105V72.187H52.3083L52.3083 57.6948H52.361V57.5851H63.8978V51.0717L82.7256 51.0717V57.5851H89.1227V58.0051H89.3085V65.1441H96.0487V69.7577L96.0769 79.0612H96.0917V83.9533L96.1044 88.1297L89.6385 88.1498V95.179H81.1311V95.1705H70.6652V88.6571H66.6048V71.8118H75.1122V86.5526H81.1071V79.0612H87.5694L87.5534 73.762H80.8011V66.203H60.8158V80.901H53.1564V87.8266H60.9005V94.0944H68.1755V100.844H75.2814V107.594H87.9223V100.951H101.965V86.724H108.426V70.1712H101.941V56.3475H95.2006V45.1202L52.9487 45.1202V52.3192H46.3504V59.5182H40.2597L40.2597 74.0877H33.8549V99.5794H39.5829V114.663H45.6736V130.432H61.0697V137.15H99.5962V130.775H113.47L113.47 123.919L132.297 123.919V125.398V132.537H123.404H117.24V138.717V139.393H110.472V145.767H110.256H43.7645V139.222H43.7438H37.1662V138.717V131.508H31.0755V117.618H25.3475V102.864H18.6073L18.6073 70.4208H25.3475V55.522H31.7522V49.8719H37.843V42.1587H44.4413V37.7021H44.7796V36.5023H49.5169V29.8175Z" fill="white" fill-opacity="0.15"/>
<path d="M110.256 10.2319L97.1084 10.2319V3.18091L56.8916 3.18091V10.2319L43.7438 10.2319V17.283L30.596 17.283V24.334H23.6353V30.6015H16.6747L16.6747 43.9201H10.1008L10.1008 57.6304H3.1402L3.1402 98.3696H10.1008L10.1008 112.08H16.6747V125.398H23.6353V131.666H30.596V138.717H37.1662V131.508H31.0755V117.618H25.3475V102.864H18.6073L18.6073 70.4208H25.3475V55.522H31.7522V49.8719H37.843V42.1587H44.4413V37.7021H44.7796V36.5023H49.5169V29.8175L97.1065 29.8175V36.5023H102.52V36.5882H103.708V43.7272H110.448V50.7289H116.933V64.8337H123.316V91.4492H116.933V105.112H110.641V109.569H103.705V116.212H63.8978V109.462H57.807V102.712H51.2087V96.6379H44.649V80.8049H44.6105V72.187H52.3083L52.3083 57.6948H52.361V57.5851H63.8978V51.0717L82.7256 51.0717V57.5851H89.1227V58.0051H89.3085V65.1441H96.0487V69.7577L96.0769 79.0612H96.0917V83.9533L96.1044 88.1297L89.6385 88.1498V95.179H81.1311V95.1705H70.6652V88.6571H66.6048V71.8118H75.1122V86.5526H81.1071V79.0612H87.5694L87.5534 73.762H80.8011V66.203H60.8158V80.901H53.1564V87.8266H60.9005V94.0944H68.1755V100.844H75.2814V107.594H87.9223V100.951H101.965V86.724H108.426V70.1712H101.941V56.3475H95.2006V45.1202L52.9487 45.1202V52.3192H46.3504V59.5182H40.2597L40.2597 74.0877H33.8549V99.5794H39.5829V114.663H45.6736V130.432H61.0697V137.15H99.5962V130.775H113.47L113.47 123.919L132.297 123.919V125.398H137.325V112.08H143.899V98.3696H150.86V57.6304H143.899V43.9201H137.325V30.6015H130.365V24.334H123.404V17.283H110.256V10.2319Z" fill="black" fill-opacity="0.3"/>
<path d="M117.24 138.717H123.404L123.404 132.537H117.24V138.717Z" fill="black" fill-opacity="0.3"/>
<path fill-rule="evenodd" clip-rule="evenodd" d="M113.396 7.05101L100.249 7.05101V0L53.7514 0V7.05101H40.6036V14.102H27.4558V21.153H20.4951V27.4206H13.5345V40.7392H6.96062V54.4495H0L0 101.551H6.96062L6.96062 115.261H13.5345V128.579H20.4951V134.847H27.4558V141.898H40.6036V148.949H53.7514V156H64.9658H90.1944H100.249V148.949H113.396V141.898H126.544V134.847H133.505V128.579H140.465V115.261H147.039V101.551H154V54.4495H147.039V40.7392H140.465V27.4206H133.505V21.153H126.544V14.102H113.396V7.05101ZM110.256 10.2319V17.283H123.404V24.334H130.365V30.6015H137.325V43.9201H143.899V57.6304H150.86V98.3696H143.899V112.08H137.325V125.398H132.297V132.537H123.404L123.404 138.717H117.24V139.393H110.472V145.767H110.256V145.768H97.1085V152.819H87.0543H81.2538H77.5801H74.6799H68.1059H56.8916V145.768H43.7438V139.222H37.1662V138.717H30.596V131.666H23.6353V125.398H16.6747V112.08H10.1008L10.1008 98.3696H3.1402L3.1402 57.6304H10.1008L10.1008 43.9201H16.6747L16.6747 30.6015H23.6353V24.334H30.596V17.283L43.7438 17.283V10.2319L56.8916 10.2319V3.18091L97.1084 3.18091V10.2319L110.256 10.2319Z" fill="black" fill-opacity="0.4"/>
</svg>
