<svg width="25" height="25" viewBox="0 0 25 25" fill="none" xmlns="http://www.w3.org/2000/svg">
<path opacity="0.4" fill-rule="evenodd" clip-rule="evenodd" d="M5.51929 6.68262C5.51929 6.13034 5.96701 5.68262 6.51929 5.68262H6.52827C7.08055 5.68262 7.52827 6.13034 7.52827 6.68262C7.52827 7.2349 7.08055 7.68262 6.52827 7.68262H6.51929C5.96701 7.68262 5.51929 7.2349 5.51929 6.68262ZM8.51749 6.68262C8.51749 6.13034 8.96521 5.68262 9.51749 5.68262H9.52647C10.0788 5.68262 10.5265 6.13034 10.5265 6.68262C10.5265 7.2349 10.0788 7.68262 9.52647 7.68262H9.51749C8.96521 7.68262 8.51749 7.2349 8.51749 6.68262ZM11.5157 6.68262C11.5157 6.13034 11.9634 5.68262 12.5157 5.68262H12.5247C13.077 5.68262 13.5247 6.13034 13.5247 6.68262C13.5247 7.2349 13.077 7.68262 12.5247 7.68262H12.5157C11.9634 7.68262 11.5157 7.2349 11.5157 6.68262ZM14.5139 6.68262C14.5139 6.13034 14.9616 5.68262 15.5139 5.68262H15.5229C16.0752 5.68262 16.5229 6.13034 16.5229 6.68262C16.5229 7.2349 16.0752 7.68262 15.5229 7.68262H15.5139C14.9616 7.68262 14.5139 7.2349 14.5139 6.68262ZM17.5121 6.68262C17.5121 6.13034 17.9598 5.68262 18.5121 5.68262H18.5211C19.0734 5.68262 19.5211 6.13034 19.5211 6.68262C19.5211 7.2349 19.0734 7.68262 18.5211 7.68262H18.5121C17.9598 7.68262 17.5121 7.2349 17.5121 6.68262ZM20.5103 6.68262C20.5103 6.13034 20.958 5.68262 21.5103 5.68262H21.5193C22.0716 5.68262 22.5193 6.13034 22.5193 6.68262C22.5193 7.2349 22.0716 7.68262 21.5193 7.68262H21.5103C20.958 7.68262 20.5103 7.2349 20.5103 6.68262Z" fill="#FE0000"/>
<path fill-rule="evenodd" clip-rule="evenodd" d="M10.1711 13.6445C9.16835 15.65 8.51929 18.4905 8.51929 21.6826H6.51929C6.51929 18.2473 7.21338 15.0878 8.38222 12.7501C9.52116 10.4722 11.2796 8.68262 13.5193 8.68262C15.759 8.68262 17.5174 10.4722 18.6564 12.7501C19.8252 15.0878 20.5193 18.2473 20.5193 21.6826H18.5193C18.5193 18.4905 17.8702 15.65 16.8675 13.6445C15.8349 11.5793 14.5933 10.6826 13.5193 10.6826C12.4453 10.6826 11.2037 11.5793 10.1711 13.6445Z" fill="#FE0000"/>
<path fill-rule="evenodd" clip-rule="evenodd" d="M3.51929 2.68262C4.07158 2.68262 4.51929 3.13034 4.51929 3.68262V14.6826C4.51929 16.3608 4.52142 17.5188 4.63852 18.3898C4.75175 19.232 4.95573 19.6546 5.25152 19.9504C5.54732 20.2462 5.96988 20.4501 6.81209 20.5634C7.68307 20.6805 8.84111 20.6826 10.5193 20.6826H21.5193C22.0716 20.6826 22.5193 21.1303 22.5193 21.6826C22.5193 22.2349 22.0716 22.6826 21.5193 22.6826H10.4473C8.85862 22.6826 7.56545 22.6827 6.54559 22.5455C5.48161 22.4025 4.56664 22.0939 3.83731 21.3646C3.10798 20.6352 2.7994 19.7203 2.65635 18.6563C2.51923 17.6364 2.51926 16.3433 2.51929 14.7546V3.68262C2.51929 3.13034 2.96701 2.68262 3.51929 2.68262Z" fill="#FE0000"/>
</svg>
