<svg width="25" height="25" viewBox="0 0 25 25" fill="none" xmlns="http://www.w3.org/2000/svg">
<path opacity="0.4" d="M21.2023 17.518C20.546 13.5692 18.5028 10.6287 16.7266 8.90162C16.2097 8.39904 15.9513 8.14775 15.3804 7.91519C14.8095 7.68262 14.3188 7.68262 13.3374 7.68262H11.1818C10.2005 7.68262 9.70974 7.68262 9.13886 7.91519C8.56798 8.14775 8.30955 8.39904 7.79268 8.90162C6.01646 10.6287 3.97325 13.5692 3.31691 17.518C2.82857 20.456 5.53891 22.6826 8.56796 22.6826H15.9513C18.9803 22.6826 21.6907 20.456 21.2023 17.518Z" fill="#FE005B"/>
<path d="M14.8625 13.7339L12.6375 12.565C12.2435 12.3572 11.7565 12.3572 11.3625 12.565L9.13752 13.7339C8.74353 13.9417 8.5 14.3247 8.5 14.7391V17.0781C8.5 17.4925 8.74353 17.8755 9.13752 18.0833L11.3625 19.2533C11.7565 19.4611 12.2435 19.4611 12.6375 19.2533L14.8625 18.0833C15.2565 17.8755 15.5 17.4925 15.5 17.0781V14.7391C15.5 14.3247 15.2577 13.9417 14.8625 13.7339ZM13.7659 16.1413L13.1042 17.1849C13.0137 17.3288 12.8454 17.417 12.663 17.417H11.3383C11.1559 17.417 10.9876 17.3288 10.8971 17.1849L10.2341 16.1413C10.1435 15.9974 10.1435 15.821 10.2341 15.677L10.8958 14.6335C10.9863 14.4896 11.1546 14.4013 11.337 14.4013H12.6605C12.8428 14.4013 13.0111 14.4896 13.1016 14.6335L13.7634 15.677C13.8565 15.821 13.8565 15.9974 13.7659 16.1413Z" fill="#FE005B"/>
<path d="M21.2023 17.518C20.546 13.5692 18.5028 10.6287 16.7266 8.90162C16.2097 8.39904 15.9513 8.14775 15.3804 7.91519C14.8095 7.68262 14.3188 7.68262 13.3374 7.68262H11.1818C10.2005 7.68262 9.70974 7.68262 9.13886 7.91519C8.56798 8.14775 8.30955 8.39904 7.79268 8.90162C6.01646 10.6287 3.97325 13.5692 3.31691 17.518C2.82857 20.456 5.53891 22.6826 8.56796 22.6826H15.9513C18.9803 22.6826 21.6907 20.456 21.2023 17.518Z" stroke="#FE005B" stroke-width="1.5" stroke-linecap="round"/>
<path d="M7.51626 5.12549C7.30995 4.8252 7.01092 4.41761 7.62863 4.32467C8.26356 4.22913 8.92285 4.66376 9.56819 4.65483C10.152 4.64675 10.4494 4.38781 10.7685 4.0181C11.1045 3.62879 11.6248 2.68262 12.2596 2.68262C12.8944 2.68262 13.4147 3.62879 13.7507 4.0181C14.0698 4.38781 14.3672 4.64675 14.951 4.65483C15.5964 4.66376 16.2557 4.22913 16.8906 4.32467C17.5083 4.41761 17.2093 4.8252 17.003 5.12549L16.0701 6.48326C15.6711 7.06408 15.4716 7.35449 15.054 7.51856C14.6365 7.68262 14.0969 7.68262 13.0178 7.68262H11.5014C10.4223 7.68262 9.88274 7.68262 9.4652 7.51856C9.04766 7.35449 8.84814 7.06408 8.44909 6.48326L7.51626 5.12549Z" stroke="#FE005B" stroke-width="1.5"/>
</svg>
