<svg width="65" height="82" viewBox="0 0 65 82" fill="none" xmlns="http://www.w3.org/2000/svg">
<path d="M22.8789 35.9482L39.0506 40.2814L28.0896 81.1886L22.1993 70.828L11.918 76.8554L22.8789 35.9482Z" fill="#1C2942"/>
<path d="M26.1953 40.2814L42.3669 35.9482L53.328 76.8553L43.0466 70.828L37.1564 81.1886L26.1953 40.2814Z" fill="#1C2942"/>
<path d="M53.2207 55.0749C53.0171 55.2785 52.8247 55.4708 52.6324 55.6631C51.9197 56.1722 51.3314 56.8283 50.6413 57.3601C48.6163 58.9099 46.3536 60.0412 43.9893 60.9802C41.4098 61.9984 38.7287 62.6432 35.9797 62.9034C31.9861 63.2768 28.0493 62.9827 24.1915 61.8627C21.1144 60.9802 18.2636 59.6453 15.5937 57.8805C14.7225 57.3035 13.9985 56.5569 13.2179 55.8894C13.0709 55.7649 12.9804 55.5613 12.7654 55.5274C12.5957 55.3576 12.426 55.188 12.2563 55.0183C12.1885 54.8147 12.0414 54.6676 11.8264 54.5883C11.5776 54.3395 11.3174 54.0793 11.0572 53.819C11.0345 53.5929 11.125 53.3892 11.2834 53.2308C12.7654 51.7261 14.2361 50.2329 15.7634 48.7734C15.8312 48.7057 15.9104 48.6491 16.0123 48.6152C16.4082 48.468 16.6457 48.7282 16.9059 48.9432C18.1504 50.0293 19.4401 51.07 20.8768 51.9186C24.0444 53.7738 27.4384 54.8826 31.1264 55.1315C36.7942 55.5047 41.9303 54.034 46.512 50.7193C50.0756 48.1286 52.621 44.746 54.2614 40.6621C55.4607 37.6529 56.015 34.5191 55.8905 31.2949C55.7209 26.6906 54.318 22.4821 51.6482 18.7036C51.0033 17.7871 50.2906 16.9387 49.544 16.1016C49.3517 15.8867 49.2045 15.649 49.3063 15.3435C49.3856 15.106 49.5665 14.9476 49.7363 14.778C51.0485 13.443 52.3722 12.1194 53.7071 10.8071C53.9334 10.5808 54.1371 10.332 54.5217 10.3772C54.7705 10.6261 55.0307 10.8863 55.2909 11.1465C55.3928 11.3841 55.5625 11.5538 55.8 11.6556C55.9698 11.8253 56.1394 11.995 56.3091 12.1647C56.8409 12.8774 57.497 13.4883 58.0513 14.201C59.3184 15.8301 60.28 17.6514 61.1284 19.5182C62.6558 22.9007 63.5042 26.4642 63.7192 30.1637C63.934 33.795 63.5721 37.37 62.5313 40.877C61.6149 43.9428 60.3026 46.8164 58.4925 49.4409C57.9382 50.2443 57.2481 50.9343 56.6032 51.6697C56.5014 51.794 56.343 51.862 56.3205 52.0429C56.1507 52.2127 55.981 52.3824 55.8114 52.552C55.5398 52.6879 55.3475 52.8801 55.223 53.1404C54.7705 53.5929 54.318 54.0454 53.8655 54.4979C53.5487 54.611 53.3451 54.8147 53.2207 55.0749Z" fill="#CFCFCF"/>
<path d="M16.2158 48.6154C14.4962 50.335 12.7653 52.0659 11.0457 53.7855C10.8195 53.5591 10.5932 53.3329 10.367 53.1066C10.2086 52.8125 9.98232 52.5862 9.68817 52.4278C9.55242 52.2921 9.40536 52.145 9.25829 51.998C8.74919 51.2853 8.09304 50.6969 7.56133 50.0069C6.14721 48.1628 5.04986 46.1152 4.16744 43.9658C2.90038 40.8886 2.14241 37.7096 1.90484 34.3949C1.57676 29.8358 2.16504 25.4237 3.78279 21.1587C4.91409 18.1722 6.32822 15.3552 8.55687 12.9908C8.80576 12.7193 9.09991 12.4704 9.26959 12.1197C9.43929 11.95 9.60899 11.7803 9.77867 11.6106C10.0502 11.4748 10.2425 11.2825 10.367 11.0223C10.7969 10.5924 11.2154 10.1738 11.634 9.75526C11.8716 9.65345 12.0413 9.48375 12.1431 9.24618C12.3694 9.01992 12.5956 8.79366 12.8219 8.5674C13.512 8.05831 14.1002 7.44741 14.7677 6.9157C16.2836 5.6939 17.992 4.77755 19.7567 3.96302C22.9469 2.49233 26.2843 1.57597 29.7688 1.25921C32.4952 1.02164 35.199 1.10083 37.8914 1.55335C41.5682 2.15294 44.9961 3.40868 48.2315 5.21875C49.7362 6.06723 51.0824 7.11933 52.3382 8.28458C52.4173 8.36377 52.4853 8.4769 52.621 8.4769C52.8246 8.68053 53.0169 8.87285 53.2093 9.06518C53.3676 9.35931 53.5939 9.58557 53.888 9.74395C54.0916 9.94758 54.2839 10.1399 54.4764 10.3322C52.7567 12.0518 51.0258 13.7827 49.3063 15.5022C49.2724 15.5136 49.2497 15.5136 49.2158 15.5249C48.5935 15.3552 48.1976 14.8234 47.7451 14.4388C45.8672 12.8324 43.7968 11.5993 41.523 10.6603C38.4005 9.37063 35.1198 8.80498 31.7372 8.95205C27.212 9.15568 23.0941 10.5585 19.3834 13.1831C18.2408 13.9863 17.1661 14.88 16.1818 15.887C14.1342 18.0251 12.5164 20.4574 11.3851 23.1951C10.152 26.193 9.55242 29.3041 9.63161 32.551C9.74474 37.0083 11.0118 41.1262 13.4667 44.8481C14.1681 45.9115 15.0052 46.8845 15.8198 47.8574C15.9895 48.0497 16.2158 48.2081 16.2158 48.5022C16.227 48.5588 16.2158 48.5928 16.2158 48.6154Z" fill="#EFEFEF"/>
<path d="M49.2843 48.6491C58.346 39.6101 58.5157 24.7788 49.307 15.5248C48.8657 15.4908 48.6395 15.8303 48.3793 16.0904C45.4718 18.9978 42.5531 21.9166 39.6456 24.824C39.4306 25.039 39.1931 25.2313 39.0913 25.5141C39.0686 25.582 39.0574 25.6386 39.0347 25.7065C38.6613 25.7177 38.4577 26.0119 38.2315 26.2381C36.1499 28.2972 34.0909 30.3787 32.0094 32.4603C30.3012 34.1686 28.5928 35.8768 26.8958 37.5738C26.6697 37.8 26.3981 38.0036 26.4094 38.377C26.3415 38.377 26.2849 38.3883 26.2171 38.4109C26.0247 38.4675 25.8777 38.6145 25.7306 38.7616C22.6648 41.8049 19.6216 44.848 16.5785 47.9139C16.3748 48.1175 16.1937 48.3211 16.2278 48.6266C25.4704 57.824 40.2565 57.6544 49.2843 48.6491Z" fill="#919191"/>
<path d="M26.4202 38.4111C30.6512 34.1801 34.8709 29.9604 39.102 25.7293C39.1134 25.7179 39.1359 25.7179 39.1472 25.7066C42.5412 22.3128 45.9237 18.9076 49.3177 15.5136C48.3561 14.5747 47.3492 13.7036 46.2292 12.9456C39.9506 8.68057 33.1514 7.58322 25.8772 9.72137C20.775 11.226 16.7023 14.2352 13.6365 18.5908C10.2539 23.4214 8.89635 28.8063 9.51856 34.6553C10.1068 40.0854 12.3921 44.7011 16.2046 48.6041C19.5984 45.2102 23.0036 41.8277 26.3975 38.4337C26.4088 38.445 26.4202 38.4337 26.4202 38.4111Z" fill="#CFCFCF"/>
<path d="M31.431 30.0318L30.8247 29.2366L29.2343 30.4492L29.8406 31.2445L31.431 30.0318ZM30.9791 32.7377L31.5855 33.5329L33.1759 32.3203L32.5696 31.5251L30.9791 32.7377ZM32.8159 31.9491L32.0207 32.5555L33.2333 34.1459L34.0286 33.5396L32.8159 31.9491ZM35.926 32.0929L36.7212 31.4865L35.5086 29.8961L34.7134 30.5024L35.926 32.0929ZM35.264 29.5199L34.6577 28.7246L33.0673 29.9373L33.6736 30.7325L35.264 29.5199ZM34.5524 31.8851L35.1587 32.6803L36.7492 31.4677L36.1428 30.6725L34.5524 31.8851ZM33.699 29.1257L32.9038 29.7321L34.1164 31.3225L34.9117 30.7162L33.699 29.1257ZM36.1025 29.8082L36.8977 29.2019L35.6851 27.6114L34.8899 28.2178L36.1025 29.8082ZM34.3987 25.9407L33.7899 25.1473L32.2032 26.3648L32.812 27.1582L34.3987 25.9407ZM34.767 29.706L35.3757 30.4993L36.9624 29.2818L36.3537 28.4884L34.767 29.706ZM32.3232 27.4379L31.528 28.0443L32.1343 28.8395L32.9295 28.2332L32.3232 27.4379ZM34.1687 27.2883L34.9639 26.682L33.7513 25.0916L32.9561 25.6979L34.1687 27.2883ZM32.1305 25.5359L31.5242 24.7407L29.9337 25.9533L30.54 26.7486L32.1305 25.5359ZM25.442 29.2575L24.6468 29.8638L25.8594 31.4543L26.6547 30.848L25.442 29.2575ZM31.8493 26.8873L32.6445 26.281L31.4319 24.6905L30.6367 25.2968L31.8493 26.8873ZM26.849 29.4737L26.2427 28.6785L24.6523 29.8911L25.2586 30.6864L26.849 29.4737ZM27.2774 33.3341L27.8837 34.1293L29.4741 32.9167L28.8678 32.1214L27.2774 33.3341ZM26.6617 26.4581L25.8665 27.0645L27.0792 28.6549L27.8744 28.0486L26.6617 26.4581ZM29.7718 26.6019L30.567 25.9955L29.3544 24.4051L28.5592 25.0114L29.7718 26.6019ZM26.0377 32.9942L25.2425 33.6005L26.4551 35.191L27.2503 34.5846L26.0377 32.9942ZM28.4635 33.6597L29.2587 33.0534L28.046 31.4629L27.2508 32.0692L28.4635 33.6597ZM27.5026 33.2515L26.8963 32.4562L25.3058 33.6689L25.9121 34.4641L27.5026 33.2515ZM28.0469 37.264L28.6532 38.0592L30.2437 36.8465L29.6373 36.0513L28.0469 37.264ZM28.4197 35.6667L27.6245 36.273L28.8371 37.8635L29.6323 37.2572L28.4197 35.6667ZM30.8455 36.3322L31.6407 35.7259L30.428 34.1354L29.6328 34.7418L30.8455 36.3322ZM30.2824 36.0454L29.4872 36.6517L30.6999 38.2421L31.4951 37.6358L30.2824 36.0454ZM33.0504 36.45L33.8456 35.8437L32.6329 34.2532L31.8377 34.8595L33.0504 36.45ZM32.4296 36.3455L31.6344 36.9518L32.847 38.5422L33.6422 37.9359L32.4296 36.3455ZM35.2908 36.6789L36.0861 36.0726L34.8734 34.4822L34.0782 35.0885L35.2908 36.6789ZM34.4834 36.7167L33.6882 37.323L34.9009 38.9135L35.6961 38.3071L34.4834 36.7167ZM41.4506 33.9195L42.2458 33.3132L41.0332 31.7228L40.238 32.3291L41.4506 33.9195ZM37.9812 32.1432L37.1859 32.7495L38.3986 34.34L39.1938 33.7337L37.9812 32.1432ZM41.8067 31.7415L42.6019 31.1351L41.3892 29.5447L40.594 30.151L41.8067 31.7415ZM39.9957 27.7816L39.3894 26.9863L37.799 28.199L38.4053 28.9942L39.9957 27.7816ZM40.3029 31.483L40.9092 32.2782L42.4996 31.0655L41.8933 30.2703L40.3029 31.483ZM36.2025 20.3428L35.5962 19.5476L34.0057 20.7603L34.6121 21.5555L36.2025 20.3428ZM40.9452 29.8617L41.5515 30.6569L43.142 29.4443L42.5356 28.6491L40.9452 29.8617ZM39.3278 22.0081L38.7215 21.2129L37.1311 22.4255L37.7374 23.2208L39.3278 22.0081ZM40.228 26.4872L40.8343 27.2825L42.4247 26.0698L41.8184 25.2746L40.228 26.4872ZM34.0413 19.9811L33.435 19.1859L31.8445 20.3986L32.4508 21.1938L34.0413 19.9811ZM34.9177 24.4292L35.524 25.2244L37.1144 24.0117L36.5081 23.2165L34.9177 24.4292ZM31.8141 19.6303L31.2078 18.8351L29.6174 20.0477L30.2237 20.8429L31.8141 19.6303ZM31.7655 22.865L32.3718 23.6603L33.9622 22.4476L33.3559 21.6524L31.7655 22.865ZM21.1306 26.4938L20.3354 27.1001L21.548 28.6906L22.3433 28.0843L21.1306 26.4938ZM31.395 21.1827L32.1902 20.5764L30.9776 18.9859L30.1824 19.5923L31.395 21.1827ZM21.0765 24.6165L20.2813 25.2228L21.4939 26.8132L22.2892 26.2069L21.0765 24.6165ZM29.4746 20.7284L30.2698 20.122L29.0572 18.5316L28.2619 19.1379L29.4746 20.7284ZM22.636 26.9479L22.0297 26.1527L20.4392 27.3653L21.0456 28.1606L22.636 26.9479ZM21.8757 29.2494L22.4821 30.0446L24.0725 28.832L23.4662 28.0368L21.8757 29.2494ZM22.0396 28.6817L21.4333 27.8865L19.8428 29.0991L20.4491 29.8944L22.0396 28.6817ZM21.6588 31.4809L22.2652 32.2762L23.8556 31.0635L23.2493 30.2683L21.6588 31.4809ZM21.9872 30.9355L21.3808 30.1402L19.7904 31.3529L20.3967 32.1481L21.9872 30.9355ZM22.5552 34.9791L23.1615 35.7743L24.752 34.5616L24.1457 33.7664L22.5552 34.9791ZM21.5915 32.8588L20.9852 32.0635L19.3948 33.2762L20.0011 34.0714L21.5915 32.8588ZM27.4016 43.7776L28.0079 44.5728L29.5984 43.3601L28.992 42.5649L27.4016 43.7776ZM22.414 36.5077L21.8077 35.7124L20.2173 36.9251L20.8236 37.7203L22.414 36.5077ZM24.1206 42.0445L24.7269 42.8397L26.3174 41.6271L25.7111 40.8319L24.1206 42.0445ZM28.7414 40.0521L28.1351 39.2568L26.5447 40.4695L27.151 41.2647L28.7414 40.0521ZM30.3769 45.4956L30.9832 46.2908L32.5736 45.0782L31.9673 44.283L30.3769 45.4956ZM31.9486 41.9359L31.3422 41.1407L29.7518 42.3533L30.3581 43.1485L31.9486 41.9359ZM32.564 46.0417L33.1704 46.8369L34.7608 45.6243L34.1545 44.8291L32.564 46.0417ZM32.7292 44.6091L31.934 45.2154L33.1467 46.8058L33.9419 46.1995L32.7292 44.6091ZM36.7725 44.0413L37.5677 43.435L36.3551 41.8445L35.5598 42.4509L36.7725 44.0413ZM34.8719 44.9033L34.0767 45.5096L35.2893 47.1L36.0845 46.4937L34.8719 44.9033ZM46.7849 38.3352L47.5801 37.7288L46.3675 36.1384L45.5722 36.7447L46.7849 38.3352ZM44.2547 35.9198L43.4594 36.5261L44.6721 38.1166L45.4673 37.5103L44.2547 35.9198ZM47.147 36.2296L47.9422 35.6232L46.7296 34.0328L45.9344 34.6391L47.147 36.2296ZM45.8565 32.7307L45.0613 33.337L46.274 34.9274L47.0692 34.3211L45.8565 32.7307ZM48.9666 32.8744L49.7618 32.2681L48.5492 30.6776L47.754 31.284L48.9666 32.8744ZM29.8406 31.2445L30.9791 32.7377L32.5696 31.5251L31.431 30.0318L29.8406 31.2445ZM34.0286 33.5396L35.926 32.0929L34.7134 30.5024L32.8159 31.9491L34.0286 33.5396ZM33.6736 30.7325L34.5524 31.8851L36.1428 30.6725L35.264 29.5199L33.6736 30.7325ZM34.9117 30.7162L36.1025 29.8082L34.8899 28.2178L33.699 29.1257L34.9117 30.7162ZM32.812 27.1582L34.767 29.706L36.3537 28.4884L34.3987 25.9407L32.812 27.1582ZM32.9295 28.2332L34.1687 27.2883L32.9561 25.6979L31.7169 26.6427L32.9295 28.2332ZM30.54 26.7486L31.528 28.0443L33.1184 26.8316L32.1305 25.5359L30.54 26.7486ZM26.6547 30.848L31.8493 26.8873L30.6367 25.2968L25.442 29.2575L26.6547 30.848ZM25.2586 30.6864L27.2774 33.3341L28.8678 32.1214L26.849 29.4737L25.2586 30.6864ZM27.8744 28.0486L29.7718 26.6019L28.5592 25.0114L26.6617 26.4581L27.8744 28.0486ZM27.2503 34.5846L28.4635 33.6597L27.2508 32.0692L26.0377 32.9942L27.2503 34.5846ZM25.9121 34.4641L28.0469 37.264L29.6373 36.0513L27.5026 33.2515L25.9121 34.4641ZM29.6323 37.2572L30.8455 36.3322L29.6328 34.7418L28.4197 35.6667L29.6323 37.2572ZM31.4951 37.6358L33.0504 36.45L31.8377 34.8595L30.2824 36.0454L31.4951 37.6358ZM33.6422 37.9359L35.2908 36.6789L34.0782 35.0885L32.4296 36.3455L33.6422 37.9359ZM35.6961 38.3071L41.4506 33.9195L40.238 32.3291L34.4834 36.7167L35.6961 38.3071ZM39.1938 33.7337L41.8067 31.7415L40.594 30.151L37.9812 32.1432L39.1938 33.7337ZM38.4053 28.9942L40.3029 31.483L41.8933 30.2703L39.9957 27.7816L38.4053 28.9942ZM34.6121 21.5555L40.9452 29.8617L42.5356 28.6491L36.2025 20.3428L34.6121 21.5555ZM37.7374 23.2208L40.228 26.4872L41.8184 25.2746L39.3278 22.0081L37.7374 23.2208ZM32.4508 21.1938L34.9177 24.4292L36.5081 23.2165L34.0413 19.9811L32.4508 21.1938ZM30.2237 20.8429L31.7655 22.865L33.3559 21.6524L31.8141 19.6303L30.2237 20.8429ZM22.3433 28.0843L31.395 21.1827L30.1824 19.5923L21.1306 26.4938L22.3433 28.0843ZM22.2892 26.2069L29.4746 20.7284L28.2619 19.1379L21.0765 24.6165L22.2892 26.2069ZM21.0456 28.1606L21.8757 29.2494L23.4662 28.0368L22.636 26.9479L21.0456 28.1606ZM20.4491 29.8944L21.6588 31.4809L23.2493 30.2683L22.0396 28.6817L20.4491 29.8944ZM20.3967 32.1481L22.5552 34.9791L24.1457 33.7664L21.9872 30.9355L20.3967 32.1481ZM20.0011 34.0714L27.4016 43.7776L28.992 42.5649L21.5915 32.8588L20.0011 34.0714ZM20.8236 37.7203L24.1206 42.0445L25.7111 40.8319L22.414 36.5077L20.8236 37.7203ZM27.151 41.2647L30.3769 45.4956L31.9673 44.283L28.7414 40.0521L27.151 41.2647ZM30.3581 43.1485L32.564 46.0417L34.1545 44.8291L31.9486 41.9359L30.3581 43.1485ZM33.9419 46.1995L36.7725 44.0413L35.5598 42.4509L32.7292 44.6091L33.9419 46.1995ZM36.0845 46.4937L46.7849 38.3352L45.5722 36.7447L34.8719 44.9033L36.0845 46.4937ZM45.4673 37.5103L47.147 36.2296L45.9344 34.6391L44.2547 35.9198L45.4673 37.5103ZM47.0692 34.3211L48.9666 32.8744L47.754 31.284L45.8565 32.7307L47.0692 34.3211Z" fill="black" fill-opacity="0.07"/>
</svg>
