<svg width="65" height="82" viewBox="0 0 65 82" fill="none" xmlns="http://www.w3.org/2000/svg">
<path d="M22.6787 35.9482L38.8504 40.2814L27.8894 81.1886L21.9991 70.828L11.7178 76.8554L22.6787 35.9482Z" fill="#1C2942"/>
<path d="M25.9951 40.2814L42.1667 35.9482L53.1278 76.8553L42.8464 70.828L36.9562 81.1886L25.9951 40.2814Z" fill="#1C2942"/>
<path d="M53.0205 55.0749C52.8169 55.2785 52.6245 55.4708 52.4322 55.6631C51.7195 56.1722 51.1312 56.8283 50.4411 57.3601C48.4161 58.9099 46.1534 60.0412 43.7891 60.9802C41.2097 61.9984 38.5285 62.6432 35.7795 62.9034C31.7859 63.2768 27.8491 62.9827 23.9913 61.8627C20.9142 60.9802 18.0634 59.6453 15.3935 57.8805C14.5223 57.3035 13.7983 56.5569 13.0177 55.8894C12.8707 55.7649 12.7802 55.5613 12.5652 55.5274C12.3955 55.3576 12.2258 55.188 12.0561 55.0183C11.9883 54.8147 11.8412 54.6676 11.6262 54.5883C11.3774 54.3395 11.1172 54.0793 10.857 53.819C10.8343 53.5929 10.9248 53.3892 11.0832 53.2308C12.5652 51.7261 14.0359 50.2329 15.5632 48.7734C15.631 48.7057 15.7103 48.6491 15.8121 48.6152C16.208 48.468 16.4455 48.7282 16.7057 48.9432C17.9502 50.0293 19.2399 51.07 20.6766 51.9186C23.8442 53.7738 27.2382 54.8826 30.9262 55.1315C36.594 55.5047 41.7301 54.034 46.3118 50.7193C49.8754 48.1286 52.4208 44.746 54.0612 40.6621C55.2605 37.6529 55.8148 34.5191 55.6903 31.2949C55.5207 26.6906 54.1178 22.4821 51.448 18.7036C50.8031 17.7871 50.0904 16.9387 49.3438 16.1016C49.1515 15.8867 49.0043 15.649 49.1061 15.3435C49.1854 15.106 49.3663 14.9476 49.5361 14.778C50.8483 13.443 52.172 12.1194 53.5069 10.8071C53.7332 10.5808 53.9369 10.332 54.3215 10.3772C54.5703 10.6261 54.8305 10.8863 55.0908 11.1465C55.1926 11.3841 55.3623 11.5538 55.5998 11.6556C55.7696 11.8253 55.9392 11.995 56.1089 12.1647C56.6407 12.8774 57.2968 13.4883 57.8511 14.201C59.1182 15.8301 60.0798 17.6514 60.9282 19.5182C62.4556 22.9007 63.304 26.4642 63.519 30.1637C63.7338 33.795 63.3719 37.37 62.3311 40.877C61.4147 43.9428 60.1025 46.8164 58.2923 49.4409C57.738 50.2443 57.048 50.9343 56.403 51.6697C56.3012 51.794 56.1428 51.862 56.1203 52.0429C55.9505 52.2127 55.7808 52.3824 55.6112 52.552C55.3396 52.6879 55.1473 52.8801 55.0228 53.1404C54.5703 53.5929 54.1178 54.0454 53.6653 54.4979C53.3485 54.611 53.1449 54.8147 53.0205 55.0749Z" fill="#CFCFCF"/>
<path d="M16.0156 48.6154C14.296 50.335 12.5651 52.0659 10.8455 53.7855C10.6193 53.5591 10.393 53.3329 10.1668 53.1066C10.0084 52.8125 9.78213 52.5862 9.48798 52.4278C9.35223 52.2921 9.20516 52.145 9.05809 51.998C8.549 51.2853 7.89285 50.6969 7.36113 50.0069C5.94701 48.1628 4.84966 46.1152 3.96725 43.9658C2.70018 40.8886 1.94222 37.7096 1.70464 34.3949C1.37657 29.8358 1.96485 25.4237 3.5826 21.1587C4.7139 18.1722 6.12803 15.3552 8.35668 12.9908C8.60556 12.7193 8.89971 12.4704 9.0694 12.1197C9.2391 11.95 9.40879 11.7803 9.57848 11.6106C9.85 11.4748 10.0423 11.2825 10.1668 11.0223C10.5967 10.5924 11.0152 10.1738 11.4338 9.75526C11.6714 9.65345 11.8411 9.48375 11.9429 9.24618C12.1692 9.01992 12.3954 8.79366 12.6217 8.5674C13.3118 8.05831 13.9 7.44741 14.5675 6.9157C16.0834 5.6939 17.7918 4.77755 19.5565 3.96302C22.7467 2.49233 26.0841 1.57597 29.5686 1.25921C32.295 1.02164 34.9988 1.10083 37.6912 1.55335C41.368 2.15294 44.7959 3.40868 48.0313 5.21875C49.536 6.06723 50.8822 7.11933 52.138 8.28458C52.2171 8.36377 52.2851 8.4769 52.4208 8.4769C52.6244 8.68053 52.8167 8.87285 53.0091 9.06518C53.1674 9.35931 53.3937 9.58557 53.6878 9.74395C53.8914 9.94758 54.0837 10.1399 54.2762 10.3322C52.5565 12.0518 50.8256 13.7827 49.1061 15.5022C49.0722 15.5136 49.0495 15.5136 49.0156 15.5249C48.3933 15.3552 47.9974 14.8234 47.5449 14.4388C45.667 12.8324 43.5966 11.5993 41.3228 10.6603C38.2003 9.37063 34.9196 8.80498 31.537 8.95205C27.0118 9.15568 22.8939 10.5585 19.1832 13.1831C18.0406 13.9863 16.9659 14.88 15.9816 15.887C13.934 18.0251 12.3162 20.4574 11.1849 23.1951C9.95181 26.193 9.35223 29.3041 9.43141 32.551C9.54454 37.0083 10.8116 41.1262 13.2665 44.8481C13.9679 45.9115 14.805 46.8845 15.6196 47.8574C15.7893 48.0497 16.0156 48.2081 16.0156 48.5022C16.0269 48.5588 16.0156 48.5928 16.0156 48.6154Z" fill="#EFEFEF"/>
<path d="M49.0841 48.6491C58.1458 39.6101 58.3155 24.7788 49.1068 15.5248C48.6655 15.4908 48.4393 15.8303 48.1791 16.0904C45.2716 18.9978 42.3529 21.9166 39.4454 24.824C39.2304 25.039 38.9929 25.2313 38.8911 25.5141C38.8684 25.582 38.8572 25.6386 38.8345 25.7065C38.4611 25.7177 38.2575 26.0119 38.0313 26.2381C35.9498 28.2972 33.8907 30.3787 31.8092 32.4603C30.101 34.1686 28.3926 35.8768 26.6956 37.5738C26.4695 37.8 26.1979 38.0036 26.2092 38.377C26.1413 38.377 26.0847 38.3883 26.017 38.4109C25.8245 38.4675 25.6775 38.6145 25.5304 38.7616C22.4646 41.8049 19.4214 44.848 16.3783 47.9139C16.1746 48.1175 15.9935 48.3211 16.0276 48.6266C25.2702 57.824 40.0563 57.6544 49.0841 48.6491Z" fill="#919191"/>
<path d="M26.22 38.4111C30.451 34.1801 34.6707 29.9604 38.9018 25.7293C38.9132 25.7179 38.9357 25.7179 38.947 25.7066C42.341 22.3128 45.7235 18.9076 49.1175 15.5136C48.1559 14.5747 47.149 13.7036 46.029 12.9456C39.7504 8.68057 32.9512 7.58322 25.677 9.72137C20.5748 11.226 16.5021 14.2352 13.4363 18.5908C10.0537 23.4214 8.69616 28.8063 9.31836 34.6553C9.90664 40.0854 12.1919 44.7011 16.0044 48.6041C19.3983 45.2102 22.8034 41.8277 26.1973 38.4337C26.2086 38.445 26.22 38.4337 26.22 38.4111Z" fill="#CFCFCF"/>
<path d="M22.3242 19.5386H37.7221V24.6712H22.3242V19.5386ZM37.7221 29.8038V24.6712H42.8547V29.8038H37.7221ZM27.4568 29.8038H37.7221V34.9364H27.4568V29.8038ZM22.3242 45.2017V34.9364H27.4568V40.0691H42.8547V45.2017H22.3242Z" fill="black"/>
</svg>
