<svg width="65" height="82" viewBox="0 0 65 82" fill="none" xmlns="http://www.w3.org/2000/svg">
<path d="M22.2119 35.9482L38.3836 40.2814L27.4226 81.1886L21.5323 70.828L11.251 76.8554L22.2119 35.9482Z" fill="#1C2942"/>
<path d="M25.5283 40.2814L41.7 35.9482L52.661 76.8553L42.3796 70.828L36.4894 81.1886L25.5283 40.2814Z" fill="#1C2942"/>
<path d="M52.5527 55.0751C52.3491 55.2787 52.1568 55.471 51.9644 55.6633C51.2517 56.1724 50.6634 56.8287 49.9733 57.3603C47.9483 58.9102 45.6858 60.0414 43.3213 60.9804C40.742 61.9986 38.0607 62.6434 35.3117 62.9036C31.3183 63.277 27.3813 62.9829 23.5236 61.8629C20.4464 60.9804 17.5956 59.6455 14.9257 57.8807C14.0545 57.3037 13.3306 56.5571 12.55 55.8896C12.4029 55.7651 12.3124 55.5615 12.0974 55.5276C11.9277 55.3578 11.7581 55.1882 11.5884 55.0185C11.5205 54.8149 11.3734 54.6678 11.1585 54.5887C10.9096 54.3397 10.6494 54.0796 10.3892 53.8194C10.3666 53.5931 10.4571 53.3894 10.6154 53.231C12.0974 51.7265 13.5681 50.2331 15.0954 48.7738C15.1633 48.7059 15.2424 48.6493 15.3443 48.6154C15.7402 48.4683 15.9779 48.7286 16.2381 48.9434C17.4824 50.0295 18.7721 51.0703 20.2089 51.9188C23.3764 53.7742 26.7704 54.8828 30.4584 55.1317C36.1262 55.505 41.2623 54.0342 45.8442 50.7195C49.4078 48.1289 51.9532 44.7464 53.5934 40.6624C54.7927 37.6531 55.347 34.5193 55.2225 31.2952C55.0529 26.6908 53.65 22.4824 50.9802 18.7038C50.3353 17.7875 49.6226 16.9389 48.876 16.1019C48.6837 15.8869 48.5366 15.6493 48.6385 15.3439C48.7176 15.1062 48.8987 14.9478 49.0683 14.7782C50.3807 13.4433 51.7043 12.1197 53.0391 10.8073C53.2654 10.5811 53.4691 10.3322 53.8537 10.3774C54.1025 10.6263 54.3627 10.8865 54.623 11.1467C54.7248 11.3843 54.8945 11.554 55.132 11.6558C55.3018 11.8255 55.4715 11.9952 55.6411 12.1649C56.1729 12.8776 56.829 13.4885 57.3833 14.2012C58.6504 15.8303 59.612 17.6517 60.4605 19.5184C61.9878 22.9009 62.8362 26.4645 63.0512 30.1639C63.2662 33.7954 62.9041 37.3702 61.8633 40.8773C60.9469 43.943 59.6347 46.8166 57.8245 49.4413C57.2702 50.2445 56.5802 50.9345 55.9352 51.6699C55.8334 51.7943 55.6751 51.8622 55.6525 52.0431C55.4827 52.2129 55.3131 52.3826 55.1434 52.5522C54.8718 52.6881 54.6795 52.8804 54.5552 53.1406C54.1025 53.5931 53.65 54.0456 53.1975 54.4981C52.8807 54.6112 52.6771 54.8149 52.5527 55.0751Z" fill="#E0B23C"/>
<path d="M15.5488 48.6154C13.8292 50.3349 12.0983 52.0658 10.3787 53.7855C10.1525 53.5592 9.92623 53.333 9.69996 53.1066C9.54158 52.8125 9.31533 52.5862 9.02118 52.4278C8.88543 52.2921 8.73836 52.1451 8.5913 51.998C8.0822 51.2853 7.42605 50.6969 6.89433 50.0069C5.48022 48.1629 4.38287 46.1152 3.50045 43.9657C2.23339 40.8886 1.47542 37.7096 1.23785 34.3949C0.909769 29.8359 1.49805 25.4237 3.1158 21.1588C4.2471 18.1722 5.66123 15.3552 7.88988 12.9908C8.13877 12.7193 8.43291 12.4704 8.6026 12.1197C8.7723 11.95 8.942 11.7803 9.11168 11.6106C9.3832 11.4748 9.57552 11.2825 9.69996 11.0223C10.1299 10.5924 10.5484 10.1738 10.967 9.75527C11.2046 9.65346 11.3743 9.48376 11.4761 9.24619C11.7024 9.01992 11.9286 8.79366 12.1549 8.56741C12.845 8.05832 13.4332 7.44742 14.1007 6.91571C15.6166 5.69391 17.325 4.77754 19.0897 3.96301C22.28 2.49233 25.6174 1.57598 29.1018 1.25921C31.8282 1.02164 34.532 1.10083 37.2245 1.55334C40.9012 2.15294 44.3291 3.40868 47.5645 5.21876C49.0692 6.06723 50.4154 7.11934 51.6712 8.28457C51.7503 8.36377 51.8183 8.47691 51.954 8.47689C52.1576 8.68054 52.3499 8.87286 52.5423 9.06517C52.7006 9.35931 52.9269 9.58557 53.221 9.74396C53.4246 9.94759 53.6169 10.1399 53.8094 10.3322C52.0897 12.0518 50.3588 13.7827 48.6393 15.5023C48.6054 15.5136 48.5827 15.5136 48.5488 15.525C47.9265 15.3552 47.5306 14.8234 47.0781 14.4389C45.2002 12.8324 43.1298 11.5993 40.856 10.6603C37.7335 9.37062 34.4529 8.80497 31.0702 8.95204C26.545 9.15567 22.4271 10.5585 18.7164 13.1831C17.5738 13.9864 16.4991 14.88 15.5148 15.8868C13.4672 18.025 11.8494 20.4574 10.7181 23.1951C9.48501 26.193 8.88543 29.3041 8.96462 32.5509C9.07775 37.0083 10.3448 41.1262 12.7997 44.8482C13.5011 45.9116 14.3383 46.8845 15.1528 47.8574C15.3225 48.0497 15.5488 48.2081 15.5488 48.5022C15.5601 48.5588 15.5488 48.5928 15.5488 48.6154Z" fill="#F7D972"/>
<path d="M48.6173 48.6493C57.679 39.6101 57.8487 24.7788 48.64 15.5248C48.1987 15.4909 47.9725 15.8303 47.7123 16.0905C44.8048 18.9979 41.8861 21.9166 38.9786 24.824C38.7636 25.039 38.5261 25.2313 38.4243 25.5142C38.4016 25.5821 38.3904 25.6386 38.3677 25.7065C37.9943 25.7178 37.7907 26.0119 37.5645 26.2383C35.483 28.2971 33.4239 30.3787 31.3424 32.4604C29.6342 34.1686 27.9258 35.8768 26.2288 37.5738C26.0027 37.8001 25.7311 38.0037 25.7424 38.377C25.6745 38.377 25.6179 38.3883 25.5502 38.411C25.3577 38.4676 25.2107 38.6146 25.0636 38.7617C21.9978 41.8049 18.9546 44.848 15.9115 47.9139C15.7078 48.1175 15.5267 48.3211 15.5608 48.6266C24.8034 57.8241 39.5895 57.6544 48.6173 48.6493Z" fill="#B99129"/>
<path d="M25.7531 38.4111C29.9842 34.18 34.2039 29.9603 38.435 25.7292C38.4463 25.7179 38.469 25.7179 38.4802 25.7067C41.8742 22.3127 45.2568 18.9075 48.6507 15.5137C47.6891 14.5747 46.6823 13.7035 45.5623 12.9456C39.2835 8.68057 32.4844 7.58322 25.2102 9.72137C20.108 11.226 16.0353 14.2353 12.9695 18.5907C9.5869 23.4214 8.22935 28.8064 8.85157 34.6552C9.43984 40.0854 11.7251 44.7012 15.5376 48.6041C18.9314 45.2103 22.3366 41.8276 25.7306 38.4338C25.7418 38.4451 25.7531 38.4338 25.7531 38.4111Z" fill="#E0B23C"/>
<path d="M29.9705 45.533V25.0025H24.8379V19.8699H35.1031V45.533H29.9705Z" fill="black"/>
</svg>
