<svg width="66" height="82" viewBox="0 0 66 82" fill="none" xmlns="http://www.w3.org/2000/svg">
<path d="M23.1455 35.9482L39.3172 40.2814L28.3562 81.1886L22.4659 70.828L12.1846 76.8554L23.1455 35.9482Z" fill="#1C2942"/>
<path d="M26.4619 40.2814L42.6335 35.9482L53.5946 76.8553L43.3132 70.828L37.423 81.1886L26.4619 40.2814Z" fill="#1C2942"/>
<path d="M53.4873 55.0749C53.2837 55.2785 53.0913 55.4708 52.899 55.6631C52.1863 56.1722 51.598 56.8283 50.9079 57.3601C48.8829 58.9099 46.6202 60.0412 44.2559 60.9802C41.6765 61.9984 38.9953 62.6432 36.2463 62.9034C32.2527 63.2768 28.3159 62.9827 24.4581 61.8627C21.381 60.9802 18.5302 59.6453 15.8603 57.8805C14.9891 57.3035 14.2651 56.5569 13.4845 55.8894C13.3375 55.7649 13.247 55.5613 13.032 55.5274C12.8623 55.3576 12.6926 55.188 12.5229 55.0183C12.4551 54.8147 12.308 54.6676 12.093 54.5883C11.8442 54.3395 11.584 54.0793 11.3238 53.819C11.3011 53.5929 11.3916 53.3892 11.55 53.2308C13.032 51.7261 14.5027 50.2329 16.03 48.7734C16.0978 48.7057 16.177 48.6491 16.2789 48.6152C16.6748 48.468 16.9123 48.7282 17.1725 48.9432C18.417 50.0293 19.7067 51.07 21.1434 51.9186C24.311 53.7738 27.705 54.8826 31.393 55.1315C37.0608 55.5047 42.1969 54.034 46.7786 50.7193C50.3422 48.1286 52.8876 44.746 54.528 40.6621C55.7273 37.6529 56.2816 34.5191 56.1571 31.2949C55.9875 26.6906 54.5846 22.4821 51.9148 18.7036C51.2699 17.7871 50.5572 16.9387 49.8106 16.1016C49.6183 15.8867 49.4711 15.649 49.5729 15.3435C49.6522 15.106 49.8331 14.9476 50.0029 14.778C51.3151 13.443 52.6388 12.1194 53.9737 10.8071C54.2 10.5808 54.4037 10.332 54.7883 10.3772C55.0371 10.6261 55.2973 10.8863 55.5575 11.1465C55.6594 11.3841 55.8291 11.5538 56.0666 11.6556C56.2364 11.8253 56.406 11.995 56.5757 12.1647C57.1075 12.8774 57.7636 13.4883 58.3179 14.201C59.585 15.8301 60.5466 17.6514 61.395 19.5182C62.9224 22.9007 63.7708 26.4642 63.9858 30.1637C64.2006 33.795 63.8387 37.37 62.7979 40.877C61.8815 43.9428 60.5692 46.8164 58.7591 49.4409C58.2048 50.2443 57.5147 50.9343 56.8698 51.6697C56.768 51.794 56.6096 51.862 56.5871 52.0429C56.4173 52.2127 56.2476 52.3824 56.078 52.552C55.8064 52.6879 55.6141 52.8801 55.4896 53.1404C55.0371 53.5929 54.5846 54.0454 54.1321 54.4979C53.8153 54.611 53.6117 54.8147 53.4873 55.0749Z" fill="#CFCFCF"/>
<path d="M16.4824 48.6154C14.7628 50.335 13.0319 52.0659 11.3123 53.7855C11.0861 53.5591 10.8598 53.3329 10.6336 53.1066C10.4752 52.8125 10.2489 52.5862 9.95478 52.4278C9.81902 52.2921 9.67196 52.145 9.52489 51.998C9.01579 51.2853 8.35964 50.6969 7.82793 50.0069C6.41381 48.1628 5.31646 46.1152 4.43404 43.9658C3.16698 40.8886 2.40901 37.7096 2.17144 34.3949C1.84336 29.8358 2.43164 25.4237 4.0494 21.1587C5.18069 18.1722 6.59483 15.3552 8.82348 12.9908C9.07236 12.7193 9.36651 12.4704 9.53619 12.1197C9.70589 11.95 9.87559 11.7803 10.0453 11.6106C10.3168 11.4748 10.5091 11.2825 10.6336 11.0223C11.0635 10.5924 11.482 10.1738 11.9006 9.75526C12.1382 9.65345 12.3079 9.48375 12.4097 9.24618C12.636 9.01992 12.8622 8.79366 13.0885 8.5674C13.7786 8.05831 14.3668 7.44741 15.0343 6.9157C16.5502 5.6939 18.2586 4.77755 20.0233 3.96302C23.2135 2.49233 26.5509 1.57597 30.0354 1.25921C32.7618 1.02164 35.4656 1.10083 38.158 1.55335C41.8348 2.15294 45.2627 3.40868 48.4981 5.21875C50.0028 6.06723 51.349 7.11933 52.6048 8.28458C52.6839 8.36377 52.7519 8.4769 52.8876 8.4769C53.0912 8.68053 53.2835 8.87285 53.4759 9.06518C53.6342 9.35931 53.8605 9.58557 54.1546 9.74395C54.3582 9.94758 54.5505 10.1399 54.743 10.3322C53.0233 12.0518 51.2924 13.7827 49.5729 15.5022C49.539 15.5136 49.5163 15.5136 49.4824 15.5249C48.8601 15.3552 48.4642 14.8234 48.0117 14.4388C46.1338 12.8324 44.0634 11.5993 41.7896 10.6603C38.6671 9.37063 35.3864 8.80498 32.0038 8.95205C27.4786 9.15568 23.3607 10.5585 19.65 13.1831C18.5074 13.9863 17.4327 14.88 16.4484 15.887C14.4008 18.0251 12.783 20.4574 11.6517 23.1951C10.4186 26.193 9.81902 29.3041 9.89821 32.551C10.0113 37.0083 11.2784 41.1262 13.7333 44.8481C14.4347 45.9115 15.2718 46.8845 16.0864 47.8574C16.2561 48.0497 16.4824 48.2081 16.4824 48.5022C16.4936 48.5588 16.4824 48.5928 16.4824 48.6154Z" fill="#EFEFEF"/>
<path d="M49.5509 48.6491C58.6126 39.6101 58.7823 24.7788 49.5736 15.5248C49.1323 15.4908 48.9061 15.8303 48.6459 16.0904C45.7384 18.9978 42.8197 21.9166 39.9122 24.824C39.6972 25.039 39.4597 25.2313 39.3579 25.5141C39.3352 25.582 39.324 25.6386 39.3013 25.7065C38.9279 25.7177 38.7243 26.0119 38.4981 26.2381C36.4165 28.2972 34.3575 30.3787 32.276 32.4603C30.5678 34.1686 28.8594 35.8768 27.1624 37.5738C26.9363 37.8 26.6647 38.0036 26.676 38.377C26.6081 38.377 26.5515 38.3883 26.4837 38.4109C26.2913 38.4675 26.1443 38.6145 25.9972 38.7616C22.9314 41.8049 19.8882 44.848 16.8451 47.9139C16.6414 48.1175 16.4603 48.3211 16.4944 48.6266C25.737 57.824 40.5231 57.6544 49.5509 48.6491Z" fill="#919191"/>
<path d="M26.6868 38.4111C30.9178 34.1801 35.1375 29.9604 39.3686 25.7293C39.38 25.7179 39.4025 25.7179 39.4138 25.7066C42.8078 22.3128 46.1903 18.9076 49.5843 15.5136C48.6227 14.5747 47.6158 13.7036 46.4958 12.9456C40.2172 8.68057 33.418 7.58322 26.1438 9.72137C21.0416 11.226 16.9689 14.2352 13.9031 18.5908C10.5205 23.4214 9.16295 28.8063 9.78516 34.6553C10.3734 40.0854 12.6587 44.7011 16.4712 48.6041C19.865 45.2102 23.2702 41.8277 26.6641 38.4337C26.6754 38.445 26.6868 38.4337 26.6868 38.4111Z" fill="#CFCFCF"/>
<path d="M22.791 20.2009H38.1889V25.3335H22.791V20.2009ZM38.1889 30.4662V25.3335H43.3215V30.4662H38.1889ZM27.9236 30.4662H38.1889V35.5988H27.9236V30.4662ZM43.3215 40.7314H38.1889V35.5988H43.3215V40.7314ZM22.791 40.7314H38.1889V45.864H22.791V40.7314Z" fill="black"/>
</svg>
