<svg width="11" height="11" viewBox="0 0 11 11" fill="none" xmlns="http://www.w3.org/2000/svg">
<g clip-path="url(#clip0_403_418)">
<path d="M4.58329 1.52184C3.09395 1.29401 1.6837 1.30902 1.26715 1.72552C0.271687 2.7211 1.5697 9.39308 2.99515 9.2543C3.77719 9.17533 4.32307 7.9194 4.96564 7.52712C5.21877 7.37257 5.44317 7.52955 5.60171 7.73593L7.13575 9.73262C7.40301 10.0805 7.59124 10.1841 7.99426 9.97773C8.61383 9.66052 9.20261 9.07092 9.51936 8.45249C9.7257 8.04962 9.62216 7.86133 9.27434 7.59413L8.24996 6.80712" stroke="white" stroke-width="0.6875" stroke-linecap="round" stroke-linejoin="round"/>
<path opacity="0.4" d="M7.19501 2.44496C7.19501 2.13342 7.45154 1.88086 7.76793 1.88086C8.08436 1.88086 8.34084 2.13342 8.34084 2.44496C8.34084 2.55726 8.30752 2.66189 8.25009 2.7498C8.10443 2.9727 7.85762 3.1868 7.78722 3.43758M7.79167 4.35425H7.79579M10.0833 3.20841C10.0833 4.47407 9.05731 5.50008 7.79167 5.50008C6.52603 5.50008 5.5 4.47407 5.5 3.20841C5.5 1.94276 6.52603 0.916748 7.79167 0.916748C9.05731 0.916748 10.0833 1.94276 10.0833 3.20841Z" stroke="white" stroke-width="0.6875" stroke-linecap="round" stroke-linejoin="round"/>
</g>
<defs>
<clipPath id="clip0_403_418">
<rect width="11" height="11" fill="white"/>
</clipPath>
</defs>
</svg>
