<svg width="25" height="25" viewBox="0 0 25 25" fill="none" xmlns="http://www.w3.org/2000/svg">
<path d="M19.0077 6.93262C19.452 6.93261 19.8254 6.9326 20.1299 6.95468C20.4459 6.97759 20.7528 7.02745 21.0452 7.16251C21.3764 7.31547 21.6723 7.54496 21.8879 7.84372C22.0916 8.12601 22.1677 8.43012 22.2008 8.72223C22.2308 8.98668 22.2307 9.30378 22.2307 9.64664V9.7186C22.2307 10.0615 22.2308 10.3786 22.2008 10.643C22.1677 10.9351 22.0916 11.2392 21.8879 11.5215C21.6723 11.8203 21.3764 12.0497 21.0452 12.2027C20.7528 12.3378 20.4459 12.3876 20.1299 12.4105C19.8254 12.4326 19.452 12.4326 19.0076 12.4326H5.95373C5.50935 12.4326 5.13595 12.4326 4.83147 12.4105C4.51544 12.3876 4.20858 12.3378 3.91617 12.2027C3.58499 12.0497 3.28906 11.8203 3.07345 11.5215C2.86972 11.2392 2.79364 10.9351 2.76054 10.643C2.73058 10.3786 2.73062 10.0615 2.73065 9.71859V9.64665C2.73062 9.30378 2.73058 8.98668 2.76054 8.72223C2.79364 8.43012 2.86972 8.12601 3.07345 7.84372C3.28906 7.54496 3.58499 7.31547 3.91617 7.16251C4.20858 7.02745 4.51544 6.97759 4.83147 6.95468C5.13594 6.9326 5.50934 6.93261 5.95371 6.93262H19.0077Z" fill="#09F477"/>
<g opacity="0.5">
<path d="M4.26743 13.6008C4.00406 13.5564 3.87237 13.5342 3.80151 13.5941C3.73065 13.654 3.73065 13.7769 3.73065 14.0226V15.7369C3.73063 17.3395 3.73062 18.6185 3.86548 19.6216C4.0048 20.6578 4.30031 21.5113 4.97545 22.1864C5.65059 22.8615 6.504 23.157 7.54026 23.2964C8.54335 23.4312 9.82231 23.4312 11.425 23.4312C11.4557 23.4312 11.4807 23.4062 11.4807 23.3755V14.0812C11.4807 13.8926 11.4807 13.7984 11.4221 13.7398C11.3635 13.6812 11.2693 13.6812 11.0807 13.6812H5.91976C5.5031 13.6812 5.0912 13.6813 4.74106 13.6559C4.59569 13.6453 4.43623 13.6292 4.26743 13.6008Z" fill="#09F477"/>
<path d="M13.8807 13.6812C13.6921 13.6812 13.5979 13.6812 13.5393 13.7398C13.4807 13.7984 13.4807 13.8926 13.4807 14.0812V23.3755C13.4807 23.4062 13.5057 23.4312 13.5364 23.4312C15.139 23.4312 16.418 23.4312 17.4211 23.2964C18.4574 23.157 19.3108 22.8615 19.9859 22.1864C20.661 21.5113 20.9565 20.6578 21.0959 19.6216C21.2307 18.6185 21.2307 17.3395 21.2307 15.7369V14.0225C21.2307 13.7769 21.2307 13.654 21.1598 13.5941C21.089 13.5342 20.9573 13.5564 20.6939 13.6008C20.5251 13.6292 20.3656 13.6453 20.2203 13.6559C19.8701 13.6813 19.4583 13.6812 19.0416 13.6812H13.8807Z" fill="#09F477"/>
</g>
<path fill-rule="evenodd" clip-rule="evenodd" d="M8.26636 1.93262C6.72786 1.93262 5.48065 3.17983 5.48065 4.71833C5.48065 7.04582 7.36745 8.93262 9.69494 8.93262H12.4807H15.2664C17.5939 8.93262 19.4807 7.04582 19.4807 4.71833C19.4807 3.17983 18.2335 1.93262 16.695 1.93262H16.3378C14.7659 1.93262 13.3684 2.67932 12.4807 3.83736C11.593 2.67932 10.1954 1.93262 8.62351 1.93262H8.26636ZM11.4807 6.78976C11.4807 5.21181 10.2015 3.93262 8.62351 3.93262H8.26636C7.83243 3.93262 7.48065 4.2844 7.48065 4.71833C7.48065 5.94125 8.47202 6.93262 9.69494 6.93262H11.4807V6.78976ZM13.4807 6.93262H15.2664C16.4893 6.93262 17.4807 5.94125 17.4807 4.71833C17.4807 4.2844 17.1289 3.93262 16.695 3.93262H16.3378C14.7599 3.93262 13.4807 5.21181 13.4807 6.78976V6.93262Z" fill="#09F477"/>
</svg>
