<svg width="14" height="14" viewBox="0 0 14 14" fill="none" xmlns="http://www.w3.org/2000/svg">
<g clip-path="url(#clip0_340_2787)">
<path opacity="0.4" fill-rule="evenodd" clip-rule="evenodd" d="M2.79153 2.50001L2.82512 2.50002H3.37506C3.67421 2.50002 3.91672 2.74252 3.91672 3.04168C3.91672 3.34082 3.67421 3.58333 3.37506 3.58333H2.82512C2.54251 3.58333 2.39419 3.58497 2.29349 3.60088C2.29592 3.62969 2.30116 3.66914 2.31096 3.72418C2.32449 3.80008 2.34337 3.8881 2.36817 4.00325C2.53324 4.76959 2.88894 5.43094 3.35741 5.91489C3.56547 6.12982 3.5599 6.47275 3.34495 6.6808C3.13001 6.8889 2.78709 6.88332 2.57903 6.66834C1.96048 6.02934 1.51394 5.18213 1.30914 4.23135L1.30212 4.19882C1.25982 4.00296 1.21381 3.78992 1.2089 3.6006C1.20268 3.36137 1.25834 3.11937 1.44017 2.89829C1.63314 2.66367 1.88097 2.57042 2.11636 2.53213C2.31471 2.49987 2.55376 2.49994 2.79153 2.50001ZM7.16668 6.29161C7.46584 6.29161 7.70834 6.53412 7.70834 6.83327V10.0832C7.70834 10.3824 7.46584 10.6249 7.16668 10.6249C6.86753 10.6249 6.62502 10.3824 6.62502 10.0832V6.83327C6.62502 6.53412 6.86753 6.29161 7.16668 6.29161ZM11.5082 3.58333C11.7908 3.58333 11.9392 3.58497 12.0399 3.60088C12.0374 3.62969 12.0322 3.66914 12.0224 3.72418C12.0089 3.80008 11.99 3.8881 11.9652 4.00325C11.8001 4.76959 11.4444 5.43094 10.976 5.91489C10.7679 6.12982 10.7735 6.47275 10.9884 6.6808C11.2033 6.8889 11.5463 6.88332 11.7543 6.66834C12.3729 6.02934 12.8194 5.18213 13.0242 4.23135L13.0312 4.19883C13.0735 4.00297 13.1196 3.78992 13.1244 3.6006C13.1307 3.36137 13.075 3.11937 12.8932 2.89829C12.7002 2.66367 12.4524 2.57042 12.217 2.53213C12.0186 2.49987 11.7796 2.49994 11.5418 2.50001L11.5082 2.50002H10.9583C10.6591 2.50002 10.4166 2.74252 10.4166 3.04168C10.4166 3.34082 10.6591 3.58333 10.9583 3.58333H11.5082Z" fill="#F4E000"/>
<path d="M7.1662 9.677C6.08733 9.677 5.16795 10.3293 4.70048 11.2573C4.37672 11.9 4.83018 12.6561 5.51889 12.6561H8.8135C9.50222 12.6561 9.95569 11.9 9.63189 11.2573C9.16444 10.3293 8.24503 9.677 7.1662 9.677Z" fill="#F4E000"/>
<path d="M5.2728 1.01056C4.55206 1.00977 3.99077 1.00915 3.50593 1.45248C3.27745 1.6614 3.13632 1.87449 3.06039 2.1351C2.99478 2.3603 2.98432 2.60712 2.97394 2.8522L2.97266 2.8822C2.9701 2.94203 2.96881 3.00215 2.96881 3.06255C2.96881 5.37163 4.85036 7.23969 7.16667 7.23969C9.48296 7.23969 11.3645 5.37163 11.3645 3.06255C11.3645 3.00215 11.3632 2.94203 11.3607 2.8822L11.3594 2.85221C11.349 2.60712 11.3386 2.3603 11.2729 2.1351C11.197 1.87449 11.0559 1.6614 10.8274 1.45248C10.3426 1.00915 9.78126 1.00977 9.06052 1.01056H5.2728Z" fill="#F4E000"/>
</g>
<defs>
<clipPath id="clip0_340_2787">
<rect width="12.9998" height="12.9998" fill="white" transform="translate(0.666809 0.333252)"/>
</clipPath>
</defs>
</svg>
