<svg width="17" height="27" viewBox="0 0 17 27" fill="none" xmlns="http://www.w3.org/2000/svg">
<path d="M10.3001 14.3997H11.6661V13.7032H10.3001V14.3997Z" fill="#795548"/>
<path d="M6.12176 14.3997H4.75575V13.7032H6.12176V14.3997Z" fill="#795548"/>
<path d="M6.12176 15.0962H7.28688H7.96988H8.65289H10.3001V14.3997H6.12176V15.0962Z" fill="#795548"/>
<path d="M8.65289 15.0962H8.27121V26.6858H9.25554V15.0962H8.65289Z" fill="#FF999A"/>
<path d="M7.96988 15.0962H7.28688V26.6858H8.27121V15.0962H7.96988Z" fill="#FFCC9A"/>
<path fill-rule="evenodd" clip-rule="evenodd" d="M10.3001 1.01076V0.314226H6.12175V1.01076L4.75575 1.01076V1.7073H3.38974V2.40383H2.66656V3.02297H1.94338V4.33865H1.26037V5.69302H0.537192V9.71743H1.26037V11.0718H1.94338V12.3875H2.66656V13.0066H3.38974V13.7032H4.07236H4.75575V14.3997H6.12176V15.0962H7.28688V26.6858H9.25554V15.0962H10.3001V14.3997H11.6661V13.7032H12.3917H13.0322L13.0321 13.0926L13.0322 13.0066H13.7553V12.3875H13.9561H14.4785V11.0718H15.1615V9.71743H15.8847V5.69302H15.1615V4.33865H14.4785V3.02297H13.7553V2.40383H13.0322V1.7073H11.6661V1.01076L10.3001 1.01076ZM10.6264 0.696534H11.9924V1.39307H13.3584V2.0896H14.0816V2.70874H14.8048V4.02442H15.4878V5.37879H16.2109V10.0317H15.4878V11.386H14.8048V12.7017H14.0816V13.3208H13.3584V14.0174H11.9924V14.7139H10.6264V15.4104H9.58178V27H6.96063V15.4104H5.7955V14.7139H4.42949V14.0174H3.06348V13.3208H2.3403V12.7017H1.61712V11.386H0.934118V10.0317H0.210938V5.37879H0.934118V4.02442H1.61712V2.70874H2.3403V2.0896H3.06348V1.39307H4.42949V0.696534H5.7955V0H10.6264V0.696534Z" fill="white"/>
<path fill-rule="evenodd" clip-rule="evenodd" d="M5.35555 2.94552H10.2999V3.60588H10.8624V3.61436H10.9858V4.31959H11.6861V5.01125H12.3599V6.4046H13.023V9.0338H12.3599V10.3835H11.7062V10.8237H10.9855V11.48H6.84967V10.8132H6.21686V10.1464H5.53133V9.54637H4.8498V7.98231H4.84579V7.13099H5.64557V5.69937H5.65105V5.68854H6.84967V5.04512H8.8058V5.68854H9.47044V5.73003H9.48974V6.43526H10.19V6.89101L10.193 7.81006H10.1945V8.29333L10.1958 8.70588L9.52403 8.70787V9.40226H8.64014V9.40141H7.55278V8.75799H7.13091V7.09392H8.0148V8.55009H8.63765V7.81006H9.30906L9.30739 7.28658H8.60585V6.53986H6.52946V7.9918H5.73368V8.67594H6.53826V9.29511H7.29411V9.96188H8.03238V10.6286H9.34572V9.9724H10.8047V8.56703H11.476V6.93186H10.8022V5.56628H10.1019V4.4572H5.7121V5.16835H5.02656V5.8795H4.39376V7.31875H3.72833V9.83695H4.32345V11.327H4.95625V12.8848H6.55584V13.5483H10.5586V12.9186H12V12.2413H13.9561V12.3875V13.0926H13.0321H12.3917V13.7032V13.7699H11.6886V14.3996H4.7579V13.753H4.07236V13.7032V12.9911H3.43956V11.6189H2.84444V10.1614H2.14416V6.95651H2.84444V5.48474H3.50987V4.92659H4.14268V4.16464H4.82821V3.7244H4.86337V3.60588H5.35555V2.94552Z" fill="#FAB69E"/>
<path d="M11.6661 1.01076L10.3001 1.01076V0.314226H6.12175V1.01076L4.75575 1.01076V1.7073H3.38974V2.40383H2.66656V3.02297H1.94338V4.33865H1.26037V5.69302H0.537192V9.71743H1.26037V11.0718H1.94338V12.3875H2.66656V13.0066H3.38974V13.7032H4.07236V12.9911H3.43956V11.6189H2.84444V10.1614H2.14416V6.95651H2.84444V5.48474H3.50987V4.92659H4.14268V4.16464H4.82821V3.7244H4.86337V3.60588H5.35555V2.94552H10.2999V3.60588H10.8624V3.61436H10.9858V4.31959H11.6861V5.01125H12.3599V6.4046H13.023V9.0338H12.3599V10.3835H11.7062V10.8237H10.9855V11.48H6.84967V10.8132H6.21686V10.1464H5.53133V9.54637H4.8498V7.98231H4.84579V7.13099H5.64557V5.69937H5.65105V5.68854H6.84967V5.04512H8.8058V5.68854H9.47044V5.73003H9.48974V6.43526H10.19V6.89101L10.193 7.81006H10.1945V8.29333L10.1958 8.70588L9.52403 8.70787V9.40226H8.64014V9.40141H7.55278V8.75799H7.13091V7.09392H8.0148V8.55009H8.63765V7.81006H9.30906L9.30739 7.28658H8.60585V6.53986H6.52946V7.9918H5.73368V8.67594H6.53826V9.29511H7.29411V9.96188H8.03238V10.6286H9.34572V9.9724H10.8047V8.56703H11.476V6.93186H10.8022V5.56628H10.1019V4.4572H5.7121V5.16835H5.02656V5.8795H4.39376V7.31875H3.72833V9.83695H4.32345V11.327H4.95625V12.8848H6.55584V13.5483H10.5586V12.9186H12V12.2413H13.9561V12.3875H14.4785V11.0718H15.1615V9.71743H15.8847V5.69302H15.1615V4.33865H14.4785V3.02297H13.7553V2.40383H13.0322V1.7073H11.6661V1.01076Z" fill="#795548"/>
<path d="M12.3917 13.7032H13.0322L13.0321 13.0926H12.3917V13.7032Z" fill="#795548"/>
</svg>
