<svg width="16" height="27" viewBox="0 0 16 27" fill="none" xmlns="http://www.w3.org/2000/svg">
<path d="M10.1959 14.3997H11.4766V13.7032H10.1959V14.3997Z" fill="#2196F3"/>
<path d="M6.2787 14.3997H4.99806V13.7032H6.2787V14.3997Z" fill="#2196F3"/>
<path d="M6.2787 15.0962H7.371H8.01132H8.65163H10.1959V14.3997H6.2787V15.0962Z" fill="#2196F3"/>
<path d="M8.65163 15.0962H8.29381V26.6858H9.21662V15.0962H8.65163Z" fill="#FF999A"/>
<path d="M8.01132 15.0962H7.371V26.6858H8.29381V15.0962H8.01132Z" fill="#FFCC9A"/>
<path fill-rule="evenodd" clip-rule="evenodd" d="M10.1959 1.01076V0.314226H6.27869V1.01076L4.99806 1.01076V1.7073H3.71743V2.40383H3.03945V3.02297H2.36147V4.33865H1.72115V5.69302H1.04317V9.71743H1.72115V11.0718H2.36147V12.3875H3.03945V13.0066H3.71743V13.7032H4.35739H4.99806V14.3997H6.2787V15.0962H7.371V26.6858H9.21662V15.0962H10.1959V14.3997H11.4766V13.7032H12.1568H12.7572L12.7572 13.0926L12.7572 13.0066H13.4352V12.3875H13.6234H14.1132V11.0718H14.7535V9.71743H15.4315V5.69302H14.7535V4.33865H14.1132V3.02297H13.4352V2.40383H12.7572V1.7073H11.4766V1.01076L10.1959 1.01076ZM10.5018 0.696534H11.7824V1.39307H13.063V2.0896H13.741V2.70874H14.419V4.02442H15.0593V5.37879H15.7373V10.0317H15.0593V11.386H14.419V12.7017H13.741V13.3208H13.063V14.0174H11.7824V14.7139H10.5018V15.4104H9.52247V27H7.06514V15.4104H5.97283V14.7139H4.6922V14.0174H3.41157V13.3208H2.73359V12.7017H2.0556V11.386H1.41529V10.0317H0.737305V5.37879H1.41529V4.02442H2.0556V2.70874H2.73359V2.0896H3.41157V1.39307H4.6922V0.696534H5.97283V0H10.5018V0.696534Z" fill="white"/>
<path fill-rule="evenodd" clip-rule="evenodd" d="M5.56038 2.94552H10.1957V3.60588H10.7231V3.61436H10.8387V4.31959H11.4952V5.01125H12.1269V6.4046H12.7486V9.0338H12.1269V10.3835H11.5141V10.8237H10.8384V11.48H6.96111V10.8132H6.36786V10.1464H5.72517V9.54637H5.08623V7.98231H5.08248V7.13099H5.83227V5.69937H5.83741V5.68854H6.96111V5.04512H8.79499V5.68854H9.41808V5.73003H9.43618V6.43526H10.0927V6.89101L10.0954 7.81006H10.0969V8.29333L10.0981 8.70588L9.46833 8.70787V9.40226H8.63969V9.40141H7.62028V8.75799H7.22478V7.09392H8.05343V8.55009H8.63734V7.81006H9.26679L9.26523 7.28658H8.60754V6.53986H6.66092V7.9918H5.91488V8.67594H6.66917V9.29511H7.37778V9.96188H8.0699V10.6286H9.30117V9.9724H10.6689V8.56703H11.2983V6.93186H10.6666V5.56628H10.0101V4.4572H5.89464V5.16835H5.25195V5.8795H4.6587V7.31875H4.03486V9.83695H4.59278V11.327H5.18604V12.8848H6.68565V13.5483H10.4382V12.9186H11.7895V12.2413H13.6234V12.3875V13.0926H12.7572H12.1568V13.7032V13.7699H11.4976V14.3996H5.00008V13.753H4.35739V13.7032V12.9911H3.76414V11.6189H3.20622V10.1614H2.5497V6.95651H3.20622V5.48474H3.83006V4.92659H4.42331V4.16464H5.066V3.7244H5.09896V3.60588H5.56038V2.94552Z" fill="#DFF1FF"/>
<path d="M11.4766 1.01076L10.1959 1.01076V0.314226H6.27869V1.01076L4.99806 1.01076V1.7073H3.71743V2.40383H3.03945V3.02297H2.36147V4.33865H1.72115V5.69302H1.04317V9.71743H1.72115V11.0718H2.36147V12.3875H3.03945V13.0066H3.71743V13.7032H4.35739V12.9911H3.76414V11.6189H3.20622V10.1614H2.5497V6.95651H3.20622V5.48474H3.83006V4.92659H4.42331V4.16464H5.066V3.7244H5.09896V3.60588H5.56038V2.94552H10.1957V3.60588H10.7231V3.61436H10.8387V4.31959H11.4952V5.01125H12.1269V6.4046H12.7486V9.0338H12.1269V10.3835H11.5141V10.8237H10.8384V11.48H6.96111V10.8132H6.36786V10.1464H5.72517V9.54637H5.08623V7.98231H5.08248V7.13099H5.83227V5.69937H5.83741V5.68854H6.96111V5.04512H8.79499V5.68854H9.41808V5.73003H9.43618V6.43526H10.0927V6.89101L10.0954 7.81006H10.0969V8.29333L10.0981 8.70588L9.46833 8.70787V9.40226H8.63969V9.40141H7.62028V8.75799H7.22478V7.09392H8.05343V8.55009H8.63734V7.81006H9.26679L9.26523 7.28658H8.60754V6.53986H6.66092V7.9918H5.91488V8.67594H6.66917V9.29511H7.37778V9.96188H8.0699V10.6286H9.30117V9.9724H10.6689V8.56703H11.2983V6.93186H10.6666V5.56628H10.0101V4.4572H5.89464V5.16835H5.25195V5.8795H4.6587V7.31875H4.03486V9.83695H4.59278V11.327H5.18604V12.8848H6.68565V13.5483H10.4382V12.9186H11.7895V12.2413H13.6234V12.3875H14.1132V11.0718H14.7535V9.71743H15.4315V5.69302H14.7535V4.33865H14.1132V3.02297H13.4352V2.40383H12.7572V1.7073H11.4766V1.01076Z" fill="#2196F3"/>
<path d="M12.1568 13.7032H12.7572L12.7572 13.0926H12.1568V13.7032Z" fill="#2196F3"/>
</svg>
