<svg width="17" height="27" viewBox="0 0 17 27" fill="none" xmlns="http://www.w3.org/2000/svg">
<path d="M10.4574 14.3997H11.8234V13.7032H10.4574V14.3997Z" fill="#9C27B0"/>
<path d="M6.27898 14.3997H4.91297V13.7032H6.27898V14.3997Z" fill="#9C27B0"/>
<path d="M6.27898 15.0962H7.44411H8.12711H8.81011H10.4574V14.3997H6.27898V15.0962Z" fill="#9C27B0"/>
<path d="M8.81011 15.0962H8.42844V26.6858H9.41276V15.0962H8.81011Z" fill="#FF999A"/>
<path d="M8.12711 15.0962H7.44411V26.6858H8.42844V15.0962H8.12711Z" fill="#FFCC9A"/>
<path fill-rule="evenodd" clip-rule="evenodd" d="M10.4574 1.01076V0.314226H6.27898V1.01076L4.91297 1.01076V1.7073H3.54697V2.40383H2.82378V3.02297H2.1006V4.33865H1.4176V5.69302H0.694419V9.71743H1.4176V11.0718H2.1006V12.3875H2.82378V13.0066H3.54697V13.7032H4.22959H4.91297V14.3997H6.27898V15.0962H7.44411V26.6858H9.41276V15.0962H10.4574V14.3997H11.8234V13.7032H12.5489H13.1894L13.1894 13.0926L13.1894 13.0066H13.9126V12.3875H14.1133H14.6357V11.0718H15.3187V9.71743H16.0419V5.69302H15.3187V4.33865H14.6357V3.02297H13.9126V2.40383H13.1894V1.7073H11.8234V1.01076L10.4574 1.01076ZM10.7836 0.696534H12.1496V1.39307H13.5156V2.0896H14.2388V2.70874H14.962V4.02442H15.645V5.37879H16.3682V10.0317H15.645V11.386H14.962V12.7017H14.2388V13.3208H13.5156V14.0174H12.1496V14.7139H10.7836V15.4104H9.73901V27H7.11785V15.4104H5.95273V14.7139H4.58672V14.0174H3.22071V13.3208H2.49753V12.7017H1.77435V11.386H1.09135V10.0317H0.368164V5.37879H1.09135V4.02442H1.77435V2.70874H2.49753V2.0896H3.22071V1.39307H4.58672V0.696534H5.95273V0H10.7836V0.696534Z" fill="white"/>
<path fill-rule="evenodd" clip-rule="evenodd" d="M5.51277 2.94552H10.4572V3.60588H11.0196V3.61436H11.143V4.31959H11.8433V5.01125H12.5171V6.4046H13.1802V9.0338H12.5171V10.3835H11.8634V10.8237H11.1427V11.48H7.00689V10.8132H6.37409V10.1464H5.68855V9.54637H5.00702V7.98231H5.00302V7.13099H5.8028V5.69937H5.80827V5.68854H7.00689V5.04512H8.96303V5.68854H9.62766V5.73003H9.64697V6.43526H10.3472V6.89101L10.3502 7.81006H10.3517V8.29333L10.353 8.70588L9.68126 8.70787V9.40226H8.79737V9.40141H7.71001V8.75799H7.28814V7.09392H8.17203V8.55009H8.79487V7.81006H9.46629L9.46462 7.28658H8.76308V6.53986H6.68669V7.9918H5.89091V8.67594H6.69549V9.29511H7.45133V9.96188H8.1896V10.6286H9.50295V9.9724H10.9619V8.56703H11.6332V6.93186H10.9594V5.56628H10.2591V4.4572H5.86933V5.16835H5.18379V5.8795H4.55099V7.31875H3.88556V9.83695H4.48068V11.327H5.11348V12.8848H6.71306V13.5483H10.7158V12.9186H12.1572V12.2413H14.1133V12.3875V13.0926H13.1894H12.5489V13.7032V13.7699H11.8458V14.3996H4.91513V13.753H4.22959V13.7032V12.9911H3.59679V11.6189H3.00167V10.1614H2.30139V6.95651H3.00167V5.48474H3.6671V4.92659H4.2999V4.16464H4.98544V3.7244H5.02059V3.60588H5.51277V2.94552Z" fill="#FADEFF"/>
<path d="M11.8234 1.01076L10.4574 1.01076V0.314226H6.27898V1.01076L4.91297 1.01076V1.7073H3.54697V2.40383H2.82378V3.02297H2.1006V4.33865H1.4176V5.69302H0.694419V9.71743H1.4176V11.0718H2.1006V12.3875H2.82378V13.0066H3.54697V13.7032H4.22959V12.9911H3.59679V11.6189H3.00167V10.1614H2.30139V6.95651H3.00167V5.48474H3.6671V4.92659H4.2999V4.16464H4.98544V3.7244H5.02059V3.60588H5.51277V2.94552H10.4572V3.60588H11.0196V3.61436H11.143V4.31959H11.8433V5.01125H12.5171V6.4046H13.1802V9.0338H12.5171V10.3835H11.8634V10.8237H11.1427V11.48H7.00689V10.8132H6.37409V10.1464H5.68855V9.54637H5.00702V7.98231H5.00302V7.13099H5.8028V5.69937H5.80827V5.68854H7.00689V5.04512H8.96303V5.68854H9.62766V5.73003H9.64697V6.43526H10.3472V6.89101L10.3502 7.81006H10.3517V8.29333L10.353 8.70588L9.68126 8.70787V9.40226H8.79737V9.40141H7.71001V8.75799H7.28814V7.09392H8.17203V8.55009H8.79487V7.81006H9.46629L9.46462 7.28658H8.76308V6.53986H6.68669V7.9918H5.89091V8.67594H6.69549V9.29511H7.45133V9.96188H8.1896V10.6286H9.50295V9.9724H10.9619V8.56703H11.6332V6.93186H10.9594V5.56628H10.2591V4.4572H5.86933V5.16835H5.18379V5.8795H4.55099V7.31875H3.88556V9.83695H4.48068V11.327H5.11348V12.8848H6.71306V13.5483H10.7158V12.9186H12.1572V12.2413H14.1133V12.3875H14.6357V11.0718H15.3187V9.71743H16.0419V5.69302H15.3187V4.33865H14.6357V3.02297H13.9126V2.40383H13.1894V1.7073H11.8234V1.01076Z" fill="#9C27B0"/>
<path d="M12.5489 13.7032H13.1894L13.1894 13.0926H12.5489V13.7032Z" fill="#9C27B0"/>
</svg>
