<svg width="16" height="27" viewBox="0 0 16 27" fill="none" xmlns="http://www.w3.org/2000/svg">
<path d="M9.61682 14.3997H10.8975V13.7032H9.61682V14.3997Z" fill="#FFEB3B"/>
<path d="M5.69959 14.3997H4.41896V13.7032H5.69959V14.3997Z" fill="#FFEB3B"/>
<path d="M5.69959 15.0962H6.7919H7.43222H8.07253H9.61682V14.3997H5.69959V15.0962Z" fill="#FFEB3B"/>
<path d="M8.07253 15.0962H7.71471V26.6858H8.63752V15.0962H8.07253Z" fill="#FF999A"/>
<path d="M7.43222 15.0962H6.7919V26.6858H7.71471V15.0962H7.43222Z" fill="#FFCC9A"/>
<path fill-rule="evenodd" clip-rule="evenodd" d="M9.61682 1.01076V0.314226H5.69959V1.01076L4.41896 1.01076V1.7073H3.13833V2.40383H2.46035V3.02297H1.78236V4.33865H1.14205V5.69302H0.464067V9.71743H1.14205V11.0718H1.78236V12.3875H2.46035V13.0066H3.13833V13.7032H3.77829H4.41896V14.3997H5.69959V15.0962H6.7919V26.6858H8.63752V15.0962H9.61682V14.3997H10.8975V13.7032H11.5777H12.1781L12.1781 13.0926L12.1781 13.0066H12.8561V12.3875H13.0443H13.5341V11.0718H14.1744V9.71743H14.8524V5.69302H14.1744V4.33865H13.5341V3.02297H12.8561V2.40383H12.1781V1.7073H10.8975V1.01076L9.61682 1.01076ZM9.92267 0.696534H11.2033V1.39307H12.4839V2.0896H13.1619V2.70874H13.8399V4.02442H14.4802V5.37879H15.1582V10.0317H14.4802V11.386H13.8399V12.7017H13.1619V13.3208H12.4839V14.0174H11.2033V14.7139H9.92267V15.4104H8.94337V27H6.48604V15.4104H5.39373V14.7139H4.1131V14.0174H2.83247V13.3208H2.15448V12.7017H1.4765V11.386H0.836185V10.0317H0.158203V5.37879H0.836185V4.02442H1.4765V2.70874H2.15448V2.0896H2.83247V1.39307H4.1131V0.696534H5.39373V0H9.92267V0.696534Z" fill="white"/>
<path fill-rule="evenodd" clip-rule="evenodd" d="M4.98128 2.94552H9.61663V3.60588H10.144V3.61436H10.2596V4.31959H10.9161V5.01125H11.5478V6.4046H12.1695V9.0338H11.5478V10.3835H10.935V10.8237H10.2593V11.48H6.38201V10.8132H5.78876V10.1464H5.14607V9.54637H4.50713V7.98231H4.50338V7.13099H5.25317V5.69937H5.2583V5.68854H6.38201V5.04512H8.21589V5.68854H8.83898V5.73003H8.85708V6.43526H9.5136V6.89101L9.51634 7.81006H9.51779V8.29333L9.51902 8.70588L8.88923 8.70787V9.40226H8.06058V9.40141H7.04118V8.75799H6.64568V7.09392H7.47432V8.55009H8.05824V7.81006H8.68769L8.68613 7.28658H8.02844V6.53986H6.08182V7.9918H5.33578V8.67594H6.09007V9.29511H6.79867V9.96188H7.4908V10.6286H8.72206V9.9724H10.0898V8.56703H10.7192V6.93186H10.0875V5.56628H9.43099V4.4572H5.31554V5.16835H4.67285V5.8795H4.0796V7.31875H3.45576V9.83695H4.01368V11.327H4.60693V12.8848H6.10655V13.5483H9.85913V12.9186H11.2104V12.2413H13.0443V12.3875V13.0926H12.1781H11.5777V13.7032V13.7699H10.9185V14.3996H4.42098V13.753H3.77829V13.7032V12.9911H3.18504V11.6189H2.62712V10.1614H1.9706V6.95651H2.62712V5.48474H3.25095V4.92659H3.84421V4.16464H4.4869V3.7244H4.51986V3.60588H4.98128V2.94552Z" fill="#FFFCE2"/>
<path d="M10.8975 1.01076L9.61682 1.01076V0.314226H5.69959V1.01076L4.41896 1.01076V1.7073H3.13833V2.40383H2.46035V3.02297H1.78236V4.33865H1.14205V5.69302H0.464067V9.71743H1.14205V11.0718H1.78236V12.3875H2.46035V13.0066H3.13833V13.7032H3.77829V12.9911H3.18504V11.6189H2.62712V10.1614H1.9706V6.95651H2.62712V5.48474H3.25095V4.92659H3.84421V4.16464H4.4869V3.7244H4.51986V3.60588H4.98128V2.94552H9.61663V3.60588H10.144V3.61436H10.2596V4.31959H10.9161V5.01125H11.5478V6.4046H12.1695V9.0338H11.5478V10.3835H10.935V10.8237H10.2593V11.48H6.38201V10.8132H5.78876V10.1464H5.14607V9.54637H4.50713V7.98231H4.50338V7.13099H5.25317V5.69937H5.2583V5.68854H6.38201V5.04512H8.21589V5.68854H8.83898V5.73003H8.85708V6.43526H9.5136V6.89101L9.51634 7.81006H9.51779V8.29333L9.51902 8.70588L8.88923 8.70787V9.40226H8.06058V9.40141H7.04118V8.75799H6.64568V7.09392H7.47432V8.55009H8.05824V7.81006H8.68769L8.68613 7.28658H8.02844V6.53986H6.08182V7.9918H5.33578V8.67594H6.09007V9.29511H6.79867V9.96188H7.4908V10.6286H8.72206V9.9724H10.0898V8.56703H10.7192V6.93186H10.0875V5.56628H9.43099V4.4572H5.31554V5.16835H4.67285V5.8795H4.0796V7.31875H3.45576V9.83695H4.01368V11.327H4.60693V12.8848H6.10655V13.5483H9.85913V12.9186H11.2104V12.2413H13.0443V12.3875H13.5341V11.0718H14.1744V9.71743H14.8524V5.69302H14.1744V4.33865H13.5341V3.02297H12.8561V2.40383H12.1781V1.7073H10.8975V1.01076Z" fill="#FFEB3B"/>
<path d="M11.5777 13.7032H12.1781L12.1781 13.0926H11.5777V13.7032Z" fill="#FFEB3B"/>
</svg>
