<svg width="17" height="27" viewBox="0 0 17 27" fill="none" xmlns="http://www.w3.org/2000/svg">
<path d="M10.8783 14.3997H12.2443V13.7032H10.8783V14.3997Z" fill="#8BC34A"/>
<path d="M6.69988 14.3997H5.33387V13.7032H6.69988V14.3997Z" fill="#8BC34A"/>
<path d="M6.69988 15.0962H7.86501H8.54801H9.23101H10.8783V14.3997H6.69988V15.0962Z" fill="#8BC34A"/>
<path d="M9.23101 15.0962H8.84933V26.6858H9.83366V15.0962H9.23101Z" fill="#FF999A"/>
<path d="M8.54801 15.0962H7.86501V26.6858H8.84933V15.0962H8.54801Z" fill="#FFCC9A"/>
<path fill-rule="evenodd" clip-rule="evenodd" d="M10.8783 1.01076V0.314226H6.69987V1.01076L5.33387 1.01076V1.7073H3.96786V2.40383H3.24468V3.02297H2.5215V4.33865H1.8385V5.69302H1.11532V9.71743H1.8385V11.0718H2.5215V12.3875H3.24468V13.0066H3.96786V13.7032H4.65049H5.33387V14.3997H6.69988V15.0962H7.86501V26.6858H9.83366V15.0962H10.8783V14.3997H12.2443V13.7032H12.9698H13.6103L13.6103 13.0926L13.6103 13.0066H14.3335V12.3875H14.5342H15.0566V11.0718H15.7396V9.71743H16.4628V5.69302H15.7396V4.33865H15.0566V3.02297H14.3335V2.40383H13.6103V1.7073H12.2443V1.01076L10.8783 1.01076ZM11.2045 0.696534H12.5705V1.39307H13.9365V2.0896H14.6597V2.70874H15.3829V4.02442H16.0659V5.37879H16.7891V10.0317H16.0659V11.386H15.3829V12.7017H14.6597V13.3208H13.9365V14.0174H12.5705V14.7139H11.2045V15.4104H10.1599V27H7.53875V15.4104H6.37363V14.7139H5.00762V14.0174H3.64161V13.3208H2.91843V12.7017H2.19525V11.386H1.51224V10.0317H0.789062V5.37879H1.51224V4.02442H2.19525V2.70874H2.91843V2.0896H3.64161V1.39307H5.00762V0.696534H6.37363V0H11.2045V0.696534Z" fill="white"/>
<path fill-rule="evenodd" clip-rule="evenodd" d="M5.93367 2.94552H10.878V3.60588H11.4405V3.61436H11.5639V4.31959H12.2642V5.01125H12.938V6.4046H13.6011V9.0338H12.938V10.3835H12.2843V10.8237H11.5636V11.48H7.42779V10.8132H6.79499V10.1464H6.10945V9.54637H5.42792V7.98231H5.42392V7.13099H6.2237V5.69937H6.22917V5.68854H7.42779V5.04512H9.38393V5.68854H10.0486V5.73003H10.0679V6.43526H10.7681V6.89101L10.7711 7.81006H10.7726V8.29333L10.7739 8.70588L10.1022 8.70787V9.40226H9.21827V9.40141H8.1309V8.75799H7.70904V7.09392H8.59292V8.55009H9.21577V7.81006H9.88719L9.88552 7.28658H9.18398V6.53986H7.10758V7.9918H6.31181V8.67594H7.11638V9.29511H7.87223V9.96188H8.6105V10.6286H9.92385V9.9724H11.3828V8.56703H12.0541V6.93186H11.3803V5.56628H10.68V4.4572H6.29022V5.16835H5.60469V5.8795H4.97188V7.31875H4.30646V9.83695H4.90157V11.327H5.53438V12.8848H7.13396V13.5483H11.1367V12.9186H12.5781V12.2413H14.5342V12.3875V13.0926H13.6103H12.9698V13.7032V13.7699H12.2667V14.3996H5.33602V13.753H4.65049V13.7032V12.9911H4.01769V11.6189H3.42257V10.1614H2.72229V6.95651H3.42257V5.48474H4.088V4.92659H4.7208V4.16464H5.40634V3.7244H5.44149V3.60588H5.93367V2.94552Z" fill="#EBFED5"/>
<path d="M12.2443 1.01076L10.8783 1.01076V0.314226H6.69987V1.01076L5.33387 1.01076V1.7073H3.96786V2.40383H3.24468V3.02297H2.5215V4.33865H1.8385V5.69302H1.11532V9.71743H1.8385V11.0718H2.5215V12.3875H3.24468V13.0066H3.96786V13.7032H4.65049V12.9911H4.01769V11.6189H3.42257V10.1614H2.72229V6.95651H3.42257V5.48474H4.088V4.92659H4.7208V4.16464H5.40634V3.7244H5.44149V3.60588H5.93367V2.94552H10.878V3.60588H11.4405V3.61436H11.5639V4.31959H12.2642V5.01125H12.938V6.4046H13.6011V9.0338H12.938V10.3835H12.2843V10.8237H11.5636V11.48H7.42779V10.8132H6.79499V10.1464H6.10945V9.54637H5.42792V7.98231H5.42392V7.13099H6.2237V5.69937H6.22917V5.68854H7.42779V5.04512H9.38393V5.68854H10.0486V5.73003H10.0679V6.43526H10.7681V6.89101L10.7711 7.81006H10.7726V8.29333L10.7739 8.70588L10.1022 8.70787V9.40226H9.21827V9.40141H8.1309V8.75799H7.70904V7.09392H8.59292V8.55009H9.21577V7.81006H9.88719L9.88552 7.28658H9.18398V6.53986H7.10758V7.9918H6.31181V8.67594H7.11638V9.29511H7.87223V9.96188H8.6105V10.6286H9.92385V9.9724H11.3828V8.56703H12.0541V6.93186H11.3803V5.56628H10.68V4.4572H6.29022V5.16835H5.60469V5.8795H4.97188V7.31875H4.30646V9.83695H4.90157V11.327H5.53438V12.8848H7.13396V13.5483H11.1367V12.9186H12.5781V12.2413H14.5342V12.3875H15.0566V11.0718H15.7396V9.71743H16.4628V5.69302H15.7396V4.33865H15.0566V3.02297H14.3335V2.40383H13.6103V1.7073H12.2443V1.01076Z" fill="#8BC34A"/>
<path d="M12.9698 13.7032H13.6103L13.6103 13.0926H12.9698V13.7032Z" fill="#8BC34A"/>
</svg>
