<svg width="16" height="27" viewBox="0 0 16 27" fill="none" xmlns="http://www.w3.org/2000/svg">
<path d="M10.3532 14.3997H11.6338V13.7032H10.3532V14.3997Z" fill="#9E9E9E"/>
<path d="M6.43592 14.3997H5.15529V13.7032H6.43592V14.3997Z" fill="#9E9E9E"/>
<path d="M6.43592 15.0962H7.52823H8.16854H8.80886H10.3532V14.3997H6.43592V15.0962Z" fill="#9E9E9E"/>
<path d="M8.80886 15.0962H8.45104V26.6858H9.37384V15.0962H8.80886Z" fill="#FF999A"/>
<path d="M8.16854 15.0962H7.52823V26.6858H8.45104V15.0962H8.16854Z" fill="#FFCC9A"/>
<path fill-rule="evenodd" clip-rule="evenodd" d="M10.3531 1.01076V0.314226H6.43592V1.01076L5.15529 1.01076V1.7073H3.87466V2.40383H3.19668V3.02297H2.51869V4.33865H1.87838V5.69302H1.20039V9.71743H1.87838V11.0718H2.51869V12.3875H3.19668V13.0066H3.87466V13.7032H4.51462H5.15529V14.3997H6.43592V15.0962H7.52823V26.6858H9.37384V15.0962H10.3532V14.3997H11.6338V13.7032H12.314H12.9144L12.9144 13.0926L12.9144 13.0066H13.5924V12.3875H13.7806H14.2704V11.0718H14.9107V9.71743H15.5887V5.69302H14.9107V4.33865H14.2704V3.02297H13.5924V2.40383H12.9144V1.7073H11.6338V1.01076L10.3531 1.01076ZM10.659 0.696534H11.9396V1.39307H13.2203V2.0896H13.8983V2.70874H14.5762V4.02442H15.2165V5.37879H15.8945V10.0317H15.2165V11.386H14.5762V12.7017H13.8983V13.3208H13.2203V14.0174H11.9396V14.7139H10.659V15.4104H9.6797V27H7.22236V15.4104H6.13006V14.7139H4.84943V14.0174H3.56879V13.3208H2.89081V12.7017H2.21283V11.386H1.57251V10.0317H0.894531V5.37879H1.57251V4.02442H2.21283V2.70874H2.89081V2.0896H3.56879V1.39307H4.84943V0.696534H6.13006V0H10.659V0.696534Z" fill="white"/>
<path fill-rule="evenodd" clip-rule="evenodd" d="M5.7176 2.94552H10.353V3.60588H10.8803V3.61436H10.996V4.31959H11.6525V5.01125H12.2841V6.4046H12.9058V9.0338H12.2841V10.3835H11.6713V10.8237H10.9956V11.48H7.11834V10.8132H6.52509V10.1464H5.88239V9.54637H5.24346V7.98231H5.23971V7.13099H5.9895V5.69937H5.99463V5.68854H7.11834V5.04512H8.95222V5.68854H9.57531V5.73003H9.59341V6.43526H10.2499V6.89101L10.2527 7.81006H10.2541V8.29333L10.2553 8.70588L9.62556 8.70787V9.40226H8.79691V9.40141H7.77751V8.75799H7.38201V7.09392H8.21065V8.55009H8.79457V7.81006H9.42402L9.42246 7.28658H8.76476V6.53986H6.81814V7.9918H6.07211V8.67594H6.82639V9.29511H7.535V9.96188H8.22713V10.6286H9.45839V9.9724H10.8262V8.56703H11.4555V6.93186H10.8238V5.56628H10.1673V4.4572H6.05187V5.16835H5.40918V5.8795H4.81593V7.31875H4.19209V9.83695H4.75001V11.327H5.34326V12.8848H6.84287V13.5483H10.5955V12.9186H11.9468V12.2413H13.7806V12.3875V13.0926H12.9144H12.314V13.7032V13.7699H11.6548V14.3996H5.15731V13.753H4.51462V13.7032V12.9911H3.92137V11.6189H3.36344V10.1614H2.70693V6.95651H3.36344V5.48474H3.98728V4.92659H4.58054V4.16464H5.22323V3.7244H5.25618V3.60588H5.7176V2.94552Z" fill="#EEEEEE"/>
<path d="M11.6338 1.01076L10.3531 1.01076V0.314226H6.43592V1.01076L5.15529 1.01076V1.7073H3.87466V2.40383H3.19668V3.02297H2.51869V4.33865H1.87838V5.69302H1.20039V9.71743H1.87838V11.0718H2.51869V12.3875H3.19668V13.0066H3.87466V13.7032H4.51462V12.9911H3.92137V11.6189H3.36344V10.1614H2.70693V6.95651H3.36344V5.48474H3.98728V4.92659H4.58054V4.16464H5.22323V3.7244H5.25618V3.60588H5.7176V2.94552H10.353V3.60588H10.8803V3.61436H10.996V4.31959H11.6525V5.01125H12.2841V6.4046H12.9058V9.0338H12.2841V10.3835H11.6713V10.8237H10.9956V11.48H7.11834V10.8132H6.52509V10.1464H5.88239V9.54637H5.24346V7.98231H5.23971V7.13099H5.9895V5.69937H5.99463V5.68854H7.11834V5.04512H8.95222V5.68854H9.57531V5.73003H9.59341V6.43526H10.2499V6.89101L10.2527 7.81006H10.2541V8.29333L10.2553 8.70588L9.62556 8.70787V9.40226H8.79691V9.40141H7.77751V8.75799H7.38201V7.09392H8.21065V8.55009H8.79457V7.81006H9.42402L9.42246 7.28658H8.76476V6.53986H6.81814V7.9918H6.07211V8.67594H6.82639V9.29511H7.535V9.96188H8.22713V10.6286H9.45839V9.9724H10.8262V8.56703H11.4555V6.93186H10.8238V5.56628H10.1673V4.4572H6.05187V5.16835H5.40918V5.8795H4.81593V7.31875H4.19209V9.83695H4.75001V11.327H5.34326V12.8848H6.84287V13.5483H10.5955V12.9186H11.9468V12.2413H13.7806V12.3875H14.2704V11.0718H14.9107V9.71743H15.5887V5.69302H14.9107V4.33865H14.2704V3.02297H13.5924V2.40383H12.9144V1.7073H11.6338V1.01076Z" fill="#9E9E9E"/>
<path d="M12.314 13.7032H12.9144L12.9144 13.0926H12.314V13.7032Z" fill="#9E9E9E"/>
</svg>
