<svg width="17" height="27" viewBox="0 0 17 27" fill="none" xmlns="http://www.w3.org/2000/svg">
<path d="M10.721 14.3997H12.087V13.7032H10.721V14.3997Z" fill="#24040F"/>
<path d="M6.54265 14.3997H5.17665V13.7032H6.54265V14.3997Z" fill="#24040F"/>
<path d="M6.54265 15.0962H7.70778H8.39078H9.07379H10.721V14.3997H6.54265V15.0962Z" fill="#24040F"/>
<path d="M9.07379 15.0962H8.69211V26.6858H9.67644V15.0962H9.07379Z" fill="#FF999A"/>
<path d="M8.39078 15.0962H7.70778V26.6858H8.69211V15.0962H8.39078Z" fill="#FFCC9A"/>
<path fill-rule="evenodd" clip-rule="evenodd" d="M10.721 1.01076V0.314226H6.54265V1.01076L5.17665 1.01076V1.7073H3.81064V2.40383H3.08746V3.02297H2.36428V4.33865H1.68127V5.69302H0.95809V9.71743H1.68127V11.0718H2.36428V12.3875H3.08746V13.0066H3.81064V13.7032H4.49326H5.17665V14.3997H6.54265V15.0962H7.70778V26.6858H9.67644V15.0962H10.721V14.3997H12.087V13.7032H12.8126H13.453L13.453 13.0926L13.453 13.0066H14.1762V12.3875H14.377H14.8994V11.0718H15.5824V9.71743H16.3056V5.69302H15.5824V4.33865H14.8994V3.02297H14.1762V2.40383H13.453V1.7073H12.087V1.01076L10.721 1.01076ZM11.0473 0.696534H12.4133V1.39307H13.7793V2.0896H14.5025V2.70874H15.2257V4.02442H15.9087V5.37879H16.6318V10.0317H15.9087V11.386H15.2257V12.7017H14.5025V13.3208H13.7793V14.0174H12.4133V14.7139H11.0473V15.4104H10.0027V27H7.38152V15.4104H6.2164V14.7139H4.85039V14.0174H3.48438V13.3208H2.7612V12.7017H2.03802V11.386H1.35502V10.0317H0.631836V5.37879H1.35502V4.02442H2.03802V2.70874H2.7612V2.0896H3.48438V1.39307H4.85039V0.696534H6.2164V0H11.0473V0.696534Z" fill="white"/>
<path fill-rule="evenodd" clip-rule="evenodd" d="M5.77645 2.94552H10.7208V3.60588H11.2833V3.61436H11.4067V4.31959H12.107V5.01125H12.7808V6.4046H13.4439V9.0338H12.7808V10.3835H12.1271V10.8237H11.4064V11.48H7.27056V10.8132H6.63776V10.1464H5.95222V9.54637H5.27069V7.98231H5.26669V7.13099H6.06647V5.69937H6.07194V5.68854H7.27056V5.04512H9.2267V5.68854H9.89134V5.73003H9.91064V6.43526H10.6109V6.89101L10.6139 7.81006H10.6154V8.29333L10.6167 8.70588L9.94493 8.70787V9.40226H9.06104V9.40141H7.97368V8.75799H7.55181V7.09392H8.4357V8.55009H9.05854V7.81006H9.72996L9.72829 7.28658H9.02675V6.53986H6.95036V7.9918H6.15458V8.67594H6.95916V9.29511H7.71501V9.96188H8.45328V10.6286H9.76662V9.9724H11.2256V8.56703H11.8969V6.93186H11.2231V5.56628H10.5228V4.4572H6.133V5.16835H5.44746V5.8795H4.81466V7.31875H4.14923V9.83695H4.74435V11.327H5.37715V12.8848H6.97674V13.5483H10.9795V12.9186H12.4209V12.2413H14.377V12.3875V13.0926H13.453H12.8126V13.7032V13.7699H12.1095V14.3996H5.1788V13.753H4.49326V13.7032V12.9911H3.86046V11.6189H3.26534V10.1614H2.56506V6.95651H3.26534V5.48474H3.93077V4.92659H4.56357V4.16464H5.24911V3.7244H5.28427V3.60588H5.77645V2.94552Z" fill="#DEDCDD"/>
<path d="M12.087 1.01076L10.721 1.01076V0.314226H6.54265V1.01076L5.17665 1.01076V1.7073H3.81064V2.40383H3.08746V3.02297H2.36428V4.33865H1.68127V5.69302H0.95809V9.71743H1.68127V11.0718H2.36428V12.3875H3.08746V13.0066H3.81064V13.7032H4.49326V12.9911H3.86046V11.6189H3.26534V10.1614H2.56506V6.95651H3.26534V5.48474H3.93077V4.92659H4.56357V4.16464H5.24911V3.7244H5.28427V3.60588H5.77645V2.94552H10.7208V3.60588H11.2833V3.61436H11.4067V4.31959H12.107V5.01125H12.7808V6.4046H13.4439V9.0338H12.7808V10.3835H12.1271V10.8237H11.4064V11.48H7.27056V10.8132H6.63776V10.1464H5.95222V9.54637H5.27069V7.98231H5.26669V7.13099H6.06647V5.69937H6.07194V5.68854H7.27056V5.04512H9.2267V5.68854H9.89134V5.73003H9.91064V6.43526H10.6109V6.89101L10.6139 7.81006H10.6154V8.29333L10.6167 8.70588L9.94493 8.70787V9.40226H9.06104V9.40141H7.97368V8.75799H7.55181V7.09392H8.4357V8.55009H9.05854V7.81006H9.72996L9.72829 7.28658H9.02675V6.53986H6.95036V7.9918H6.15458V8.67594H6.95916V9.29511H7.71501V9.96188H8.45328V10.6286H9.76662V9.9724H11.2256V8.56703H11.8969V6.93186H11.2231V5.56628H10.5228V4.4572H6.133V5.16835H5.44746V5.8795H4.81466V7.31875H4.14923V9.83695H4.74435V11.327H5.37715V12.8848H6.97674V13.5483H10.9795V12.9186H12.4209V12.2413H14.377V12.3875H14.8994V11.0718H15.5824V9.71743H16.3056V5.69302H15.5824V4.33865H14.8994V3.02297H14.1762V2.40383H13.453V1.7073H12.087V1.01076Z" fill="#24040F"/>
<path d="M12.8126 13.7032H13.453L13.453 13.0926H12.8126V13.7032Z" fill="#24040F"/>
</svg>
