<svg width="16" height="27" viewBox="0 0 16 27" fill="none" xmlns="http://www.w3.org/2000/svg">
<path d="M9.87952 14.3997H11.1602V13.7032H9.87952V14.3997Z" fill="#009688"/>
<path d="M5.96229 14.3997H4.68166V13.7032H5.96229V14.3997Z" fill="#009688"/>
<path d="M5.96229 15.0962H7.05459H7.69491H8.33523H9.87952V14.3997H5.96229V15.0962Z" fill="#009688"/>
<path d="M8.33523 15.0962H7.9774V26.6858H8.90021V15.0962H8.33523Z" fill="#FF999A"/>
<path d="M7.69491 15.0962H7.05459V26.6858H7.9774V15.0962H7.69491Z" fill="#FFCC9A"/>
<path fill-rule="evenodd" clip-rule="evenodd" d="M9.87951 1.01076V0.314226H5.96228V1.01076L4.68166 1.01076V1.7073H3.40102V2.40383H2.72304V3.02297H2.04506V4.33865H1.40474V5.69302H0.726762V9.71743H1.40474V11.0718H2.04506V12.3875H2.72304V13.0066H3.40102V13.7032H4.04099H4.68166V14.3997H5.96229V15.0962H7.05459V26.6858H8.90021V15.0962H9.87952V14.3997H11.1602V13.7032H11.8403H12.4408L12.4408 13.0926L12.4408 13.0066H13.1188V12.3875H13.307H13.7967V11.0718H14.4371V9.71743H15.115V5.69302H14.4371V4.33865H13.7967V3.02297H13.1188V2.40383H12.4408V1.7073H11.1602V1.01076L9.87951 1.01076ZM10.1854 0.696534H11.466V1.39307H12.7466V2.0896H13.4246V2.70874H14.1026V4.02442H14.7429V5.37879H15.4209V10.0317H14.7429V11.386H14.1026V12.7017H13.4246V13.3208H12.7466V14.0174H11.466V14.7139H10.1854V15.4104H9.20606V27H6.74873V15.4104H5.65643V14.7139H4.37579V14.0174H3.09516V13.3208H2.41718V12.7017H1.7392V11.386H1.09888V10.0317H0.420898V5.37879H1.09888V4.02442H1.7392V2.70874H2.41718V2.0896H3.09516V1.39307H4.37579V0.696534H5.65643V0H10.1854V0.696534Z" fill="white"/>
<path fill-rule="evenodd" clip-rule="evenodd" d="M5.24397 2.94552H9.87932V3.60588H10.4067V3.61436H10.5223V4.31959H11.1788V5.01125H11.8105V6.4046H12.4322V9.0338H11.8105V10.3835H11.1977V10.8237H10.522V11.48H6.64471V10.8132H6.05145V10.1464H5.40876V9.54637H4.76983V7.98231H4.76607V7.13099H5.51587V5.69937H5.521V5.68854H6.64471V5.04512H8.47858V5.68854H9.10168V5.73003H9.11978V6.43526H9.77629V6.89101L9.77904 7.81006H9.78048V8.29333L9.78172 8.70588L9.15192 8.70787V9.40226H8.32328V9.40141H7.30388V8.75799H6.90837V7.09392H7.73702V8.55009H8.32094V7.81006H8.95039L8.94882 7.28658H8.29113V6.53986H6.34451V7.9918H5.59847V8.67594H6.35276V9.29511H7.06137V9.96188H7.7535V10.6286H8.98476V9.9724H10.3525V8.56703H10.9819V6.93186H10.3502V5.56628H9.69368V4.4572H5.57824V5.16835H4.93555V5.8795H4.34229V7.31875H3.71846V9.83695H4.27638V11.327H4.86963V12.8848H6.36924V13.5483H10.1218V12.9186H11.4731V12.2413H13.307V12.3875V13.0926H12.4408H11.8403V13.7032V13.7699H11.1812V14.3996H4.68367V13.753H4.04099V13.7032V12.9911H3.44773V11.6189H2.88981V10.1614H2.2333V6.95651H2.88981V5.48474H3.51365V4.92659H4.1069V4.16464H4.74959V3.7244H4.78255V3.60588H5.24397V2.94552Z" fill="#E1FFFC"/>
<path d="M11.1602 1.01076L9.87951 1.01076V0.314226H5.96228V1.01076L4.68166 1.01076V1.7073H3.40102V2.40383H2.72304V3.02297H2.04506V4.33865H1.40474V5.69302H0.726762V9.71743H1.40474V11.0718H2.04506V12.3875H2.72304V13.0066H3.40102V13.7032H4.04099V12.9911H3.44773V11.6189H2.88981V10.1614H2.2333V6.95651H2.88981V5.48474H3.51365V4.92659H4.1069V4.16464H4.74959V3.7244H4.78255V3.60588H5.24397V2.94552H9.87932V3.60588H10.4067V3.61436H10.5223V4.31959H11.1788V5.01125H11.8105V6.4046H12.4322V9.0338H11.8105V10.3835H11.1977V10.8237H10.522V11.48H6.64471V10.8132H6.05145V10.1464H5.40876V9.54637H4.76983V7.98231H4.76607V7.13099H5.51587V5.69937H5.521V5.68854H6.64471V5.04512H8.47858V5.68854H9.10168V5.73003H9.11978V6.43526H9.77629V6.89101L9.77904 7.81006H9.78048V8.29333L9.78172 8.70588L9.15192 8.70787V9.40226H8.32328V9.40141H7.30388V8.75799H6.90837V7.09392H7.73702V8.55009H8.32094V7.81006H8.95039L8.94882 7.28658H8.29113V6.53986H6.34451V7.9918H5.59847V8.67594H6.35276V9.29511H7.06137V9.96188H7.7535V10.6286H8.98476V9.9724H10.3525V8.56703H10.9819V6.93186H10.3502V5.56628H9.69368V4.4572H5.57824V5.16835H4.93555V5.8795H4.34229V7.31875H3.71846V9.83695H4.27638V11.327H4.86963V12.8848H6.36924V13.5483H10.1218V12.9186H11.4731V12.2413H13.307V12.3875H13.7967V11.0718H14.4371V9.71743H15.115V5.69302H14.4371V4.33865H13.7967V3.02297H13.1188V2.40383H12.4408V1.7073H11.1602V1.01076Z" fill="#009688"/>
<path d="M11.8403 13.7032H12.4408L12.4408 13.0926H11.8403V13.7032Z" fill="#009688"/>
</svg>
