<svg width="16" height="27" viewBox="0 0 16 27" fill="none" xmlns="http://www.w3.org/2000/svg">
<path d="M9.77405 14.3997H11.0547V13.7032H9.77405V14.3997Z" fill="#FE0000"/>
<path d="M5.85682 14.3997H4.57619V13.7032H5.85682V14.3997Z" fill="#FE0000"/>
<path d="M5.85682 15.0962H6.94913H7.58944H8.22976H9.77405V14.3997H5.85682V15.0962Z" fill="#FE0000"/>
<path d="M8.22976 15.0962H7.87193V26.6858H8.79474V15.0962H8.22976Z" fill="#FF999A"/>
<path d="M7.58944 15.0962H6.94913V26.6858H7.87193V15.0962H7.58944Z" fill="#FFCC9A"/>
<path fill-rule="evenodd" clip-rule="evenodd" d="M9.77404 1.01076V0.314226H5.85681V1.01076L4.57619 1.01076V1.7073H3.29556V2.40383H2.61757V3.02297H1.93959V4.33865H1.29928V5.69302H0.621293V9.71743H1.29928V11.0718H1.93959V12.3875H2.61757V13.0066H3.29556V13.7032H3.93552H4.57619V14.3997H5.85682V15.0962H6.94913V26.6858H8.79474V15.0962H9.77405V14.3997H11.0547V13.7032H11.7349H12.3353L12.3353 13.0926L12.3353 13.0066H13.0133V12.3875H13.2015H13.6913V11.0718H14.3316V9.71743H15.0096V5.69302H14.3316V4.33865H13.6913V3.02297H13.0133V2.40383H12.3353V1.7073H11.0547V1.01076L9.77404 1.01076ZM10.0799 0.696534H11.3605V1.39307H12.6412V2.0896H13.3192V2.70874H13.9971V4.02442H14.6374V5.37879H15.3154V10.0317H14.6374V11.386H13.9971V12.7017H13.3192V13.3208H12.6412V14.0174H11.3605V14.7139H10.0799V15.4104H9.10059V27H6.64326V15.4104H5.55096V14.7139H4.27033V14.0174H2.98969V13.3208H2.31171V12.7017H1.63373V11.386H0.993412V10.0317H0.31543V5.37879H0.993412V4.02442H1.63373V2.70874H2.31171V2.0896H2.98969V1.39307H4.27033V0.696534H5.55096V0H10.0799V0.696534Z" fill="white"/>
<path fill-rule="evenodd" clip-rule="evenodd" d="M5.1385 2.94552H9.77385V3.60588H10.3012V3.61436H10.4169V4.31959H11.0734V5.01125H11.705V6.4046H12.3267V9.0338H11.705V10.3835H11.0922V10.8237H10.4165V11.48H6.53924V10.8132H5.94599V10.1464H5.30329V9.54637H4.66436V7.98231H4.6606V7.13099H5.4104V5.69937H5.41553V5.68854H6.53924V5.04512H8.37312V5.68854H8.99621V5.73003H9.01431V6.43526H9.67082V6.89101L9.67357 7.81006H9.67501V8.29333L9.67625 8.70588L9.04646 8.70787V9.40226H8.21781V9.40141H7.19841V8.75799H6.80291V7.09392H7.63155V8.55009H8.21547V7.81006H8.84492L8.84336 7.28658H8.18566V6.53986H6.23904V7.9918H5.493V8.67594H6.24729V9.29511H6.9559V9.96188H7.64803V10.6286H8.87929V9.9724H10.2471V8.56703H10.8764V6.93186H10.2447V5.56628H9.58822V4.4572H5.47277V5.16835H4.83008V5.8795H4.23682V7.31875H3.61299V9.83695H4.17091V11.327H4.76416V12.8848H6.26377V13.5483H10.0164V12.9186H11.3677V12.2413H13.2015V12.3875V13.0926H12.3353H11.7349V13.7032V13.7699H11.0757V14.3996H4.57821V13.753H3.93552V13.7032V12.9911H3.34226V11.6189H2.78434V10.1614H2.12783V6.95651H2.78434V5.48474H3.40818V4.92659H4.00143V4.16464H4.64412V3.7244H4.67708V3.60588H5.1385V2.94552Z" fill="#FFDFDF"/>
<path d="M11.0547 1.01076L9.77404 1.01076V0.314226H5.85681V1.01076L4.57619 1.01076V1.7073H3.29556V2.40383H2.61757V3.02297H1.93959V4.33865H1.29928V5.69302H0.621293V9.71743H1.29928V11.0718H1.93959V12.3875H2.61757V13.0066H3.29556V13.7032H3.93552V12.9911H3.34226V11.6189H2.78434V10.1614H2.12783V6.95651H2.78434V5.48474H3.40818V4.92659H4.00143V4.16464H4.64412V3.7244H4.67708V3.60588H5.1385V2.94552H9.77385V3.60588H10.3012V3.61436H10.4169V4.31959H11.0734V5.01125H11.705V6.4046H12.3267V9.0338H11.705V10.3835H11.0922V10.8237H10.4165V11.48H6.53924V10.8132H5.94599V10.1464H5.30329V9.54637H4.66436V7.98231H4.6606V7.13099H5.4104V5.69937H5.41553V5.68854H6.53924V5.04512H8.37312V5.68854H8.99621V5.73003H9.01431V6.43526H9.67082V6.89101L9.67357 7.81006H9.67501V8.29333L9.67625 8.70588L9.04646 8.70787V9.40226H8.21781V9.40141H7.19841V8.75799H6.80291V7.09392H7.63155V8.55009H8.21547V7.81006H8.84492L8.84336 7.28658H8.18566V6.53986H6.23904V7.9918H5.493V8.67594H6.24729V9.29511H6.9559V9.96188H7.64803V10.6286H8.87929V9.9724H10.2471V8.56703H10.8764V6.93186H10.2447V5.56628H9.58822V4.4572H5.47277V5.16835H4.83008V5.8795H4.23682V7.31875H3.61299V9.83695H4.17091V11.327H4.76416V12.8848H6.26377V13.5483H10.0164V12.9186H11.3677V12.2413H13.2015V12.3875H13.6913V11.0718H14.3316V9.71743H15.0096V5.69302H14.3316V4.33865H13.6913V3.02297H13.0133V2.40383H12.3353V1.7073H11.0547V1.01076Z" fill="#FE0000"/>
<path d="M11.7349 13.7032H12.3353L12.3353 13.0926H11.7349V13.7032Z" fill="#FE0000"/>
</svg>
