<svg width="16" height="27" viewBox="0 0 16 27" fill="none" xmlns="http://www.w3.org/2000/svg">
<path d="M9.93225 14.3997H11.2129V13.7032H9.93225V14.3997Z" fill="#CDDC39"/>
<path d="M6.01502 14.3997H4.73439V13.7032H6.01502V14.3997Z" fill="#CDDC39"/>
<path d="M6.01502 15.0962H7.10733H7.74764H8.38796H9.93225V14.3997H6.01502V15.0962Z" fill="#CDDC39"/>
<path d="M8.38796 15.0962H8.03014V26.6858H8.95295V15.0962H8.38796Z" fill="#FF999A"/>
<path d="M7.74764 15.0962H7.10733V26.6858H8.03014V15.0962H7.74764Z" fill="#FFCC9A"/>
<path fill-rule="evenodd" clip-rule="evenodd" d="M9.93225 1.01076V0.314226H6.01502V1.01076L4.73439 1.01076V1.7073H3.45376V2.40383H2.77578V3.02297H2.09779V4.33865H1.45748V5.69302H0.779496V9.71743H1.45748V11.0718H2.09779V12.3875H2.77578V13.0066H3.45376V13.7032H4.09372H4.73439V14.3997H6.01502V15.0962H7.10733V26.6858H8.95295V15.0962H9.93225V14.3997H11.2129V13.7032H11.8931H12.4935L12.4935 13.0926L12.4935 13.0066H13.1715V12.3875H13.3597H13.8495V11.0718H14.4898V9.71743H15.1678V5.69302H14.4898V4.33865H13.8495V3.02297H13.1715V2.40383H12.4935V1.7073H11.2129V1.01076L9.93225 1.01076ZM10.2381 0.696534H11.5187V1.39307H12.7994V2.0896H13.4774V2.70874H14.1553V4.02442H14.7957V5.37879H15.4736V10.0317H14.7957V11.386H14.1553V12.7017H13.4774V13.3208H12.7994V14.0174H11.5187V14.7139H10.2381V15.4104H9.2588V27H6.80147V15.4104H5.70916V14.7139H4.42853V14.0174H3.1479V13.3208H2.46991V12.7017H1.79193V11.386H1.15161V10.0317H0.473633V5.37879H1.15161V4.02442H1.79193V2.70874H2.46991V2.0896H3.1479V1.39307H4.42853V0.696534H5.70916V0H10.2381V0.696534Z" fill="white"/>
<path fill-rule="evenodd" clip-rule="evenodd" d="M5.29671 2.94552H9.93206V3.60588H10.4594V3.61436H10.5751V4.31959H11.2316V5.01125H11.8632V6.4046H12.4849V9.0338H11.8632V10.3835H11.2504V10.8237H10.5747V11.48H6.69744V10.8132H6.10419V10.1464H5.4615V9.54637H4.82256V7.98231H4.81881V7.13099H5.5686V5.69937H5.57373V5.68854H6.69744V5.04512H8.53132V5.68854H9.15441V5.73003H9.17251V6.43526H9.82902V6.89101L9.83177 7.81006H9.83322V8.29333L9.83445 8.70588L9.20466 8.70787V9.40226H8.37601V9.40141H7.35661V8.75799H6.96111V7.09392H7.78975V8.55009H8.37367V7.81006H9.00312L9.00156 7.28658H8.34387V6.53986H6.39725V7.9918H5.65121V8.67594H6.4055V9.29511H7.1141V9.96188H7.80623V10.6286H9.03749V9.9724H10.4053V8.56703H11.0346V6.93186H10.4029V5.56628H9.74642V4.4572H5.63097V5.16835H4.98828V5.8795H4.39503V7.31875H3.77119V9.83695H4.32911V11.327H4.92236V12.8848H6.42198V13.5483H10.1746V12.9186H11.5259V12.2413H13.3597V12.3875V13.0926H12.4935H11.8931V13.7032V13.7699H11.2339V14.3996H4.73641V13.753H4.09372V13.7032V12.9911H3.50047V11.6189H2.94254V10.1614H2.28603V6.95651H2.94254V5.48474H3.56638V4.92659H4.15964V4.16464H4.80233V3.7244H4.83529V3.60588H5.29671V2.94552Z" fill="#FAFDDD"/>
<path d="M11.2129 1.01076L9.93225 1.01076V0.314226H6.01502V1.01076L4.73439 1.01076V1.7073H3.45376V2.40383H2.77578V3.02297H2.09779V4.33865H1.45748V5.69302H0.779496V9.71743H1.45748V11.0718H2.09779V12.3875H2.77578V13.0066H3.45376V13.7032H4.09372V12.9911H3.50047V11.6189H2.94254V10.1614H2.28603V6.95651H2.94254V5.48474H3.56638V4.92659H4.15964V4.16464H4.80233V3.7244H4.83529V3.60588H5.29671V2.94552H9.93206V3.60588H10.4594V3.61436H10.5751V4.31959H11.2316V5.01125H11.8632V6.4046H12.4849V9.0338H11.8632V10.3835H11.2504V10.8237H10.5747V11.48H6.69744V10.8132H6.10419V10.1464H5.4615V9.54637H4.82256V7.98231H4.81881V7.13099H5.5686V5.69937H5.57373V5.68854H6.69744V5.04512H8.53132V5.68854H9.15441V5.73003H9.17251V6.43526H9.82902V6.89101L9.83177 7.81006H9.83322V8.29333L9.83445 8.70588L9.20466 8.70787V9.40226H8.37601V9.40141H7.35661V8.75799H6.96111V7.09392H7.78975V8.55009H8.37367V7.81006H9.00312L9.00156 7.28658H8.34387V6.53986H6.39725V7.9918H5.65121V8.67594H6.4055V9.29511H7.1141V9.96188H7.80623V10.6286H9.03749V9.9724H10.4053V8.56703H11.0346V6.93186H10.4029V5.56628H9.74642V4.4572H5.63097V5.16835H4.98828V5.8795H4.39503V7.31875H3.77119V9.83695H4.32911V11.327H4.92236V12.8848H6.42198V13.5483H10.1746V12.9186H11.5259V12.2413H13.3597V12.3875H13.8495V11.0718H14.4898V9.71743H15.1678V5.69302H14.4898V4.33865H13.8495V3.02297H13.1715V2.40383H12.4935V1.7073H11.2129V1.01076Z" fill="#CDDC39"/>
<path d="M11.8931 13.7032H12.4935L12.4935 13.0926H11.8931V13.7032Z" fill="#CDDC39"/>
</svg>
