<svg width="15" height="27" viewBox="0 0 15 27" fill="none" xmlns="http://www.w3.org/2000/svg">
<path d="M9.45862 14.3997H10.7393V13.7032H9.45862V14.3997Z" fill="#47DF21"/>
<path d="M5.54139 14.3997H4.26076V13.7032H5.54139V14.3997Z" fill="#47DF21"/>
<path d="M5.54139 15.0962H6.6337H7.27401H7.91433H9.45862V14.3997H5.54139V15.0962Z" fill="#47DF21"/>
<path d="M7.91433 15.0962H7.5565V26.6858H8.47931V15.0962H7.91433Z" fill="#FF999A"/>
<path d="M7.27401 15.0962H6.6337V26.6858H7.5565V15.0962H7.27401Z" fill="#FFCC9A"/>
<path fill-rule="evenodd" clip-rule="evenodd" d="M9.45862 1.01076V0.314226H5.54138V1.01076L4.26076 1.01076V1.7073H2.98013V2.40383H2.30214V3.02297H1.62416V4.33865H0.983846V5.69302H0.305864V9.71743H0.983846V11.0718H1.62416V12.3875H2.30214V13.0066H2.98013V13.7032H3.62009H4.26076V14.3997H5.54139V15.0962H6.6337V26.6858H8.47931V15.0962H9.45862V14.3997H10.7393V13.7032H11.4195H12.0199L12.0199 13.0926L12.0199 13.0066H12.6979V12.3875H12.8861H13.3758V11.0718H14.0162V9.71743H14.6941V5.69302H14.0162V4.33865H13.3758V3.02297H12.6979V2.40383H12.0199V1.7073H10.7393V1.01076L9.45862 1.01076ZM9.76447 0.696534H11.0451V1.39307H12.3257V2.0896H13.0037V2.70874H13.6817V4.02442H14.322V5.37879H15V10.0317H14.322V11.386H13.6817V12.7017H13.0037V13.3208H12.3257V14.0174H11.0451V14.7139H9.76447V15.4104H8.78516V27H6.32783V15.4104H5.23553V14.7139H3.9549V14.0174H2.67426V13.3208H1.99628V12.7017H1.3183V11.386H0.677982V10.0317H0V5.37879H0.677982V4.02442H1.3183V2.70874H1.99628V2.0896H2.67426V1.39307H3.9549V0.696534H5.23553V0H9.76447V0.696534Z" fill="white"/>
<path fill-rule="evenodd" clip-rule="evenodd" d="M4.82307 2.94552H9.45842V3.60588H9.98576V3.61436H10.1014V4.31959H10.7579V5.01125H11.3896V6.4046H12.0113V9.0338H11.3896V10.3835H10.7768V10.8237H10.1011V11.48H6.22381V10.8132H5.63056V10.1464H4.98786V9.54637H4.34893V7.98231H4.34517V7.13099H5.09497V5.69937H5.1001V5.68854H6.22381V5.04512H8.05769V5.68854H8.68078V5.73003H8.69888V6.43526H9.35539V6.89101L9.35814 7.81006H9.35959V8.29333L9.36082 8.70588L8.73103 8.70787V9.40226H7.90238V9.40141H6.88298V8.75799H6.48748V7.09392H7.31612V8.55009H7.90004V7.81006H8.52949L8.52793 7.28658H7.87023V6.53986H5.92361V7.9918H5.17757V8.67594H5.93186V9.29511H6.64047V9.96188H7.3326V10.6286H8.56386V9.9724H9.93164V8.56703H10.561V6.93186H9.9293V5.56628H9.27279V4.4572H5.15734V5.16835H4.51465V5.8795H3.9214V7.31875H3.29756V9.83695H3.85548V11.327H4.44873V12.8848H5.94834V13.5483H9.70093V12.9186H11.0522V12.2413H12.8861V12.3875V13.0926H12.0199H11.4195V13.7032V13.7699H10.7603V14.3996H4.26278V13.753H3.62009V13.7032V12.9911H3.02683V11.6189H2.46891V10.1614H1.8124V6.95651H2.46891V5.48474H3.09275V4.92659H3.686V4.16464H4.32869V3.7244H4.36165V3.60588H4.82307V2.94552Z" fill="#F5FFF1"/>
<path d="M10.7393 1.01076L9.45862 1.01076V0.314226H5.54138V1.01076L4.26076 1.01076V1.7073H2.98013V2.40383H2.30214V3.02297H1.62416V4.33865H0.983846V5.69302H0.305864V9.71743H0.983846V11.0718H1.62416V12.3875H2.30214V13.0066H2.98013V13.7032H3.62009V12.9911H3.02683V11.6189H2.46891V10.1614H1.8124V6.95651H2.46891V5.48474H3.09275V4.92659H3.686V4.16464H4.32869V3.7244H4.36165V3.60588H4.82307V2.94552H9.45842V3.60588H9.98576V3.61436H10.1014V4.31959H10.7579V5.01125H11.3896V6.4046H12.0113V9.0338H11.3896V10.3835H10.7768V10.8237H10.1011V11.48H6.22381V10.8132H5.63056V10.1464H4.98786V9.54637H4.34893V7.98231H4.34517V7.13099H5.09497V5.69937H5.1001V5.68854H6.22381V5.04512H8.05769V5.68854H8.68078V5.73003H8.69888V6.43526H9.35539V6.89101L9.35814 7.81006H9.35959V8.29333L9.36082 8.70588L8.73103 8.70787V9.40226H7.90238V9.40141H6.88298V8.75799H6.48748V7.09392H7.31612V8.55009H7.90004V7.81006H8.52949L8.52793 7.28658H7.87023V6.53986H5.92361V7.9918H5.17757V8.67594H5.93186V9.29511H6.64047V9.96188H7.3326V10.6286H8.56386V9.9724H9.93164V8.56703H10.561V6.93186H9.9293V5.56628H9.27279V4.4572H5.15734V5.16835H4.51465V5.8795H3.9214V7.31875H3.29756V9.83695H3.85548V11.327H4.44873V12.8848H5.94834V13.5483H9.70093V12.9186H11.0522V12.2413H12.8861V12.3875H13.3758V11.0718H14.0162V9.71743H14.6941V5.69302H14.0162V4.33865H13.3758V3.02297H12.6979V2.40383H12.0199V1.7073H10.7393V1.01076Z" fill="#47DF21"/>
<path d="M11.4195 13.7032H12.0199L12.0199 13.0926H11.4195V13.7032Z" fill="#47DF21"/>
</svg>
