<svg width="16" height="27" viewBox="0 0 16 27" fill="none" xmlns="http://www.w3.org/2000/svg">
<path d="M9.98499 14.3997H11.2656V13.7032H9.98499V14.3997Z" fill="#FF5722"/>
<path d="M6.06776 14.3997H4.78713V13.7032H6.06776V14.3997Z" fill="#FF5722"/>
<path d="M6.06776 15.0962H7.16006H7.80038H8.4407H9.98499V14.3997H6.06776V15.0962Z" fill="#FF5722"/>
<path d="M8.4407 15.0962H8.08287V26.6858H9.00568V15.0962H8.4407Z" fill="#FF999A"/>
<path d="M7.80038 15.0962H7.16006V26.6858H8.08287V15.0962H7.80038Z" fill="#FFCC9A"/>
<path fill-rule="evenodd" clip-rule="evenodd" d="M9.98498 1.01076V0.314226H6.06775V1.01076L4.78713 1.01076V1.7073H3.50649V2.40383H2.82851V3.02297H2.15053V4.33865H1.51021V5.69302H0.832231V9.71743H1.51021V11.0718H2.15053V12.3875H2.82851V13.0066H3.50649V13.7032H4.14645H4.78713V14.3997H6.06776V15.0962H7.16006V26.6858H9.00568V15.0962H9.98499V14.3997H11.2656V13.7032H11.9458H12.5463L12.5462 13.0926L12.5463 13.0066H13.2242V12.3875H13.4125H13.9022V11.0718H14.5425V9.71743H15.2205V5.69302H14.5425V4.33865H13.9022V3.02297H13.2242V2.40383H12.5463V1.7073H11.2656V1.01076L9.98498 1.01076ZM10.2908 0.696534H11.5715V1.39307H12.8521V2.0896H13.5301V2.70874H14.2081V4.02442H14.8484V5.37879H15.5264V10.0317H14.8484V11.386H14.2081V12.7017H13.5301V13.3208H12.8521V14.0174H11.5715V14.7139H10.2908V15.4104H9.31153V27H6.8542V15.4104H5.7619V14.7139H4.48126V14.0174H3.20063V13.3208H2.52265V12.7017H1.84467V11.386H1.20435V10.0317H0.526367V5.37879H1.20435V4.02442H1.84467V2.70874H2.52265V2.0896H3.20063V1.39307H4.48126V0.696534H5.7619V0H10.2908V0.696534Z" fill="white"/>
<path fill-rule="evenodd" clip-rule="evenodd" d="M5.34944 2.94552H9.98479V3.60588H10.5121V3.61436H10.6278V4.31959H11.2843V5.01125H11.916V6.4046H12.5377V9.0338H11.916V10.3835H11.3031V10.8237H10.6275V11.48H6.75017V10.8132H6.15692V10.1464H5.51423V9.54637H4.8753V7.98231H4.87154V7.13099H5.62134V5.69937H5.62647V5.68854H6.75017V5.04512H8.58405V5.68854H9.20715V5.73003H9.22524V6.43526H9.88176V6.89101L9.88451 7.81006H9.88595V8.29333L9.88719 8.70588L9.25739 8.70787V9.40226H8.42875V9.40141H7.40934V8.75799H7.01384V7.09392H7.84249V8.55009H8.42641V7.81006H9.05586L9.05429 7.28658H8.3966V6.53986H6.44998V7.9918H5.70394V8.67594H6.45823V9.29511H7.16684V9.96188H7.85897V10.6286H9.09023V9.9724H10.458V8.56703H11.0873V6.93186H10.4557V5.56628H9.79915V4.4572H5.68371V5.16835H5.04102V5.8795H4.44776V7.31875H3.82392V9.83695H4.38185V11.327H4.9751V12.8848H6.47471V13.5483H10.2273V12.9186H11.5786V12.2413H13.4125V12.3875V13.0926H12.5462H11.9458V13.7032V13.7699H11.2866V14.3996H4.78914V13.753H4.14645V13.7032V12.9911H3.5532V11.6189H2.99528V10.1614H2.33877V6.95651H2.99528V5.48474H3.61912V4.92659H4.21237V4.16464H4.85506V3.7244H4.88802V3.60588H5.34944V2.94552Z" fill="#FEECE7"/>
<path d="M11.2656 1.01076L9.98498 1.01076V0.314226H6.06775V1.01076L4.78713 1.01076V1.7073H3.50649V2.40383H2.82851V3.02297H2.15053V4.33865H1.51021V5.69302H0.832231V9.71743H1.51021V11.0718H2.15053V12.3875H2.82851V13.0066H3.50649V13.7032H4.14645V12.9911H3.5532V11.6189H2.99528V10.1614H2.33877V6.95651H2.99528V5.48474H3.61912V4.92659H4.21237V4.16464H4.85506V3.7244H4.88802V3.60588H5.34944V2.94552H9.98479V3.60588H10.5121V3.61436H10.6278V4.31959H11.2843V5.01125H11.916V6.4046H12.5377V9.0338H11.916V10.3835H11.3031V10.8237H10.6275V11.48H6.75017V10.8132H6.15692V10.1464H5.51423V9.54637H4.8753V7.98231H4.87154V7.13099H5.62134V5.69937H5.62647V5.68854H6.75017V5.04512H8.58405V5.68854H9.20715V5.73003H9.22524V6.43526H9.88176V6.89101L9.88451 7.81006H9.88595V8.29333L9.88719 8.70588L9.25739 8.70787V9.40226H8.42875V9.40141H7.40934V8.75799H7.01384V7.09392H7.84249V8.55009H8.42641V7.81006H9.05586L9.05429 7.28658H8.3966V6.53986H6.44998V7.9918H5.70394V8.67594H6.45823V9.29511H7.16684V9.96188H7.85897V10.6286H9.09023V9.9724H10.458V8.56703H11.0873V6.93186H10.4557V5.56628H9.79915V4.4572H5.68371V5.16835H5.04102V5.8795H4.44776V7.31875H3.82392V9.83695H4.38185V11.327H4.9751V12.8848H6.47471V13.5483H10.2273V12.9186H11.5786V12.2413H13.4125V12.3875H13.9022V11.0718H14.5425V9.71743H15.2205V5.69302H14.5425V4.33865H13.9022V3.02297H13.2242V2.40383H12.5463V1.7073H11.2656V1.01076Z" fill="#FF5722"/>
<path d="M11.9458 13.7032H12.5463L12.5462 13.0926H11.9458V13.7032Z" fill="#FF5722"/>
</svg>
