<svg width="16" height="27" viewBox="0 0 16 27" fill="none" xmlns="http://www.w3.org/2000/svg">
<path d="M9.72132 14.3997H11.0019V13.7032H9.72132V14.3997Z" fill="#FE005B"/>
<path d="M5.80409 14.3997H4.52345V13.7032H5.80409V14.3997Z" fill="#FE005B"/>
<path d="M5.80409 15.0962H6.89639H7.53671H8.17702H9.72132V14.3997H5.80409V15.0962Z" fill="#FE005B"/>
<path d="M8.17702 15.0962H7.8192V26.6858H8.74201V15.0962H8.17702Z" fill="#FF999A"/>
<path d="M7.53671 15.0962H6.89639V26.6858H7.8192V15.0962H7.53671Z" fill="#FFCC9A"/>
<path fill-rule="evenodd" clip-rule="evenodd" d="M9.72131 1.01076V0.314226H5.80408V1.01076L4.52345 1.01076V1.7073H3.24282V2.40383H2.56484V3.02297H1.88686V4.33865H1.24654V5.69302H0.568559V9.71743H1.24654V11.0718H1.88686V12.3875H2.56484V13.0066H3.24282V13.7032H3.88278H4.52345V14.3997H5.80409V15.0962H6.89639V26.6858H8.74201V15.0962H9.72132V14.3997H11.0019V13.7032H11.6821H12.2826L12.2826 13.0926L12.2826 13.0066H12.9606V12.3875H13.1488H13.6385V11.0718H14.2789V9.71743H14.9568V5.69302H14.2789V4.33865H13.6385V3.02297H12.9606V2.40383H12.2826V1.7073H11.0019V1.01076L9.72131 1.01076ZM10.0272 0.696534H11.3078V1.39307H12.5884V2.0896H13.2664V2.70874H13.9444V4.02442H14.5847V5.37879H15.2627V10.0317H14.5847V11.386H13.9444V12.7017H13.2664V13.3208H12.5884V14.0174H11.3078V14.7139H10.0272V15.4104H9.04786V27H6.59053V15.4104H5.49822V14.7139H4.21759V14.0174H2.93696V13.3208H2.25898V12.7017H1.58099V11.386H0.940677V10.0317H0.262695V5.37879H0.940677V4.02442H1.58099V2.70874H2.25898V2.0896H2.93696V1.39307H4.21759V0.696534H5.49822V0H10.0272V0.696534Z" fill="white"/>
<path fill-rule="evenodd" clip-rule="evenodd" d="M5.08577 2.94552H9.72112V3.60588H10.2485V3.61436H10.3641V4.31959H11.0206V5.01125H11.6523V6.4046H12.274V9.0338H11.6523V10.3835H11.0395V10.8237H10.3638V11.48H6.4865V10.8132H5.89325V10.1464H5.25056V9.54637H4.61162V7.98231H4.60787V7.13099H5.35766V5.69937H5.3628V5.68854H6.4865V5.04512H8.32038V5.68854H8.94348V5.73003H8.96157V6.43526H9.61809V6.89101L9.62084 7.81006H9.62228V8.29333L9.62351 8.70588L8.99372 8.70787V9.40226H8.16508V9.40141H7.14567V8.75799H6.75017V7.09392H7.57882V8.55009H8.16273V7.81006H8.79219L8.79062 7.28658H8.13293V6.53986H6.18631V7.9918H5.44027V8.67594H6.19456V9.29511H6.90317V9.96188H7.5953V10.6286H8.82656V9.9724H10.1943V8.56703H10.8237V6.93186H10.192V5.56628H9.53548V4.4572H5.42003V5.16835H4.77734V5.8795H4.18409V7.31875H3.56025V9.83695H4.11817V11.327H4.71143V12.8848H6.21104V13.5483H9.96362V12.9186H11.3149V12.2413H13.1488V12.3875V13.0926H12.2826H11.6821V13.7032V13.7699H11.023V14.3996H4.52547V13.753H3.88278V13.7032V12.9911H3.28953V11.6189H2.73161V10.1614H2.07509V6.95651H2.73161V5.48474H3.35545V4.92659H3.9487V4.16464H4.59139V3.7244H4.62435V3.60588H5.08577V2.94552Z" fill="#FFF1F8"/>
<path d="M11.0019 1.01076L9.72131 1.01076V0.314226H5.80408V1.01076L4.52345 1.01076V1.7073H3.24282V2.40383H2.56484V3.02297H1.88686V4.33865H1.24654V5.69302H0.568559V9.71743H1.24654V11.0718H1.88686V12.3875H2.56484V13.0066H3.24282V13.7032H3.88278V12.9911H3.28953V11.6189H2.73161V10.1614H2.07509V6.95651H2.73161V5.48474H3.35545V4.92659H3.9487V4.16464H4.59139V3.7244H4.62435V3.60588H5.08577V2.94552H9.72112V3.60588H10.2485V3.61436H10.3641V4.31959H11.0206V5.01125H11.6523V6.4046H12.274V9.0338H11.6523V10.3835H11.0395V10.8237H10.3638V11.48H6.4865V10.8132H5.89325V10.1464H5.25056V9.54637H4.61162V7.98231H4.60787V7.13099H5.35766V5.69937H5.3628V5.68854H6.4865V5.04512H8.32038V5.68854H8.94348V5.73003H8.96157V6.43526H9.61809V6.89101L9.62084 7.81006H9.62228V8.29333L9.62351 8.70588L8.99372 8.70787V9.40226H8.16508V9.40141H7.14567V8.75799H6.75017V7.09392H7.57882V8.55009H8.16273V7.81006H8.79219L8.79062 7.28658H8.13293V6.53986H6.18631V7.9918H5.44027V8.67594H6.19456V9.29511H6.90317V9.96188H7.5953V10.6286H8.82656V9.9724H10.1943V8.56703H10.8237V6.93186H10.192V5.56628H9.53548V4.4572H5.42003V5.16835H4.77734V5.8795H4.18409V7.31875H3.56025V9.83695H4.11817V11.327H4.71143V12.8848H6.21104V13.5483H9.96362V12.9186H11.3149V12.2413H13.1488V12.3875H13.6385V11.0718H14.2789V9.71743H14.9568V5.69302H14.2789V4.33865H13.6385V3.02297H12.9606V2.40383H12.2826V1.7073H11.0019V1.01076Z" fill="#FE005B"/>
<path d="M11.6821 13.7032H12.2826L12.2826 13.0926H11.6821V13.7032Z" fill="#FE005B"/>
</svg>
