<svg width="16" height="27" viewBox="0 0 16 27" fill="none" xmlns="http://www.w3.org/2000/svg">
<path d="M10.0377 14.3997H11.3184V13.7032H10.0377V14.3997Z" fill="#C0460E"/>
<path d="M6.12049 14.3997H4.83986V13.7032H6.12049V14.3997Z" fill="#C0460E"/>
<path d="M6.12049 15.0962H7.2128H7.85311H8.49343H10.0377V14.3997H6.12049V15.0962Z" fill="#C0460E"/>
<path d="M8.49343 15.0962H8.13561V26.6858H9.05841V15.0962H8.49343Z" fill="#FF999A"/>
<path d="M7.85311 15.0962H7.2128V26.6858H8.13561V15.0962H7.85311Z" fill="#FFCC9A"/>
<path fill-rule="evenodd" clip-rule="evenodd" d="M10.0377 1.01076V0.314226H6.12049V1.01076L4.83986 1.01076V1.7073H3.55923V2.40383H2.88125V3.02297H2.20326V4.33865H1.56295V5.69302H0.884965V9.71743H1.56295V11.0718H2.20326V12.3875H2.88125V13.0066H3.55923V13.7032H4.19919H4.83986V14.3997H6.12049V15.0962H7.2128V26.6858H9.05841V15.0962H10.0377V14.3997H11.3184V13.7032H11.9986H12.599L12.599 13.0926L12.599 13.0066H13.277V12.3875H13.4652H13.955V11.0718H14.5953V9.71743H15.2732V5.69302H14.5953V4.33865H13.955V3.02297H13.277V2.40383H12.599V1.7073H11.3184V1.01076L10.0377 1.01076ZM10.3436 0.696534H11.6242V1.39307H12.9048V2.0896H13.5828V2.70874H14.2608V4.02442H14.9011V5.37879H15.5791V10.0317H14.9011V11.386H14.2608V12.7017H13.5828V13.3208H12.9048V14.0174H11.6242V14.7139H10.3436V15.4104H9.36427V27H6.90693V15.4104H5.81463V14.7139H4.534V14.0174H3.25336V13.3208H2.57538V12.7017H1.8974V11.386H1.25708V10.0317H0.579102V5.37879H1.25708V4.02442H1.8974V2.70874H2.57538V2.0896H3.25336V1.39307H4.534V0.696534H5.81463V0H10.3436V0.696534Z" fill="white"/>
<path fill-rule="evenodd" clip-rule="evenodd" d="M5.40217 2.94552H10.0375V3.60588H10.5649V3.61436H10.6805V4.31959H11.337V5.01125H11.9687V6.4046H12.5904V9.0338H11.9687V10.3835H11.3559V10.8237H10.6802V11.48H6.80291V10.8132H6.20966V10.1464H5.56697V9.54637H4.92803V7.98231H4.92428V7.13099H5.67407V5.69937H5.6792V5.68854H6.80291V5.04512H8.63679V5.68854H9.25988V5.73003H9.27798V6.43526H9.93449V6.89101L9.93724 7.81006H9.93869V8.29333L9.93992 8.70588L9.31013 8.70787V9.40226H8.48148V9.40141H7.46208V8.75799H7.06658V7.09392H7.89522V8.55009H8.47914V7.81006H9.10859L9.10703 7.28658H8.44933V6.53986H6.50271V7.9918H5.75668V8.67594H6.51096V9.29511H7.21957V9.96188H7.9117V10.6286H9.14296V9.9724H10.5107V8.56703H11.1401V6.93186H10.5084V5.56628H9.85189V4.4572H5.73644V5.16835H5.09375V5.8795H4.5005V7.31875H3.87666V9.83695H4.43458V11.327H5.02783V12.8848H6.52744V13.5483H10.28V12.9186H11.6313V12.2413H13.4652V12.3875V13.0926H12.599H11.9986V13.7032V13.7699H11.3394V14.3996H4.84188V13.753H4.19919V13.7032V12.9911H3.60594V11.6189H3.04801V10.1614H2.3915V6.95651H3.04801V5.48474H3.67185V4.92659H4.26511V4.16464H4.9078V3.7244H4.94075V3.60588H5.40217V2.94552Z" fill="#FFEAE0"/>
<path d="M11.3184 1.01076L10.0377 1.01076V0.314226H6.12049V1.01076L4.83986 1.01076V1.7073H3.55923V2.40383H2.88125V3.02297H2.20326V4.33865H1.56295V5.69302H0.884965V9.71743H1.56295V11.0718H2.20326V12.3875H2.88125V13.0066H3.55923V13.7032H4.19919V12.9911H3.60594V11.6189H3.04801V10.1614H2.3915V6.95651H3.04801V5.48474H3.67185V4.92659H4.26511V4.16464H4.9078V3.7244H4.94075V3.60588H5.40217V2.94552H10.0375V3.60588H10.5649V3.61436H10.6805V4.31959H11.337V5.01125H11.9687V6.4046H12.5904V9.0338H11.9687V10.3835H11.3559V10.8237H10.6802V11.48H6.80291V10.8132H6.20966V10.1464H5.56697V9.54637H4.92803V7.98231H4.92428V7.13099H5.67407V5.69937H5.6792V5.68854H6.80291V5.04512H8.63679V5.68854H9.25988V5.73003H9.27798V6.43526H9.93449V6.89101L9.93724 7.81006H9.93869V8.29333L9.93992 8.70588L9.31013 8.70787V9.40226H8.48148V9.40141H7.46208V8.75799H7.06658V7.09392H7.89522V8.55009H8.47914V7.81006H9.10859L9.10703 7.28658H8.44933V6.53986H6.50271V7.9918H5.75668V8.67594H6.51096V9.29511H7.21957V9.96188H7.9117V10.6286H9.14296V9.9724H10.5107V8.56703H11.1401V6.93186H10.5084V5.56628H9.85189V4.4572H5.73644V5.16835H5.09375V5.8795H4.5005V7.31875H3.87666V9.83695H4.43458V11.327H5.02783V12.8848H6.52744V13.5483H10.28V12.9186H11.6313V12.2413H13.4652V12.3875H13.955V11.0718H14.5953V9.71743H15.2732V5.69302H14.5953V4.33865H13.955V3.02297H13.277V2.40383H12.599V1.7073H11.3184V1.01076Z" fill="#C0460E"/>
<path d="M11.9986 13.7032H12.599L12.599 13.0926H11.9986V13.7032Z" fill="#C0460E"/>
</svg>
