<svg width="16" height="27" viewBox="0 0 16 27" fill="none" xmlns="http://www.w3.org/2000/svg">
<path d="M10.4059 14.3997H11.6865V13.7032H10.4059V14.3997Z" fill="#ECC6D6"/>
<path d="M6.48866 14.3997H5.20802V13.7032H6.48866V14.3997Z" fill="#ECC6D6"/>
<path d="M6.48866 15.0962H7.58096H8.22128H8.86159H10.4059V14.3997H6.48866V15.0962Z" fill="#ECC6D6"/>
<path d="M8.86159 15.0962H8.50377V26.6858H9.42658V15.0962H8.86159Z" fill="#FF999A"/>
<path d="M8.22128 15.0962H7.58096V26.6858H8.50377V15.0962H8.22128Z" fill="#FFCC9A"/>
<path fill-rule="evenodd" clip-rule="evenodd" d="M10.4059 1.01076V0.314226H6.48865V1.01076L5.20802 1.01076V1.7073H3.92739V2.40383H3.24941V3.02297H2.57143V4.33865H1.93111V5.69302H1.25313V9.71743H1.93111V11.0718H2.57143V12.3875H3.24941V13.0066H3.92739V13.7032H4.56735H5.20802V14.3997H6.48866V15.0962H7.58096V26.6858H9.42658V15.0962H10.4059V14.3997H11.6865V13.7032H12.3667H12.9672L12.9671 13.0926L12.9672 13.0066H13.6451V12.3875H13.8334H14.3231V11.0718H14.9634V9.71743H15.6414V5.69302H14.9634V4.33865H14.3231V3.02297H13.6451V2.40383H12.9672V1.7073H11.6865V1.01076L10.4059 1.01076ZM10.7117 0.696534H11.9924V1.39307H13.273V2.0896H13.951V2.70874H14.629V4.02442H15.2693V5.37879H15.9473V10.0317H15.2693V11.386H14.629V12.7017H13.951V13.3208H13.273V14.0174H11.9924V14.7139H10.7117V15.4104H9.73243V27H7.2751V15.4104H6.18279V14.7139H4.90216V14.0174H3.62153V13.3208H2.94355V12.7017H2.26556V11.386H1.62525V10.0317H0.947266V5.37879H1.62525V4.02442H2.26556V2.70874H2.94355V2.0896H3.62153V1.39307H4.90216V0.696534H6.18279V0H10.7117V0.696534Z" fill="white"/>
<path fill-rule="evenodd" clip-rule="evenodd" d="M5.77034 2.94552H10.4057V3.60588H10.933V3.61436H11.0487V4.31959H11.7052V5.01125H12.3369V6.4046H12.9586V9.0338H12.3369V10.3835H11.724V10.8237H11.0484V11.48H7.17107V10.8132H6.57782V10.1464H5.93513V9.54637H5.2962V7.98231H5.29244V7.13099H6.04223V5.69937H6.04737V5.68854H7.17107V5.04512H9.00495V5.68854H9.62805V5.73003H9.64614V6.43526H10.3027V6.89101L10.3054 7.81006H10.3069V8.29333L10.3081 8.70588L9.67829 8.70787V9.40226H8.84965V9.40141H7.83024V8.75799H7.43474V7.09392H8.26339V8.55009H8.8473V7.81006H9.47676L9.47519 7.28658H8.8175V6.53986H6.87088V7.9918H6.12484V8.67594H6.87913V9.29511H7.58774V9.96188H8.27987V10.6286H9.51113V9.9724H10.8789V8.56703H11.5082V6.93186H10.8766V5.56628H10.2201V4.4572H6.1046V5.16835H5.46191V5.8795H4.86866V7.31875H4.24482V9.83695H4.80274V11.327H5.396V12.8848H6.89561V13.5483H10.6482V12.9186H11.9995V12.2413H13.8334V12.3875V13.0926H12.9671H12.3667V13.7032V13.7699H11.7075V14.3996H5.21004V13.753H4.56735V13.7032V12.9911H3.9741V11.6189H3.41618V10.1614H2.75966V6.95651H3.41618V5.48474H4.04002V4.92659H4.63327V4.16464H5.27596V3.7244H5.30892V3.60588H5.77034V2.94552Z" fill="#FFF1F8"/>
<path d="M11.6865 1.01076L10.4059 1.01076V0.314226H6.48865V1.01076L5.20802 1.01076V1.7073H3.92739V2.40383H3.24941V3.02297H2.57143V4.33865H1.93111V5.69302H1.25313V9.71743H1.93111V11.0718H2.57143V12.3875H3.24941V13.0066H3.92739V13.7032H4.56735V12.9911H3.9741V11.6189H3.41618V10.1614H2.75966V6.95651H3.41618V5.48474H4.04002V4.92659H4.63327V4.16464H5.27596V3.7244H5.30892V3.60588H5.77034V2.94552H10.4057V3.60588H10.933V3.61436H11.0487V4.31959H11.7052V5.01125H12.3369V6.4046H12.9586V9.0338H12.3369V10.3835H11.724V10.8237H11.0484V11.48H7.17107V10.8132H6.57782V10.1464H5.93513V9.54637H5.2962V7.98231H5.29244V7.13099H6.04223V5.69937H6.04737V5.68854H7.17107V5.04512H9.00495V5.68854H9.62805V5.73003H9.64614V6.43526H10.3027V6.89101L10.3054 7.81006H10.3069V8.29333L10.3081 8.70588L9.67829 8.70787V9.40226H8.84965V9.40141H7.83024V8.75799H7.43474V7.09392H8.26339V8.55009H8.8473V7.81006H9.47676L9.47519 7.28658H8.8175V6.53986H6.87088V7.9918H6.12484V8.67594H6.87913V9.29511H7.58774V9.96188H8.27987V10.6286H9.51113V9.9724H10.8789V8.56703H11.5082V6.93186H10.8766V5.56628H10.2201V4.4572H6.1046V5.16835H5.46191V5.8795H4.86866V7.31875H4.24482V9.83695H4.80274V11.327H5.396V12.8848H6.89561V13.5483H10.6482V12.9186H11.9995V12.2413H13.8334V12.3875H14.3231V11.0718H14.9634V9.71743H15.6414V5.69302H14.9634V4.33865H14.3231V3.02297H13.6451V2.40383H12.9672V1.7073H11.6865V1.01076Z" fill="#ECC6D6"/>
<path d="M12.3667 13.7032H12.9672L12.9671 13.0926H12.3667V13.7032Z" fill="#ECC6D6"/>
</svg>
