<svg width="16" height="27" viewBox="0 0 16 27" fill="none" xmlns="http://www.w3.org/2000/svg">
<path d="M9.51135 14.3997H10.792V13.7032H9.51135V14.3997Z" fill="#3F51B5"/>
<path d="M5.59413 14.3997H4.31349V13.7032H5.59413V14.3997Z" fill="#3F51B5"/>
<path d="M5.59413 15.0962H6.68643H7.32675H7.96706H9.51135V14.3997H5.59413V15.0962Z" fill="#3F51B5"/>
<path d="M7.96706 15.0962H7.60924V26.6858H8.53205V15.0962H7.96706Z" fill="#FF999A"/>
<path d="M7.32675 15.0962H6.68643V26.6858H7.60924V15.0962H7.32675Z" fill="#FFCC9A"/>
<path fill-rule="evenodd" clip-rule="evenodd" d="M9.51135 1.01076V0.314226H5.59412V1.01076L4.31349 1.01076V1.7073H3.03286V2.40383H2.35488V3.02297H1.6769V4.33865H1.03658V5.69302H0.358598V9.71743H1.03658V11.0718H1.6769V12.3875H2.35488V13.0066H3.03286V13.7032H3.67282H4.31349V14.3997H5.59413V15.0962H6.68643V26.6858H8.53205V15.0962H9.51135V14.3997H10.792V13.7032H11.4722H12.0726L12.0726 13.0926L12.0726 13.0066H12.7506V12.3875H12.9388H13.4286V11.0718H14.0689V9.71743H14.7469V5.69302H14.0689V4.33865H13.4286V3.02297H12.7506V2.40383H12.0726V1.7073H10.792V1.01076L9.51135 1.01076ZM9.81721 0.696534H11.0978V1.39307H12.3785V2.0896H13.0565V2.70874H13.7344V4.02442H14.3748V5.37879H15.0527V10.0317H14.3748V11.386H13.7344V12.7017H13.0565V13.3208H12.3785V14.0174H11.0978V14.7139H9.81721V15.4104H8.8379V27H6.38057V15.4104H5.28826V14.7139H4.00763V14.0174H2.727V13.3208H2.04901V12.7017H1.37103V11.386H0.730716V10.0317H0.0527344V5.37879H0.730716V4.02442H1.37103V2.70874H2.04901V2.0896H2.727V1.39307H4.00763V0.696534H5.28826V0H9.81721V0.696534Z" fill="white"/>
<path fill-rule="evenodd" clip-rule="evenodd" d="M4.87581 2.94552H9.51116V3.60588H10.0385V3.61436H10.1542V4.31959H10.8107V5.01125H11.4423V6.4046H12.064V9.0338H11.4423V10.3835H10.8295V10.8237H10.1538V11.48H6.27654V10.8132H5.68329V10.1464H5.0406V9.54637H4.40166V7.98231H4.39791V7.13099H5.1477V5.69937H5.15284V5.68854H6.27654V5.04512H8.11042V5.68854H8.73351V5.73003H8.75161V6.43526H9.40813V6.89101L9.41087 7.81006H9.41232V8.29333L9.41355 8.70588L8.78376 8.70787V9.40226H7.95512V9.40141H6.93571V8.75799H6.54021V7.09392H7.36885V8.55009H7.95277V7.81006H8.58222L8.58066 7.28658H7.92297V6.53986H5.97635V7.9918H5.23031V8.67594H5.9846V9.29511H6.69321V9.96188H7.38533V10.6286H8.6166V9.9724H9.98437V8.56703H10.6137V6.93186H9.98203V5.56628H9.32552V4.4572H5.21007V5.16835H4.56738V5.8795H3.97413V7.31875H3.35029V9.83695H3.90821V11.327H4.50147V12.8848H6.00108V13.5483H9.75366V12.9186H11.105V12.2413H12.9388V12.3875V13.0926H12.0726H11.4722V13.7032V13.7699H10.813V14.3996H4.31551V13.753H3.67282V13.7032V12.9911H3.07957V11.6189H2.52165V10.1614H1.86513V6.95651H2.52165V5.48474H3.14548V4.92659H3.73874V4.16464H4.38143V3.7244H4.41439V3.60588H4.87581V2.94552Z" fill="#D8DEFF"/>
<path d="M10.792 1.01076L9.51135 1.01076V0.314226H5.59412V1.01076L4.31349 1.01076V1.7073H3.03286V2.40383H2.35488V3.02297H1.6769V4.33865H1.03658V5.69302H0.358598V9.71743H1.03658V11.0718H1.6769V12.3875H2.35488V13.0066H3.03286V13.7032H3.67282V12.9911H3.07957V11.6189H2.52165V10.1614H1.86513V6.95651H2.52165V5.48474H3.14548V4.92659H3.73874V4.16464H4.38143V3.7244H4.41439V3.60588H4.87581V2.94552H9.51116V3.60588H10.0385V3.61436H10.1542V4.31959H10.8107V5.01125H11.4423V6.4046H12.064V9.0338H11.4423V10.3835H10.8295V10.8237H10.1538V11.48H6.27654V10.8132H5.68329V10.1464H5.0406V9.54637H4.40166V7.98231H4.39791V7.13099H5.1477V5.69937H5.15284V5.68854H6.27654V5.04512H8.11042V5.68854H8.73351V5.73003H8.75161V6.43526H9.40813V6.89101L9.41087 7.81006H9.41232V8.29333L9.41355 8.70588L8.78376 8.70787V9.40226H7.95512V9.40141H6.93571V8.75799H6.54021V7.09392H7.36885V8.55009H7.95277V7.81006H8.58222L8.58066 7.28658H7.92297V6.53986H5.97635V7.9918H5.23031V8.67594H5.9846V9.29511H6.69321V9.96188H7.38533V10.6286H8.6166V9.9724H9.98437V8.56703H10.6137V6.93186H9.98203V5.56628H9.32552V4.4572H5.21007V5.16835H4.56738V5.8795H3.97413V7.31875H3.35029V9.83695H3.90821V11.327H4.50147V12.8848H6.00108V13.5483H9.75366V12.9186H11.105V12.2413H12.9388V12.3875H13.4286V11.0718H14.0689V9.71743H14.7469V5.69302H14.0689V4.33865H13.4286V3.02297H12.7506V2.40383H12.0726V1.7073H10.792V1.01076Z" fill="#3F51B5"/>
<path d="M11.4722 13.7032H12.0726L12.0726 13.0926H11.4722V13.7032Z" fill="#3F51B5"/>
</svg>
