<svg width="16" height="27" viewBox="0 0 16 27" fill="none" xmlns="http://www.w3.org/2000/svg">
<path d="M9.56409 14.3997H10.8447V13.7032H9.56409V14.3997Z" fill="#4CAF50"/>
<path d="M5.64686 14.3997H4.36623V13.7032H5.64686V14.3997Z" fill="#4CAF50"/>
<path d="M5.64686 15.0962H6.73916H7.37948H8.0198H9.56409V14.3997H5.64686V15.0962Z" fill="#4CAF50"/>
<path d="M8.0198 15.0962H7.66197V26.6858H8.58478V15.0962H8.0198Z" fill="#FF999A"/>
<path d="M7.37948 15.0962H6.73916V26.6858H7.66197V15.0962H7.37948Z" fill="#FFCC9A"/>
<path fill-rule="evenodd" clip-rule="evenodd" d="M9.56408 1.01076V0.314226H5.64685V1.01076L4.36623 1.01076V1.7073H3.08559V2.40383H2.40761V3.02297H1.72963V4.33865H1.08931V5.69302H0.411332V9.71743H1.08931V11.0718H1.72963V12.3875H2.40761V13.0066H3.08559V13.7032H3.72556H4.36623V14.3997H5.64686V15.0962H6.73916V26.6858H8.58478V15.0962H9.56409V14.3997H10.8447V13.7032H11.5249H12.1254L12.1254 13.0926L12.1254 13.0066H12.8033V12.3875H12.9916H13.4813V11.0718H14.1216V9.71743H14.7996V5.69302H14.1216V4.33865H13.4813V3.02297H12.8033V2.40383H12.1254V1.7073H10.8447V1.01076L9.56408 1.01076ZM9.86994 0.696534H11.1506V1.39307H12.4312V2.0896H13.1092V2.70874H13.7872V4.02442H14.4275V5.37879H15.1055V10.0317H14.4275V11.386H13.7872V12.7017H13.1092V13.3208H12.4312V14.0174H11.1506V14.7139H9.86994V15.4104H8.89063V27H6.4333V15.4104H5.341V14.7139H4.06036V14.0174H2.77973V13.3208H2.10175V12.7017H1.42377V11.386H0.783451V10.0317H0.105469V5.37879H0.783451V4.02442H1.42377V2.70874H2.10175V2.0896H2.77973V1.39307H4.06036V0.696534H5.341V0H9.86994V0.696534Z" fill="white"/>
<path fill-rule="evenodd" clip-rule="evenodd" d="M4.92854 2.94552H9.56389V3.60588H10.0912V3.61436H10.2069V4.31959H10.8634V5.01125H11.4951V6.4046H12.1168V9.0338H11.4951V10.3835H10.8822V10.8237H10.2066V11.48H6.32928V10.8132H5.73602V10.1464H5.09333V9.54637H4.4544V7.98231H4.45064V7.13099H5.20044V5.69937H5.20557V5.68854H6.32928V5.04512H8.16315V5.68854H8.78625V5.73003H8.80435V6.43526H9.46086V6.89101L9.46361 7.81006H9.46505V8.29333L9.46629 8.70588L8.8365 8.70787V9.40226H8.00785V9.40141H6.98845V8.75799H6.59294V7.09392H7.42159V8.55009H8.00551V7.81006H8.63496L8.63339 7.28658H7.9757V6.53986H6.02908V7.9918H5.28304V8.67594H6.03733V9.29511H6.74594V9.96188H7.43807V10.6286H8.66933V9.9724H10.0371V8.56703H10.6664V6.93186H10.0348V5.56628H9.37825V4.4572H5.26281V5.16835H4.62012V5.8795H4.02686V7.31875H3.40303V9.83695H3.96095V11.327H4.5542V12.8848H6.05381V13.5483H9.8064V12.9186H11.1577V12.2413H12.9916V12.3875V13.0926H12.1254H11.5249V13.7032V13.7699H10.8658V14.3996H4.36825V13.753H3.72556V13.7032V12.9911H3.1323V11.6189H2.57438V10.1614H1.91787V6.95651H2.57438V5.48474H3.19822V4.92659H3.79147V4.16464H4.43416V3.7244H4.46712V3.60588H4.92854V2.94552Z" fill="#DEFFDF"/>
<path d="M10.8447 1.01076L9.56408 1.01076V0.314226H5.64685V1.01076L4.36623 1.01076V1.7073H3.08559V2.40383H2.40761V3.02297H1.72963V4.33865H1.08931V5.69302H0.411332V9.71743H1.08931V11.0718H1.72963V12.3875H2.40761V13.0066H3.08559V13.7032H3.72556V12.9911H3.1323V11.6189H2.57438V10.1614H1.91787V6.95651H2.57438V5.48474H3.19822V4.92659H3.79147V4.16464H4.43416V3.7244H4.46712V3.60588H4.92854V2.94552H9.56389V3.60588H10.0912V3.61436H10.2069V4.31959H10.8634V5.01125H11.4951V6.4046H12.1168V9.0338H11.4951V10.3835H10.8822V10.8237H10.2066V11.48H6.32928V10.8132H5.73602V10.1464H5.09333V9.54637H4.4544V7.98231H4.45064V7.13099H5.20044V5.69937H5.20557V5.68854H6.32928V5.04512H8.16315V5.68854H8.78625V5.73003H8.80435V6.43526H9.46086V6.89101L9.46361 7.81006H9.46505V8.29333L9.46629 8.70588L8.8365 8.70787V9.40226H8.00785V9.40141H6.98845V8.75799H6.59294V7.09392H7.42159V8.55009H8.00551V7.81006H8.63496L8.63339 7.28658H7.9757V6.53986H6.02908V7.9918H5.28304V8.67594H6.03733V9.29511H6.74594V9.96188H7.43807V10.6286H8.66933V9.9724H10.0371V8.56703H10.6664V6.93186H10.0348V5.56628H9.37825V4.4572H5.26281V5.16835H4.62012V5.8795H4.02686V7.31875H3.40303V9.83695H3.96095V11.327H4.5542V12.8848H6.05381V13.5483H9.8064V12.9186H11.1577V12.2413H12.9916V12.3875H13.4813V11.0718H14.1216V9.71743H14.7996V5.69302H14.1216V4.33865H13.4813V3.02297H12.8033V2.40383H12.1254V1.7073H10.8447V1.01076Z" fill="#4CAF50"/>
<path d="M11.5249 13.7032H12.1254L12.1254 13.0926H11.5249V13.7032Z" fill="#4CAF50"/>
</svg>
