<svg width="16" height="27" viewBox="0 0 16 27" fill="none" xmlns="http://www.w3.org/2000/svg">
<path d="M10.1432 14.3997H11.4238V13.7032H10.1432V14.3997Z" fill="#E91E63"/>
<path d="M6.22596 14.3997H4.94533V13.7032H6.22596V14.3997Z" fill="#E91E63"/>
<path d="M6.22596 15.0962H7.31827H7.95858H8.5989H10.1432V14.3997H6.22596V15.0962Z" fill="#E91E63"/>
<path d="M8.5989 15.0962H8.24107V26.6858H9.16388V15.0962H8.5989Z" fill="#FF999A"/>
<path d="M7.95858 15.0962H7.31827V26.6858H8.24107V15.0962H7.95858Z" fill="#FFCC9A"/>
<path fill-rule="evenodd" clip-rule="evenodd" d="M10.1432 1.01076V0.314226H6.22596V1.01076L4.94533 1.01076V1.7073H3.6647V2.40383H2.98671V3.02297H2.30873V4.33865H1.66842V5.69302H0.990434V9.71743H1.66842V11.0718H2.30873V12.3875H2.98671V13.0066H3.6647V13.7032H4.30466H4.94533V14.3997H6.22596V15.0962H7.31827V26.6858H9.16388V15.0962H10.1432V14.3997H11.4238V13.7032H12.104H12.7045L12.7045 13.0926L12.7045 13.0066H13.3824V12.3875H13.5707H14.0604V11.0718H14.7007V9.71743H15.3787V5.69302H14.7007V4.33865H14.0604V3.02297H13.3824V2.40383H12.7045V1.7073H11.4238V1.01076L10.1432 1.01076ZM10.449 0.696534H11.7297V1.39307H13.0103V2.0896H13.6883V2.70874H14.3663V4.02442H15.0066V5.37879H15.6846V10.0317H15.0066V11.386H14.3663V12.7017H13.6883V13.3208H13.0103V14.0174H11.7297V14.7139H10.449V15.4104H9.46973V27H7.0124V15.4104H5.9201V14.7139H4.63947V14.0174H3.35883V13.3208H2.68085V12.7017H2.00287V11.386H1.36255V10.0317H0.68457V5.37879H1.36255V4.02442H2.00287V2.70874H2.68085V2.0896H3.35883V1.39307H4.63947V0.696534H5.9201V0H10.449V0.696534Z" fill="white"/>
<path fill-rule="evenodd" clip-rule="evenodd" d="M5.50764 2.94552H10.143V3.60588H10.6703V3.61436H10.786V4.31959H11.4425V5.01125H12.0742V6.4046H12.6959V9.0338H12.0742V10.3835H11.4613V10.8237H10.7857V11.48H6.90838V10.8132H6.31513V10.1464H5.67243V9.54637H5.0335V7.98231H5.02974V7.13099H5.77954V5.69937H5.78467V5.68854H6.90838V5.04512H8.74226V5.68854H9.36535V5.73003H9.38345V6.43526H10.04V6.89101L10.0427 7.81006H10.0442V8.29333L10.0454 8.70588L9.4156 8.70787V9.40226H8.58695V9.40141H7.56755V8.75799H7.17205V7.09392H8.00069V8.55009H8.58461V7.81006H9.21406L9.2125 7.28658H8.5548V6.53986H6.60818V7.9918H5.86214V8.67594H6.61643V9.29511H7.32504V9.96188H8.01717V10.6286H9.24843V9.9724H10.6162V8.56703H11.2455V6.93186H10.6139V5.56628H9.95736V4.4572H5.84191V5.16835H5.19922V5.8795H4.60597V7.31875H3.98213V9.83695H4.54005V11.327H5.1333V12.8848H6.63291V13.5483H10.3855V12.9186H11.7368V12.2413H13.5707V12.3875V13.0926H12.7045H12.104V13.7032V13.7699H11.4449V14.3996H4.94735V13.753H4.30466V13.7032V12.9911H3.7114V11.6189H3.15348V10.1614H2.49697V6.95651H3.15348V5.48474H3.77732V4.92659H4.37057V4.16464H5.01326V3.7244H5.04622V3.60588H5.50764V2.94552Z" fill="#FFE0EB"/>
<path d="M11.4238 1.01076L10.1432 1.01076V0.314226H6.22596V1.01076L4.94533 1.01076V1.7073H3.6647V2.40383H2.98671V3.02297H2.30873V4.33865H1.66842V5.69302H0.990434V9.71743H1.66842V11.0718H2.30873V12.3875H2.98671V13.0066H3.6647V13.7032H4.30466V12.9911H3.7114V11.6189H3.15348V10.1614H2.49697V6.95651H3.15348V5.48474H3.77732V4.92659H4.37057V4.16464H5.01326V3.7244H5.04622V3.60588H5.50764V2.94552H10.143V3.60588H10.6703V3.61436H10.786V4.31959H11.4425V5.01125H12.0742V6.4046H12.6959V9.0338H12.0742V10.3835H11.4613V10.8237H10.7857V11.48H6.90838V10.8132H6.31513V10.1464H5.67243V9.54637H5.0335V7.98231H5.02974V7.13099H5.77954V5.69937H5.78467V5.68854H6.90838V5.04512H8.74226V5.68854H9.36535V5.73003H9.38345V6.43526H10.04V6.89101L10.0427 7.81006H10.0442V8.29333L10.0454 8.70588L9.4156 8.70787V9.40226H8.58695V9.40141H7.56755V8.75799H7.17205V7.09392H8.00069V8.55009H8.58461V7.81006H9.21406L9.2125 7.28658H8.5548V6.53986H6.60818V7.9918H5.86214V8.67594H6.61643V9.29511H7.32504V9.96188H8.01717V10.6286H9.24843V9.9724H10.6162V8.56703H11.2455V6.93186H10.6139V5.56628H9.95736V4.4572H5.84191V5.16835H5.19922V5.8795H4.60597V7.31875H3.98213V9.83695H4.54005V11.327H5.1333V12.8848H6.63291V13.5483H10.3855V12.9186H11.7368V12.2413H13.5707V12.3875H14.0604V11.0718H14.7007V9.71743H15.3787V5.69302H14.7007V4.33865H14.0604V3.02297H13.3824V2.40383H12.7045V1.7073H11.4238V1.01076Z" fill="#E91E63"/>
<path d="M12.104 13.7032H12.7045L12.7045 13.0926H12.104V13.7032Z" fill="#E91E63"/>
</svg>
