<svg width="16" height="27" viewBox="0 0 16 27" fill="none" xmlns="http://www.w3.org/2000/svg">
<path d="M10.3004 14.3997H11.5811V13.7032H10.3004V14.3997Z" fill="#FF9800"/>
<path d="M6.38319 14.3997H5.10256V13.7032H6.38319V14.3997Z" fill="#FF9800"/>
<path d="M6.38319 15.0962H7.47549H8.11581H8.75612H10.3004V14.3997H6.38319V15.0962Z" fill="#FF9800"/>
<path d="M8.75612 15.0962H8.3983V26.6858H9.32111V15.0962H8.75612Z" fill="#FF999A"/>
<path d="M8.11581 15.0962H7.47549V26.6858H8.3983V15.0962H8.11581Z" fill="#FFCC9A"/>
<path fill-rule="evenodd" clip-rule="evenodd" d="M10.3004 1.01076V0.314226H6.38318V1.01076L5.10256 1.01076V1.7073H3.82192V2.40383H3.14394V3.02297H2.46596V4.33865H1.82564V5.69302H1.14766V9.71743H1.82564V11.0718H2.46596V12.3875H3.14394V13.0066H3.82192V13.7032H4.46188H5.10256V14.3997H6.38319V15.0962H7.47549V26.6858H9.32111V15.0962H10.3004V14.3997H11.5811V13.7032H12.2612H12.8617L12.8617 13.0926L12.8617 13.0066H13.5397V12.3875H13.7279H14.2176V11.0718H14.858V9.71743H15.5359V5.69302H14.858V4.33865H14.2176V3.02297H13.5397V2.40383H12.8617V1.7073H11.5811V1.01076L10.3004 1.01076ZM10.6063 0.696534H11.8869V1.39307H13.1675V2.0896H13.8455V2.70874H14.5235V4.02442H15.1638V5.37879H15.8418V10.0317H15.1638V11.386H14.5235V12.7017H13.8455V13.3208H13.1675V14.0174H11.8869V14.7139H10.6063V15.4104H9.62696V27H7.16963V15.4104H6.07733V14.7139H4.79669V14.0174H3.51606V13.3208H2.83808V12.7017H2.1601V11.386H1.51978V10.0317H0.841797V5.37879H1.51978V4.02442H2.1601V2.70874H2.83808V2.0896H3.51606V1.39307H4.79669V0.696534H6.07733V0H10.6063V0.696534Z" fill="white"/>
<path fill-rule="evenodd" clip-rule="evenodd" d="M5.66487 2.94552H10.3002V3.60588H10.8276V3.61436H10.9432V4.31959H11.5997V5.01125H12.2314V6.4046H12.8531V9.0338H12.2314V10.3835H11.6186V10.8237H10.9429V11.48H7.0656V10.8132H6.47235V10.1464H5.82966V9.54637H5.19073V7.98231H5.18697V7.13099H5.93677V5.69937H5.9419V5.68854H7.0656V5.04512H8.89948V5.68854H9.52258V5.73003H9.54067V6.43526H10.1972V6.89101L10.1999 7.81006H10.2014V8.29333L10.2026 8.70588L9.57282 8.70787V9.40226H8.74418V9.40141H7.72477V8.75799H7.32927V7.09392H8.15792V8.55009H8.74183V7.81006H9.37129L9.36972 7.28658H8.71203V6.53986H6.76541V7.9918H6.01937V8.67594H6.77366V9.29511H7.48227V9.96188H8.1744V10.6286H9.40566V9.9724H10.7734V8.56703H11.4028V6.93186H10.7711V5.56628H10.1146V4.4572H5.99914V5.16835H5.35645V5.8795H4.76319V7.31875H4.13935V9.83695H4.69728V11.327H5.29053V12.8848H6.79014V13.5483H10.5427V12.9186H11.894V12.2413H13.7279V12.3875V13.0926H12.8617H12.2612V13.7032V13.7699H11.6021V14.3996H5.10457V13.753H4.46188V13.7032V12.9911H3.86863V11.6189H3.31071V10.1614H2.65419V6.95651H3.31071V5.48474H3.93455V4.92659H4.5278V4.16464H5.17049V3.7244H5.20345V3.60588H5.66487V2.94552Z" fill="#FFF4E4"/>
<path d="M11.5811 1.01076L10.3004 1.01076V0.314226H6.38318V1.01076L5.10256 1.01076V1.7073H3.82192V2.40383H3.14394V3.02297H2.46596V4.33865H1.82564V5.69302H1.14766V9.71743H1.82564V11.0718H2.46596V12.3875H3.14394V13.0066H3.82192V13.7032H4.46188V12.9911H3.86863V11.6189H3.31071V10.1614H2.65419V6.95651H3.31071V5.48474H3.93455V4.92659H4.5278V4.16464H5.17049V3.7244H5.20345V3.60588H5.66487V2.94552H10.3002V3.60588H10.8276V3.61436H10.9432V4.31959H11.5997V5.01125H12.2314V6.4046H12.8531V9.0338H12.2314V10.3835H11.6186V10.8237H10.9429V11.48H7.0656V10.8132H6.47235V10.1464H5.82966V9.54637H5.19073V7.98231H5.18697V7.13099H5.93677V5.69937H5.9419V5.68854H7.0656V5.04512H8.89948V5.68854H9.52258V5.73003H9.54067V6.43526H10.1972V6.89101L10.1999 7.81006H10.2014V8.29333L10.2026 8.70588L9.57282 8.70787V9.40226H8.74418V9.40141H7.72477V8.75799H7.32927V7.09392H8.15792V8.55009H8.74183V7.81006H9.37129L9.36972 7.28658H8.71203V6.53986H6.76541V7.9918H6.01937V8.67594H6.77366V9.29511H7.48227V9.96188H8.1744V10.6286H9.40566V9.9724H10.7734V8.56703H11.4028V6.93186H10.7711V5.56628H10.1146V4.4572H5.99914V5.16835H5.35645V5.8795H4.76319V7.31875H4.13935V9.83695H4.69728V11.327H5.29053V12.8848H6.79014V13.5483H10.5427V12.9186H11.894V12.2413H13.7279V12.3875H14.2176V11.0718H14.858V9.71743H15.5359V5.69302H14.858V4.33865H14.2176V3.02297H13.5397V2.40383H12.8617V1.7073H11.5811V1.01076Z" fill="#FF9800"/>
<path d="M12.2612 13.7032H12.8617L12.8617 13.0926H12.2612V13.7032Z" fill="#FF9800"/>
</svg>
